<mxfile host="app.diagrams.net" agent="Mozilla/5.0 (Windows NT 10.0; Win64; x64) AppleWebKit/537.36 (KHTML, like Gecko) Chrome/137.0.0.0 Safari/537.36" version="27.1.1">
  <diagram name="Page-1" id="gfF3g0NrARKH3pu-C-AF">
    <mxGraphModel dx="1892" dy="1722" grid="1" gridSize="10" guides="1" tooltips="1" connect="1" arrows="1" fold="1" page="1" pageScale="1" pageWidth="850" pageHeight="1100" math="0" shadow="0">
      <root>
        <mxCell id="0" />
        <mxCell id="1" parent="0" />
        <mxCell id="Lf1fIR2ePeuiFVvzxuUq-1" value="" style="rounded=0;whiteSpace=wrap;html=1;fillColor=none;strokeColor=#666666;dashed=1;gradientColor=#b3b3b3;" vertex="1" parent="1">
          <mxGeometry x="-120" y="80" width="160" height="520" as="geometry" />
        </mxCell>
        <mxCell id="Lf1fIR2ePeuiFVvzxuUq-2" value="Sources" style="rounded=0;whiteSpace=wrap;html=1;fillColor=default;fontSize=24;strokeColor=none;" vertex="1" parent="1">
          <mxGeometry x="-80" y="63" width="80" height="30" as="geometry" />
        </mxCell>
        <mxCell id="Lf1fIR2ePeuiFVvzxuUq-4" value="" style="rounded=0;whiteSpace=wrap;html=1;fillColor=none;strokeColor=#666666;dashed=1;gradientColor=#b3b3b3;" vertex="1" parent="1">
          <mxGeometry x="80" y="80" width="880" height="520" as="geometry" />
        </mxCell>
        <mxCell id="Lf1fIR2ePeuiFVvzxuUq-5" value="Data Warehouse" style="rounded=0;whiteSpace=wrap;html=1;fillColor=default;fontSize=24;strokeColor=none;" vertex="1" parent="1">
          <mxGeometry x="440" y="63" width="200" height="30" as="geometry" />
        </mxCell>
        <mxCell id="Lf1fIR2ePeuiFVvzxuUq-6" value="" style="rounded=0;whiteSpace=wrap;html=1;fillColor=none;strokeColor=#666666;dashed=1;gradientColor=#b3b3b3;" vertex="1" parent="1">
          <mxGeometry x="1000" y="80" width="120" height="520" as="geometry" />
        </mxCell>
        <mxCell id="Lf1fIR2ePeuiFVvzxuUq-7" value="Consumer" style="rounded=0;whiteSpace=wrap;html=1;fillColor=default;fontSize=24;strokeColor=none;" vertex="1" parent="1">
          <mxGeometry x="1020" y="63" width="80" height="30" as="geometry" />
        </mxCell>
        <mxCell id="Lf1fIR2ePeuiFVvzxuUq-8" value="Bronze Layer" style="rounded=0;whiteSpace=wrap;html=1;fillColor=#ffe6cc;strokeColor=#d79b00;fontSize=20;" vertex="1" parent="1">
          <mxGeometry x="120" y="120" width="240" height="40" as="geometry" />
        </mxCell>
        <mxCell id="Lf1fIR2ePeuiFVvzxuUq-9" value="" style="rounded=0;whiteSpace=wrap;html=1;fillColor=none;strokeColor=#d79b00;fontSize=20;" vertex="1" parent="1">
          <mxGeometry x="120" y="200" width="240" height="390" as="geometry" />
        </mxCell>
        <mxCell id="Lf1fIR2ePeuiFVvzxuUq-10" value="Silver Layer" style="rounded=0;whiteSpace=wrap;html=1;fillColor=#f5f5f5;strokeColor=#666666;fontSize=20;fontColor=#333333;" vertex="1" parent="1">
          <mxGeometry x="400" y="120" width="240" height="40" as="geometry" />
        </mxCell>
        <mxCell id="Lf1fIR2ePeuiFVvzxuUq-11" value="" style="rounded=0;whiteSpace=wrap;html=1;fillColor=none;strokeColor=#666666;fontSize=20;fontColor=#333333;" vertex="1" parent="1">
          <mxGeometry x="400" y="200" width="240" height="390" as="geometry" />
        </mxCell>
        <mxCell id="Lf1fIR2ePeuiFVvzxuUq-12" value="Gold Layer" style="rounded=0;whiteSpace=wrap;html=1;fillColor=#fff2cc;strokeColor=#d6b656;fontSize=20;gradientColor=#ffd966;" vertex="1" parent="1">
          <mxGeometry x="680" y="120" width="240" height="40" as="geometry" />
        </mxCell>
        <mxCell id="Lf1fIR2ePeuiFVvzxuUq-13" value="" style="rounded=0;whiteSpace=wrap;html=1;fillColor=none;strokeColor=#d6b656;fontSize=20;" vertex="1" parent="1">
          <mxGeometry x="680" y="200" width="240" height="390" as="geometry" />
        </mxCell>
        <mxCell id="Lf1fIR2ePeuiFVvzxuUq-15" value="&lt;b&gt;CRM&lt;/b&gt;" style="image;aspect=fixed;html=1;points=[];align=center;fontSize=12;image=img/lib/azure2/general/Folder_Blank.svg;" vertex="1" parent="1">
          <mxGeometry x="-80" y="151.5" width="49.29" height="40" as="geometry" />
        </mxCell>
        <mxCell id="Lf1fIR2ePeuiFVvzxuUq-16" value="" style="image;aspect=fixed;html=1;points=[];align=center;fontSize=12;image=img/lib/azure2/general/Files.svg;" vertex="1" parent="1">
          <mxGeometry x="-37.779999999999994" y="180.5" width="27.43" height="30" as="geometry" />
        </mxCell>
        <mxCell id="Lf1fIR2ePeuiFVvzxuUq-19" value="&lt;b&gt;ERP&lt;/b&gt;" style="image;aspect=fixed;html=1;points=[];align=center;fontSize=12;image=img/lib/azure2/general/Folder_Blank.svg;" vertex="1" parent="1">
          <mxGeometry x="-79" y="291.5" width="49.29" height="40" as="geometry" />
        </mxCell>
        <mxCell id="Lf1fIR2ePeuiFVvzxuUq-20" value="" style="image;aspect=fixed;html=1;points=[];align=center;fontSize=12;image=img/lib/azure2/general/Files.svg;" vertex="1" parent="1">
          <mxGeometry x="-40" y="320" width="27.42" height="30" as="geometry" />
        </mxCell>
        <mxCell id="Lf1fIR2ePeuiFVvzxuUq-25" value="" style="endArrow=none;html=1;rounded=0;exitX=0.167;exitY=0.727;exitDx=0;exitDy=0;exitPerimeter=0;entryX=0.833;entryY=0.727;entryDx=0;entryDy=0;entryPerimeter=0;fillColor=#dae8fc;strokeColor=#6c8ebf;" edge="1" parent="1">
          <mxGeometry width="50" height="50" relative="1" as="geometry">
            <mxPoint x="-98.67000000000003" y="399.99999999999994" as="sourcePoint" />
            <mxPoint x="-18.749999999999957" y="399.99999999999994" as="targetPoint" />
            <Array as="points" />
          </mxGeometry>
        </mxCell>
        <mxCell id="Lf1fIR2ePeuiFVvzxuUq-27" value="&lt;div style=&quot;text-align: left;&quot;&gt;&lt;b style=&quot;background-color: transparent; color: light-dark(rgb(0, 0, 0), rgb(255, 255, 255));&quot;&gt;Object Type: &lt;/b&gt;&lt;span style=&quot;background-color: transparent; color: light-dark(rgb(0, 0, 0), rgb(255, 255, 255));&quot;&gt;CSV Files&lt;/span&gt;&lt;/div&gt;&lt;div style=&quot;text-align: left;&quot;&gt;&lt;br&gt;&lt;/div&gt;&lt;div style=&quot;text-align: left;&quot;&gt;&lt;b&gt;Interface:&lt;/b&gt;&amp;nbsp;&lt;/div&gt;&lt;div style=&quot;text-align: left;&quot;&gt;Files in Folder&lt;/div&gt;" style="text;html=1;align=center;verticalAlign=middle;whiteSpace=wrap;rounded=0;" vertex="1" parent="1">
          <mxGeometry x="-100" y="403" width="100" height="140" as="geometry" />
        </mxCell>
        <mxCell id="Lf1fIR2ePeuiFVvzxuUq-29" value="&#xa;&lt;b style=&quot;forced-color-adjust: none; color: rgb(0, 0, 0); font-family: Helvetica; font-size: 12px; font-style: normal; font-variant-ligatures: normal; font-variant-caps: normal; letter-spacing: normal; orphans: 2; text-align: center; text-indent: 0px; text-transform: none; widows: 2; word-spacing: 0px; -webkit-text-stroke-width: 0px; white-space: normal; background-color: rgb(236, 236, 236); text-decoration-thickness: initial; text-decoration-style: initial; text-decoration-color: initial;&quot;&gt;&lt;font style=&quot;forced-color-adjust: none; font-size: 24px;&quot;&gt;High Level Architecture&amp;nbsp;&lt;/font&gt;&lt;/b&gt;&#xa;&#xa;" style="text;html=1;whiteSpace=wrap;overflow=hidden;rounded=0;" vertex="1" parent="1">
          <mxGeometry x="30" y="-90" width="320" height="80" as="geometry" />
        </mxCell>
        <mxCell id="Lf1fIR2ePeuiFVvzxuUq-30" value="" style="html=1;verticalLabelPosition=bottom;align=center;labelBackgroundColor=#ffffff;verticalAlign=top;strokeWidth=2;strokeColor=#d79b00;shadow=0;dashed=0;shape=mxgraph.ios7.icons.data;fillColor=#ffe6cc;" vertex="1" parent="1">
          <mxGeometry x="220" y="241.5" width="55" height="50" as="geometry" />
        </mxCell>
        <mxCell id="Lf1fIR2ePeuiFVvzxuUq-31" value="" style="html=1;verticalLabelPosition=bottom;align=center;labelBackgroundColor=#ffffff;verticalAlign=top;strokeWidth=2;strokeColor=#666666;shadow=0;dashed=0;shape=mxgraph.ios7.icons.data;fillColor=#f5f5f5;fontColor=#333333;" vertex="1" parent="1">
          <mxGeometry x="500" y="241.5" width="60" height="48.5" as="geometry" />
        </mxCell>
        <mxCell id="Lf1fIR2ePeuiFVvzxuUq-32" value="" style="html=1;verticalLabelPosition=bottom;align=center;labelBackgroundColor=#ffffff;verticalAlign=top;strokeWidth=2;strokeColor=#d6b656;shadow=0;dashed=0;shape=mxgraph.ios7.icons.data;fillColor=#fff2cc;" vertex="1" parent="1">
          <mxGeometry x="780" y="241.5" width="60" height="48.5" as="geometry" />
        </mxCell>
        <mxCell id="Lf1fIR2ePeuiFVvzxuUq-35" value="" style="html=1;shadow=0;dashed=0;align=center;verticalAlign=middle;shape=mxgraph.arrows2.arrow;dy=0.6;dx=40;notch=0;fillColor=#b0e3e6;strokeColor=#0e8088;" vertex="1" parent="1">
          <mxGeometry x="10.000000000000014" y="275" width="120" height="30" as="geometry" />
        </mxCell>
        <mxCell id="Lf1fIR2ePeuiFVvzxuUq-44" value="" style="html=1;shadow=0;dashed=0;align=center;verticalAlign=middle;shape=mxgraph.arrows2.arrow;dy=0.6;dx=40;notch=0;fillColor=#b0e3e6;strokeColor=#0e8088;" vertex="1" parent="1">
          <mxGeometry x="322.5" y="275" width="120" height="30" as="geometry" />
        </mxCell>
        <mxCell id="Lf1fIR2ePeuiFVvzxuUq-45" value="" style="html=1;shadow=0;dashed=0;align=center;verticalAlign=middle;shape=mxgraph.arrows2.arrow;dy=0.6;dx=40;notch=0;fillColor=#b0e3e6;strokeColor=#0e8088;" vertex="1" parent="1">
          <mxGeometry x="620" y="275" width="120" height="30" as="geometry" />
        </mxCell>
        <mxCell id="Lf1fIR2ePeuiFVvzxuUq-46" value="" style="html=1;shadow=0;dashed=0;align=center;verticalAlign=middle;shape=mxgraph.arrows2.arrow;dy=0.48;dx=35.2;notch=0;fillColor=#b0e3e6;strokeColor=#0e8088;" vertex="1" parent="1">
          <mxGeometry x="910" y="275" width="120" height="30" as="geometry" />
        </mxCell>
        <mxCell id="Lf1fIR2ePeuiFVvzxuUq-49" value="Raw Data" style="text;html=1;align=center;verticalAlign=middle;whiteSpace=wrap;rounded=0;fontSize=16;fontStyle=0" vertex="1" parent="1">
          <mxGeometry x="200" y="301.5" width="100" height="30" as="geometry" />
        </mxCell>
        <mxCell id="Lf1fIR2ePeuiFVvzxuUq-51" value="&lt;font style=&quot;font-size: 16px;&quot;&gt;Cleaned standardized Data&lt;/font&gt;" style="text;html=1;align=center;verticalAlign=middle;whiteSpace=wrap;rounded=0;fontSize=18;fontStyle=0" vertex="1" parent="1">
          <mxGeometry x="457.5" y="311.5" width="145" height="10" as="geometry" />
        </mxCell>
        <mxCell id="Lf1fIR2ePeuiFVvzxuUq-52" value="&lt;font style=&quot;font-size: 16px;&quot;&gt;Business Data&lt;/font&gt;&lt;div&gt;&lt;font style=&quot;font-size: 16px;&quot;&gt;&lt;br&gt;&lt;/font&gt;&lt;/div&gt;" style="text;html=1;align=center;verticalAlign=middle;whiteSpace=wrap;rounded=0;fontSize=18;fontStyle=0" vertex="1" parent="1">
          <mxGeometry x="750" y="320" width="145" height="10" as="geometry" />
        </mxCell>
        <mxCell id="Lf1fIR2ePeuiFVvzxuUq-54" value="&lt;div style=&quot;text-align: left;&quot;&gt;&lt;b style=&quot;background-color: transparent; color: light-dark(rgb(0, 0, 0), rgb(255, 255, 255));&quot;&gt;Object Type:&amp;nbsp;&lt;/b&gt;&lt;span style=&quot;background-color: transparent; color: light-dark(rgb(0, 0, 0), rgb(255, 255, 255));&quot;&gt;Table&lt;/span&gt;&lt;/div&gt;&lt;div style=&quot;text-align: left;&quot;&gt;&lt;b style=&quot;background-color: transparent; color: light-dark(rgb(0, 0, 0), rgb(255, 255, 255));&quot;&gt;&lt;br&gt;&lt;/b&gt;&lt;/div&gt;&lt;div style=&quot;text-align: left;&quot;&gt;&lt;b&gt;&lt;span style=&quot;background-color: transparent; color: light-dark(rgb(0, 0, 0), rgb(255, 255, 255));&quot;&gt;Load&amp;nbsp;&lt;/span&gt;&lt;span style=&quot;background-color: transparent; color: light-dark(rgb(0, 0, 0), rgb(255, 255, 255));&quot;&gt;:&lt;/span&gt;&lt;/b&gt;&lt;/div&gt;&lt;div style=&quot;text-align: left;&quot;&gt;&lt;span style=&quot;background-color: transparent; color: light-dark(rgb(0, 0, 0), rgb(255, 255, 255));&quot;&gt;&amp;nbsp; &amp;nbsp; &amp;nbsp;Batch Processing&lt;/span&gt;&lt;/div&gt;&lt;div style=&quot;text-align: left;&quot;&gt;&lt;span style=&quot;background-color: transparent; color: light-dark(rgb(0, 0, 0), rgb(255, 255, 255));&quot;&gt;&amp;nbsp; &amp;nbsp; &amp;nbsp;Full Load&amp;nbsp;&lt;/span&gt;&lt;/div&gt;&lt;div style=&quot;text-align: left;&quot;&gt;&lt;span style=&quot;background-color: transparent; color: light-dark(rgb(0, 0, 0), rgb(255, 255, 255));&quot;&gt;&amp;nbsp; &amp;nbsp; &amp;nbsp;Trunc &amp;amp;&amp;nbsp; Insert&lt;b&gt;&amp;nbsp;&lt;/b&gt;&lt;/span&gt;&lt;/div&gt;&lt;div style=&quot;text-align: left;&quot;&gt;&lt;span style=&quot;background-color: transparent; color: light-dark(rgb(0, 0, 0), rgb(255, 255, 255));&quot;&gt;&lt;b&gt;&lt;br&gt;&lt;/b&gt;&lt;/span&gt;&lt;/div&gt;&lt;div style=&quot;text-align: left;&quot;&gt;&lt;span style=&quot;background-color: transparent; color: light-dark(rgb(0, 0, 0), rgb(255, 255, 255));&quot;&gt;&lt;b&gt;No Transformation&amp;nbsp;&lt;/b&gt;&lt;/span&gt;&lt;/div&gt;&lt;div style=&quot;text-align: left;&quot;&gt;&lt;span style=&quot;background-color: transparent; color: light-dark(rgb(0, 0, 0), rgb(255, 255, 255));&quot;&gt;&lt;b&gt;&lt;br&gt;&lt;/b&gt;&lt;/span&gt;&lt;/div&gt;&lt;div style=&quot;text-align: left;&quot;&gt;&lt;span style=&quot;background-color: transparent; color: light-dark(rgb(0, 0, 0), rgb(255, 255, 255));&quot;&gt;&lt;b&gt;Data Model :&lt;/b&gt;None (as-is)&lt;/span&gt;&lt;/div&gt;&lt;div style=&quot;text-align: left;&quot;&gt;&lt;span style=&quot;background-color: transparent; color: light-dark(rgb(0, 0, 0), rgb(255, 255, 255));&quot;&gt;&lt;b&gt;&lt;span style=&quot;white-space: pre;&quot;&gt;&#x9;&lt;/span&gt;&lt;br&gt;&lt;/b&gt;&lt;/span&gt;&lt;/div&gt;&lt;div style=&quot;text-align: left;&quot;&gt;&lt;span style=&quot;background-color: transparent; color: light-dark(rgb(0, 0, 0), rgb(255, 255, 255));&quot;&gt;&lt;b&gt;.&amp;nbsp;&lt;/b&gt;&lt;/span&gt;&lt;/div&gt;" style="text;html=1;align=center;verticalAlign=middle;whiteSpace=wrap;rounded=0;" vertex="1" parent="1">
          <mxGeometry x="155" y="370" width="165" height="180" as="geometry" />
        </mxCell>
        <mxCell id="Lf1fIR2ePeuiFVvzxuUq-60" value="&lt;div style=&quot;text-align: left;&quot;&gt;&lt;b style=&quot;background-color: transparent; color: light-dark(rgb(0, 0, 0), rgb(255, 255, 255));&quot;&gt;Object Type:&amp;nbsp;&lt;/b&gt;&lt;span style=&quot;background-color: transparent; color: light-dark(rgb(0, 0, 0), rgb(255, 255, 255));&quot;&gt;Table&lt;/span&gt;&lt;/div&gt;&lt;div style=&quot;text-align: left;&quot;&gt;&lt;b style=&quot;background-color: transparent; color: light-dark(rgb(0, 0, 0), rgb(255, 255, 255));&quot;&gt;&lt;br&gt;&lt;/b&gt;&lt;/div&gt;&lt;div style=&quot;text-align: left;&quot;&gt;&lt;b&gt;&lt;span style=&quot;background-color: transparent; color: light-dark(rgb(0, 0, 0), rgb(255, 255, 255));&quot;&gt;Load&amp;nbsp;&lt;/span&gt;&lt;span style=&quot;background-color: transparent; color: light-dark(rgb(0, 0, 0), rgb(255, 255, 255));&quot;&gt;:&lt;/span&gt;&lt;/b&gt;&lt;/div&gt;&lt;div style=&quot;text-align: left;&quot;&gt;&lt;span style=&quot;background-color: transparent; color: light-dark(rgb(0, 0, 0), rgb(255, 255, 255));&quot;&gt;&amp;nbsp; &amp;nbsp; &amp;nbsp;Batch Processing&lt;/span&gt;&lt;/div&gt;&lt;div style=&quot;text-align: left;&quot;&gt;&lt;span style=&quot;background-color: transparent; color: light-dark(rgb(0, 0, 0), rgb(255, 255, 255));&quot;&gt;&amp;nbsp; &amp;nbsp; &amp;nbsp;Full Load&amp;nbsp;&lt;/span&gt;&lt;/div&gt;&lt;div style=&quot;text-align: left;&quot;&gt;&lt;span style=&quot;background-color: transparent; color: light-dark(rgb(0, 0, 0), rgb(255, 255, 255));&quot;&gt;&amp;nbsp; &amp;nbsp; &amp;nbsp;Trunc &amp;amp;&amp;nbsp; Insert&lt;b&gt;&amp;nbsp;&lt;/b&gt;&lt;/span&gt;&lt;/div&gt;&lt;div style=&quot;text-align: left;&quot;&gt;&lt;span style=&quot;background-color: transparent; color: light-dark(rgb(0, 0, 0), rgb(255, 255, 255));&quot;&gt;&lt;b&gt;&lt;br&gt;&lt;/b&gt;&lt;/span&gt;&lt;/div&gt;&lt;div style=&quot;text-align: left;&quot;&gt;&lt;span style=&quot;background-color: transparent; color: light-dark(rgb(0, 0, 0), rgb(255, 255, 255));&quot;&gt;&lt;b&gt;Transformation:&amp;nbsp;&lt;/b&gt;&lt;/span&gt;&lt;/div&gt;&lt;div style=&quot;text-align: left;&quot;&gt;&lt;span style=&quot;background-color: transparent; color: light-dark(rgb(0, 0, 0), rgb(255, 255, 255));&quot;&gt;&lt;b&gt;&amp;nbsp; &amp;nbsp; &amp;nbsp;&lt;/b&gt;Data Cleaning&lt;/span&gt;&lt;/div&gt;&lt;div style=&quot;text-align: left;&quot;&gt;&lt;span style=&quot;background-color: transparent; color: light-dark(rgb(0, 0, 0), rgb(255, 255, 255));&quot;&gt;&amp;nbsp; &amp;nbsp; &amp;nbsp;Data Standrization&lt;/span&gt;&lt;/div&gt;&lt;div style=&quot;text-align: left;&quot;&gt;&lt;span style=&quot;background-color: transparent; color: light-dark(rgb(0, 0, 0), rgb(255, 255, 255));&quot;&gt;&amp;nbsp; &amp;nbsp; &amp;nbsp;Data Normalization&lt;/span&gt;&lt;/div&gt;&lt;div style=&quot;text-align: left;&quot;&gt;&lt;span style=&quot;background-color: transparent; color: light-dark(rgb(0, 0, 0), rgb(255, 255, 255));&quot;&gt;&amp;nbsp; &amp;nbsp; &amp;nbsp;Derived Columns&lt;/span&gt;&lt;/div&gt;&lt;div style=&quot;text-align: left;&quot;&gt;&lt;span style=&quot;background-color: transparent; color: light-dark(rgb(0, 0, 0), rgb(255, 255, 255));&quot;&gt;&amp;nbsp; &amp;nbsp; &amp;nbsp;Data Enchriment&lt;/span&gt;&lt;/div&gt;&lt;div style=&quot;text-align: left;&quot;&gt;&lt;span style=&quot;background-color: transparent; color: light-dark(rgb(0, 0, 0), rgb(255, 255, 255));&quot;&gt;&amp;nbsp; &amp;nbsp; &amp;nbsp;&lt;/span&gt;&lt;/div&gt;&lt;div style=&quot;text-align: left;&quot;&gt;&lt;span style=&quot;background-color: transparent; color: light-dark(rgb(0, 0, 0), rgb(255, 255, 255));&quot;&gt;&lt;b&gt;Data Model :&lt;/b&gt;None (as-is)&lt;/span&gt;&lt;/div&gt;&lt;div style=&quot;text-align: left;&quot;&gt;&lt;span style=&quot;background-color: transparent; color: light-dark(rgb(0, 0, 0), rgb(255, 255, 255));&quot;&gt;&lt;b&gt;&lt;span style=&quot;white-space: pre;&quot;&gt;&#x9;&lt;/span&gt;&lt;br&gt;&lt;/b&gt;&lt;/span&gt;&lt;/div&gt;&lt;div style=&quot;text-align: left;&quot;&gt;&lt;span style=&quot;background-color: transparent; color: light-dark(rgb(0, 0, 0), rgb(255, 255, 255));&quot;&gt;&lt;b&gt;.&amp;nbsp;&lt;/b&gt;&lt;/span&gt;&lt;/div&gt;" style="text;html=1;align=center;verticalAlign=middle;whiteSpace=wrap;rounded=0;" vertex="1" parent="1">
          <mxGeometry x="450" y="480" width="140" height="20" as="geometry" />
        </mxCell>
        <mxCell id="Lf1fIR2ePeuiFVvzxuUq-63" value="" style="endArrow=none;html=1;rounded=0;strokeColor=#D79B00;" edge="1" parent="1">
          <mxGeometry width="50" height="50" relative="1" as="geometry">
            <mxPoint x="310" y="360" as="sourcePoint" />
            <mxPoint x="160" y="360.5" as="targetPoint" />
            <Array as="points">
              <mxPoint x="200" y="360.5" />
            </Array>
          </mxGeometry>
        </mxCell>
        <mxCell id="Lf1fIR2ePeuiFVvzxuUq-75" value="" style="endArrow=none;html=1;rounded=0;strokeColor=#666666;" edge="1" parent="1">
          <mxGeometry width="50" height="50" relative="1" as="geometry">
            <mxPoint x="592.5" y="360" as="sourcePoint" />
            <mxPoint x="442.5" y="361" as="targetPoint" />
            <Array as="points">
              <mxPoint x="532.5" y="360" />
              <mxPoint x="492.5" y="361" />
              <mxPoint x="482.5" y="360.5" />
            </Array>
          </mxGeometry>
        </mxCell>
        <mxCell id="Lf1fIR2ePeuiFVvzxuUq-76" value="" style="endArrow=none;html=1;rounded=0;strokeColor=#D6B656;" edge="1" parent="1">
          <mxGeometry width="50" height="50" relative="1" as="geometry">
            <mxPoint x="870" y="360" as="sourcePoint" />
            <mxPoint x="720" y="360.5" as="targetPoint" />
            <Array as="points">
              <mxPoint x="760" y="360.5" />
            </Array>
          </mxGeometry>
        </mxCell>
        <mxCell id="Lf1fIR2ePeuiFVvzxuUq-77" value="&lt;div style=&quot;text-align: left;&quot;&gt;&lt;b style=&quot;background-color: transparent; color: light-dark(rgb(0, 0, 0), rgb(255, 255, 255));&quot;&gt;Object Type:&amp;nbsp;&lt;/b&gt;&lt;span style=&quot;background-color: transparent; color: light-dark(rgb(0, 0, 0), rgb(255, 255, 255));&quot;&gt;Vies&lt;/span&gt;&lt;/div&gt;&lt;div style=&quot;text-align: left;&quot;&gt;&lt;b style=&quot;background-color: transparent; color: light-dark(rgb(0, 0, 0), rgb(255, 255, 255));&quot;&gt;&lt;br&gt;&lt;/b&gt;&lt;/div&gt;&lt;div style=&quot;text-align: left;&quot;&gt;&lt;b&gt;&lt;span style=&quot;background-color: transparent; color: light-dark(rgb(0, 0, 0), rgb(255, 255, 255));&quot;&gt;&amp;nbsp;No Load&amp;nbsp;&lt;/span&gt;&lt;span style=&quot;background-color: transparent; color: light-dark(rgb(0, 0, 0), rgb(255, 255, 255));&quot;&gt;:&lt;/span&gt;&lt;/b&gt;&lt;/div&gt;&lt;div style=&quot;text-align: left;&quot;&gt;&lt;b style=&quot;background-color: transparent; color: light-dark(rgb(0, 0, 0), rgb(255, 255, 255));&quot;&gt;&amp;nbsp;&lt;/b&gt;&lt;/div&gt;&lt;div style=&quot;text-align: left;&quot;&gt;&lt;span style=&quot;background-color: transparent; color: light-dark(rgb(0, 0, 0), rgb(255, 255, 255));&quot;&gt;&lt;b&gt;&lt;br&gt;&lt;/b&gt;&lt;/span&gt;&lt;/div&gt;&lt;div style=&quot;text-align: left;&quot;&gt;&lt;span style=&quot;background-color: transparent; color: light-dark(rgb(0, 0, 0), rgb(255, 255, 255));&quot;&gt;&lt;b&gt;Transformation:&amp;nbsp;&lt;/b&gt;&lt;/span&gt;&lt;/div&gt;&lt;div style=&quot;text-align: left;&quot;&gt;&lt;span style=&quot;background-color: transparent; color: light-dark(rgb(0, 0, 0), rgb(255, 255, 255));&quot;&gt;&lt;b&gt;&amp;nbsp; &amp;nbsp; &amp;nbsp;&lt;/b&gt;Data Integration&lt;/span&gt;&lt;/div&gt;&lt;div style=&quot;text-align: left;&quot;&gt;&lt;span style=&quot;background-color: transparent; color: light-dark(rgb(0, 0, 0), rgb(255, 255, 255));&quot;&gt;&amp;nbsp; &amp;nbsp; &amp;nbsp;Aggregation&lt;/span&gt;&lt;/div&gt;&lt;div style=&quot;text-align: left;&quot;&gt;&lt;span style=&quot;background-color: transparent; color: light-dark(rgb(0, 0, 0), rgb(255, 255, 255));&quot;&gt;&amp;nbsp; &amp;nbsp; &amp;nbsp;Business Logics&lt;/span&gt;&lt;/div&gt;&lt;div style=&quot;text-align: left;&quot;&gt;&lt;span style=&quot;background-color: transparent; color: light-dark(rgb(0, 0, 0), rgb(255, 255, 255));&quot;&gt;&amp;nbsp;&amp;nbsp;&lt;/span&gt;&lt;/div&gt;&lt;div style=&quot;text-align: left;&quot;&gt;&lt;span style=&quot;background-color: transparent; color: light-dark(rgb(0, 0, 0), rgb(255, 255, 255));&quot;&gt;&lt;b&gt;Data Model :&lt;/b&gt;&lt;/span&gt;&lt;/div&gt;&lt;div style=&quot;text-align: left;&quot;&gt;&lt;span style=&quot;background-color: transparent; color: light-dark(rgb(0, 0, 0), rgb(255, 255, 255));&quot;&gt;&amp;nbsp; &amp;nbsp; &amp;nbsp;Star Schema&lt;br&gt;&lt;/span&gt;&lt;/div&gt;&lt;div style=&quot;text-align: left;&quot;&gt;&lt;span style=&quot;background-color: transparent; color: light-dark(rgb(0, 0, 0), rgb(255, 255, 255));&quot;&gt;&amp;nbsp; &amp;nbsp; &amp;nbsp; Flat Table&lt;/span&gt;&lt;/div&gt;&lt;div style=&quot;text-align: left;&quot;&gt;&lt;span style=&quot;background-color: transparent; color: light-dark(rgb(0, 0, 0), rgb(255, 255, 255));&quot;&gt;&amp;nbsp; &amp;nbsp; &amp;nbsp; &amp;nbsp;Aggregate Table&lt;/span&gt;&lt;/div&gt;&lt;div style=&quot;text-align: left;&quot;&gt;&lt;span style=&quot;background-color: transparent; color: light-dark(rgb(0, 0, 0), rgb(255, 255, 255));&quot;&gt;&lt;b&gt;.&amp;nbsp;&lt;/b&gt;&lt;/span&gt;&lt;/div&gt;" style="text;html=1;align=center;verticalAlign=middle;whiteSpace=wrap;rounded=0;" vertex="1" parent="1">
          <mxGeometry x="730" y="480" width="140" height="20" as="geometry" />
        </mxCell>
        <mxCell id="Lf1fIR2ePeuiFVvzxuUq-78" value="" style="shape=image;imageAspect=0;aspect=fixed;verticalLabelPosition=bottom;verticalAlign=top;image=data:image/png,iVBORw0KGgoAAAANSUhEUgAAAgAAAAIACAYAAAD0eNT6AAAACXBIWXMAAAuIAAALiAHljilJAAAAGXRFWHRTb2Z0d2FyZQB3d3cuaW5rc2NhcGUub3Jnm+48GgAAIABJREFUeJzs3XucVXW9+P/X+7P2zHAbbsnNS6B5AywNwRRmgFHTEGYPWmOnLOvUyU7328+05LLYQ16yrKzO76udbzezzoESmEGtvIzM3pBHEPMkF7MCtJSLITDc9sxen/f3j71BUJQ9MHv2XN7Px2NxmVmXN+w1a73XZ30+7w8YY4wxxhhjjDHGGGOMMcYYY4wxxhhjjDHGGGOMMcYYY4wxxhhjjDHGGGOMMcYYY4wxxhhjjDHGGGOMMcYYY4wxxhhjjDHGGGOMMcYYY4wxxhhjjDHGGGOMMcYYY4wxxhhjjDHGGGOMMcYYY4wxxhhjjDHGGGOMMcYYY4wxxhhjjDHGGGOMMR1Kih1AVzQzbBzoXexrQC0wEnBFDskYY3oaD2wSZYFo5tbFYdWOYgfU1VgC0EbxMHUiTh8Dzih2LMYYYwB4LhbolPtumvxSsQPpSuzJta2c/hS7+RtjTGdyRhTx02IH0dVYC0AbTA+XnxM4/6dix2GMMeb1xOvYJeHktcWOo6uwFoA2cC4aX+wYjDHGvAEndo1uA0sA2sCJ9C12DMYYY96AUF7sELoSSwCMMcaYHsgSAGOMMaYHsgTAGGOM6YEsATDGGGN6oFixA+iWlB/Wz638bLHDMMaY7iA+L/kDhM8UO47uxloAjDHGmB7IEgBjjDGmB7IEwBhjjOmBLAEwxhhjeiBLAIwxxpgeyBIAY4wxpgeyBMAYY4zpgSwBMMYYY3ogSwCMMcaYHsgSAGOMMaYHsgTAGGOM6YEsATDGGGN6IEsAjDHGmB7IEgBjjDGmB7IEwBhjjOmBLAEwxhhjeiBLAIwxxpgeyBIAY4wxpgeKFTsAY/JRHa7qE9A8NIqVDEf1BOcZgsgwrwwVp/2AgSjlKP0Q6Qs6AOgPBIfsZgCvT3rTwN5D/r4fdA/ITmAXsAfYDewS5RWcbvFeXhbHNhe5zZmYbOudGbBtYTi2pXD/evNateGa0n2xnUNiGR3iAz9cPUNEGCLKUBUGkf3s+wF9s3/WASB9gV6H7KYPUPaaXUdkP/cDMkBz9nzQ3cAehGZgh3rZ7YStqG7xjm1O2SY+syWifGtDOH4vxnRylgCYTmHanQ+UBTvKzw6U07zISFEdhcgo4K2go2DfIE8M8QqACoAiAughO8p9vQ3KeN1NQI64okr2lwPH9M7jPKTddo0nkpsF3ajIJlE2qdNNgtukkftz2Zi/b1h49dVRW4Lq6WoXLAjSa08+VQJ/puJHipeRKowUdKQio9JsH+484h2gZD8TDpwXR/KG33itABj0mq8NOeycyv1RRLN/FBDNflldDGEf1YnkdkE2CbpJlU0qstGpboqEv0UDm9c/+Pkr0vkGZEyhWAJgOlRtuKY0HXvlHer9OYKMVhgt6Gh2yKlAoAKCHsuNvJgEGKHICOCiA4mCouAi0utHpOOJ5HoVXS+4NXhdHyhPL5pb8RwiXeYfWRCqEp+//Ey8vkNER3thjKicnV7P2bioTHN32AM3ds3/Rl5UAoNBByu8k9w5rZJtfnI7yqN4omkDsFZU1imyzok+M3RY7/+9+5PjW4sdu+k5LAEwBVO7YEGwd+1Jo52LxjtkgqIT0mw/F0+p5C7kh/7ajZUB54rKueSSm0ggXrd8pySSqzysRHUV6lY2hBXPFzvYQrpi/vKRQZQ7H0QmULf8fNABSPbm3kPSoQDkdOB0FeKgeGDzln3p6nnJpwVWqugqcCt7nf3iems9MoViCYBpV9PD5GmB41KES/ev55LA+cG5Z3p6wI2+jXSAwiUClyDZduR4IrkZIYnysPOZ3y8OqzYWO8rjcUXYODwmsUqES0Euw/tRyIHzoWfc7dugTIQLgAuyCbKSXj9idzyRfFyFhwPl4fN8xVNhKL7YgZruwRIAc1ym35Ic5FqYIcIMoAoYAnCwFd+01XCUWqDWuxjxRPI50EcQWVIWDX60s3c2rA3XlO6XVy4BrRHRS3JPujl2wz8G/YBLRbnUA6tdamt1XVOjKEudj5YuDqt2FDtA03VZAmDabNrNTUNKMzJNoZZWLkMoLXZM3dgZIGeg/Hvabd8bTyQfFVjY4ksWPxheuOvomxde7R0rerc0R5fiqE3rK3HJjsDAUsCCGCoq7wfe710siieSjyMs9BL8eumsif8odnCma7EEwOSl9o4VvdPN/iqEj5HRqWo1JIqhDzBDYUaJa90fr2v6jaI/bpg1ubHDOxOqSvX8pipBPpbeHb0XoVf2Ad+e8jtQAExCmeQ0uqMmkWwE+fFO33rfY2HV/mIHZzo/SwDMm6oOm8Y5Jx9P744+iDCw2PGYg3qhco0g18TrUn8jkfyJd8FPCv0UeFXYeHImKPlX6lIfBXdaIY9l2sQpXAJ6SX8XeyWeaLrX+eD/Lg4n/bHYgZnOyxIAc0TV81MV4vUGsk+cpnM7DahzPppTU5f8Lx8FNzeEE9e35wGmh8nTnOMLGfgkqq8tnmM6l0Egn/XOfzaeSC4X5bYlcysbih2U6XwsATCvyo7Jrkb163h9V7HDeY0MsA3YCrwkwjb1bEV0K8gO0F0ozQTajKc58m5nUFKyJ3KtBzvN7Ulnmh8LqzKH7rT2jhW996ajg9XhJAr6oK19Yur6R+IH4KVchHKEckEGe2WoCENUGSEwlGynxyEd9H9wNCWqfFhcdE11XdNCVbll6ZzKp49nhzPD5ed5578GvI/O99pnG7BNYasIL6myzQlbFd2O0qxKM06bA3U7vQ92+hj7NIgOVujbk87se21T+dSwMda3LFZ+4O+BLymNWlv7Bs4PwFFOJOUI5SD9QQeCDMudD0OAEbx6TnSWa+skFerj85IrQG+un1P5QI+vPWEO6iwnqSmymeHy83xd6gfApGLFoLBdlLU4/SvIBlE2gGzARRvfmZn8j0IMf1r45Yn7gH2HfOmVtu6jNlxTui94eaQQO9Whp+L1VO90lKicDowm++6+IzlReb/A1dV1yZ/GInfjonDS1rbsIP6Nx4dJlLnV4z9C8Xrz7QXWqehfUNngRDZ6ZIOS2dA7OmFTIUZE5BLENp8DhwpDdU/Fmk5SOFW8G6XKaQinopymwphskaAOJkwEWRqvSyUlsewzS+ZM+VOHx2A6HUsAeriZYeNA74I6j/8Uh9fNL6Q08EfQp8CtUYnWiitb03DThVveaIMlHRTYscjdiJ7LLYcJQ3UrSY2KCWO9Y4yonAM6HjiTwj9Riyj/Gjk/s6YuObv0rJf+z9GKytQuWBDsf3b4p4laE0qH9fnwCs8K8qSKPuM8azPKmglUbOyKY95zMb+QW5pe+/0rwsbhToKx4hiDl7HAO0U4DzpkNE2l4lbHE00/KCtNhwtvfPfODjim6aQsAejBauY1Xe5Ffk622bKQ/opoSlWeALeylx/4dGcfz95ecjeDv+WWg+9ha299aMD+1tLznQYXgL5LoQI4oUBhDFLlB+l1Iz46PUy+//6w8m9HWmlm3fK3pZ/1C0QZV6A4DngZSAryhJfoiUxUtupIQxrvL3AQxfJAWLUZ2Aw8cuBrteGa0tbYP89TlQmqXED2fChUJ8sYyBfTLb3+Zca8pg8tnTv5kaNvYrojSwB6oDBUtzpIzVZlDoV5Cn0B0UfxrlGVxu5e3vZY5J68Hs0thKG6VS71dkGqBF8FbgoHx9O3E2F8IDxZMy957Ws7hVXPa6rx6n9KQZ76ZSf4ZYg8SqSN9XMr/2TvoQ+XS4ifyC0/hFzZZB9VCVIFXAKc1M6HHe5EfldTl5y7ZFbFzfaZ9DxWqaMNauqSn1HlB0ddUflh/dzKz3ZASG02/ZbkoKCVXwLvadcdC6uBetTX18+Z8lS77rsHuu6uVSWbN++fivg4SBx4azvuXlG9dZxWzgJ40qW+IXAD7Xg9ENikaIOILBk2tPcym+Tm+FWHTeNEJI5IHPSd7bt3ud/51g911sqC8XnJHyB85mjrifDZJbMrf9gRMXUH1gLQg1wZLh8atfrfA+e2x/5EeEZV71Hv/sue8ttX7ob5UG753MxE8vxI5RoR/QAw/Dh3L4h87UmXOlkQJ8o1xx1w1mZV+VUgeu/iOZVPttM+TU5DOHk1sBoIr5i/fGSJ1w8o+iFg7PHvXaf7IPZIddh4eUNY9fLx7890BZYA9BC1tz40IN2iDwNvP749yU7wP3E++JkVGek4uRvqk7ULFly/f92Jl4nox4CZHMfPsCgfbofKfRmERcCPy8566SGbua5jPDBr0ibgVuDW6rBpHE4+IvBRoP8x71QZJ67k9/HbUlPqb6hobqdQTSdmCUAPULtgQdCyvtdvQI/n5v9nkO9Txs/qb5hsF4ciyd1gHwQerA5TbxWnn1H4t44eWqaw3Sk/IvA/XDJrygsdeWxzuAMtA9PCx2eXutaPKvq5wydhagt9J2kWhKFO74ojMEzbWALQA6SfHTGLbCeiY/EcKvPG6aRf2QWhc8m9drkhfltqPi18EeUr7d5x8PV2AN/u5TPfXRhW7S7wsUwb5EZS3Fm7YMEP968b8UERQo5tJMF7VgfLbwBuadcATafT2Sp7mXZ2Zd2y0Sg3tXU7he3AJ3f5zJj6uRX32s2/86q/oaK5fnZFXZl3p6nKd8hWTWxvGUG/FZVwWv2cyvl28++8Fl59ddQwt/Ke4cN6n63wGbJJW9uohleGyTPbPzrTmVgLQDcXqfsmUNLGzRZIUPL5+jcpzGM6n4XhxO3Al2cmkvd65Eft11NcnlLv/60+29RsuohcR9L/uOobTYuiyH1f0fe2YfNS77gNuLJA4ZlOwFoAurHqRGosML0Nm6QF/UT9nMr3282/61o8p/LJMj/oQuDu492XKneV+UEXNtjNv8u676bJLy2ZU/E+kE8BeQ/HVIjH61JnFTA0U2SWAHRjTvXD5D+2uxn0kiVzJv9nIWMyHWNhOLalfk7lJxX50rHuQ+ALDXMr/72nVG3s7urnVPwfRd8N7MlzE4fqhwoZkykuSwC6MZW8m+9aRLiqfs7k5QUNyHS4hjkV30WZ19btBJ27ZE7lnYWIyRRPw5zJyxDeR94tAWKvALoxSwC6qdqwsR8iZ+S1suq3l8yufLjAIZkiqZ9TMQ/IP7lTHl8yu7KucBGZYqqfXflblHyTuzHV4aqOns3SdBBLALqpFifvRPXozf9C1Kqlt3ZASKZYRFREbs57fcc8qwvfvUWlfEPIZ2SPCm53O1QaNJ2RJQDdlBKMznPFvUeaic10L5mY/iHfdaMY/1PIWEzx3f+1ylc8fl8+6wY4SwC6KUsAuqnASV6frXbMHOSmyCTj855quCTjOrSqoCkOQfIaHuzJ71piuh77YLupDLozn/UEyqoTyycUOh5TXIK7Kt91PVHe65quqWb+sonkmfw7dXldS0zXYwlAN1UisjnfdUX9d6eGjVYUqpuaMX/FSaLytbw3UPl6PEydWMCQTBFdd9eqEh+57+S7vg/YVsh4TPFYAtBNea/5d+ISJpYHsbvz6jRoupSZYeNAp9EDbZwjYCBOH6i99aFCzytgOpqqbN6y/8ciXJDvJtKWa4npUiwBMACI8q81dct/PO3OB8qKHYtpH1eFjSd7F3sY5R3HsPm56XSvh68KG09u98BMUUwNG3vF5yfvASvuY7IsATAHKfrRkh3ly2aGjaOKHYs5PvF5qaqMi60Czj/mnQjjMy62cmZdcmq7BWaKYnqYPK2/C5pQuabYsZjOw977mtd6l3exZ2rqmmaXnrX5ztz886aLmH5LclCQ4XZUP0b+ZaDfzHCvPBqvS/6nizJfXRxWtX1mOVM0U8PGWP8g+BJKCGIFfcxhrAXAHElfVbkj/eyI1dV1yRnFDsYc3bQ7HyiL1yW/ELTyLMrHaZ+b/wGC8gnvYutrEsnP22uiLkBVquc11QwIYk+h8k3Abv7mdawFwLwx5R0CDTWJpj+oSKJ+VsXvrEJc51J7x4reLXv8tbpDbwJOKfDhhil8r2RH+VfiieQ3yvoF9yz88sS8ismYjhGG6lZLcpomUnNE5ALrvmfejCUA5qgUuQjlwXhdaj11TXfu77Xv57+//vJ8ZxQzBXBV2HhyRoJPp3dnrgN5Swcf/q3AXend0TdqEqm7I+f+Y+msif/o4BjMIWrDxn5pV/LR1aQ+B3KmDecx+bAEwLTF2aj8R699fW+JJ5K/UfTn5/vKZBjmU1PcHK/aO1b0bmn2cRU+nEEvp/g/vyco+nXno6/GE8nfisovSstdvbUKdIwwVPfHIDU5gmvTyntB+xc7JtO1FPsCYrokHQB8TJCPPeVSm2rmJf+LwNe/MzP5cUsG2lf2ph9dqsLM9G7/XqRN4/k7SgyYoaIz0rv9zngi+RtRFpeWBw9bMtC+wlDdape8CCS+mtS/oLzVnvbNsbIEwBwXhZEIN+DdDatdams8kVwqytJMKY/d/7XKV4odX1d0xfzlI0t89G6F6vTu6FLkQAeurvBCN5scqvCx9O5obzzR9LCqq48CefiBWZM2FTu6rqg2XDF4v2SqcDJ9taZmgAwpdkyme7AEwLSnoeQu/kErPl6X/COeRtDGsrJ0auGN77aa4kdwVdh4csYFU0GqgCq8P1XbtRN/0fQBiYtoPOaVeCL5N4RGVB+L+eix+8Kqvxc7wM5oZtg4MApiFaJUgVSlic4VxHWJ/M90KZYAmBeA4UBeM4O1gUMZhzAO5Cvpll4aTyT/DLJSxT+BuJW9+rine1oTcW24YvD+QMc7/ARVvQBkQgZGdMChXwbynBFQ/1mgjoWnoZwG8vGMixFPJF8EWSmiKz1upY/5lT2t1aj2jhW99+3W8wL8BEUmgF7g4Qw5mAEW7K7fgrAFLfjIEdOJWQLQwyn8FWSaoN8Hqgp4KAHOAj1LVD6EKundURRPNG0Q5BlVXSfinhEva9MEf3swvHBXAWMpuPg3Hh8mmn6bRjIWZCzCWGBsmmiE6IHLeoc85XvQu8t87Ka0i/6ZzwZBrOysTGvLN0T4BIWtFXIiaI0qNYInaCWXFLAWZQ3oGgl0jUrZX+tvunBLAeMouGnh4/1LXPptQjBa1Z+DuDGg56R3R6c6cNnzocMe8R9WH3xOXHQ3hR86ajoxSwAMDXMq1gAXxxNN/wIyH3hbBx06ADld4XREZiqKOqUET3UiuV2EjaKyQVU3qtNNqNsiLtqsmZKtAenNRalKpyrxm/9naNQaDQlERyB+mOKGi+ooREaBngqMImrto7gOuse/oWUOvrJ4zuQnAeKJZF4bLfr6u/4J/Ht8fuo/ifg2opMLGeRrnAiciHApCOoFaCWeSO4FNoJsQHWjimwU/GYR2ZyJ3OagJNhW//V3bS1GnYqZYePAiLLhEmsdqj4Yjvhh4mUkwqkIo1QZJbQOzjaKKYhQnP4c+hfF3dQwp2IB5H8+mO7LEgBzUP2cyf81NWz8dX8peT+iXwPGFisWgcEogxUdh4Bo7qLpHeIiPDHiiWQa2CrCTlSbgWYV2akqO1GaHdriIYOj+dU9615RSQOIaF+PHJwT3XkGAahoX4RyUddP0QHZjm1SDgygLjUUCAL3aqSC5m70neIlrSr6IM7d0jCrInU8O6qfVbEKmFI9P1UhXr8OTGufEI9JH2AM6BgkW5oQBFUInIfIE69LRSSSW4GdoM0gOwXZCTQrfreo7AHwjoOvGRzaormvq2jZYeVyPeUOYh4pRSgX0QGiOgAoR6RclQHAUA9lQpQ9N1FQeTXx02LngADyJ1W9pdfozQustLc5lCUAZtChf3ksrMoA96L6y+r5yRrx8hWEiiLFdjRlwCmqnMIhr0wP3JCztwhec19+9XKsKoddnF+dDDm7sR7csPiX8Dy0qOgiUb2tYc6Up9pzx7lE4orqsGmcOLkBmAmUHmWzYgjI9qcYceAzO/QzPPD5HtpGcGhnS3ntbNgHzyE9sDKFfzXfjlSaBP3WkjmTlh6pZUSUQTYBeM9mCUA3JZ4h+dy3JNtz/wjfEG2AxcDieF3qLPH6ryp8FBjWnnGa4/asCj+JRe4ni8JJWwt5oIZw8mrg/dNvSQ4KWqkFPg2cW8hjmjZ7BVgo+B8smTvlTwDMPfKK3jEknxcmXmVw+4VnOhNLALop7xia11OK0vtoq9TPrngWuPG6u1bN3rx1fzWq1wCXA32PN05zTDarskTF/WzpnEl/yGeDqWFj3j/rU8PGWK4l6IhyPfXvBu6umb9soo/ctSLUkB1NYjreHkF+i+q9w4b3Xnr3J8e35rORoL3yad1yqH2u3ZQlAN2UKK15tVI6+mbbwo/+LJC7sNwH3Dc1bOw1IIhVeKVa4Grs4l9oGxQanNCwM8o89mY36CMZSOk5nvyKNA5wbjTwp3zWXTJrygpgRRjqp//oUu/0SjXC+4Gz2xKfaRuF7U64Xz0NZZp5cGFYtbttO1ChLpVXAu8C9h9TkKbTswSgm9KY204mjwu+UlI9P1mTa+7P22Nh1X7gYeDh2gULvrz/zyde5Ly/WJGLgQvJvp83x0hhu8AyFW2MoQ8vmj1l3XHtT/Rjea+r7uPAF9uy/1wJ6CdzS1gTNo3ByaVAlcIUXtPXxLTZfuAPiDSi/tFeZ29+/Hg69MUTqfch+V3/oww9qjZDT2IJQDclkX85335KovKt6bcklx1rEZbchSiVWxK1d6zova85M1GQKhEmgozLlYg1b+wfIKsQTWqkjedT+cf2mlehOrF8guL/Pe8NhE/H56d+kRsFcEyWhJPXAmuBO2sXLAha1484L0KqBCpAJ5Ad7mfekOwEngRdoeIbe/Ut+UN7Fc2qDhtPQOSb+fZkFGcJQHdlCYABeFvQSkPtHSve3R4Xmdw+Hskt2bHz85efifoJqIxHGA9yTg9OCl4EnkZ1Fc6tijm/8r6bJr906AoN7XSgK8PkmRH+ftpW6bEEr/fHwxWT6sOJfzneGHIJ4oHWgW8BxMPUiQSMR3UCMJ5sZ8KOqIjYGe1AeQbRVahbFaiuXDR30nOFqGlw2e2/6yv7YktBR7X3vk3XYwmAOWDS/ubosRnzV1zV7nO7i2g9PEt2+cWBL8+Yv+KkQKPRKGO8MkaEs4HTyd4IClmBriO0gD4P8heUNSK6PiJYE/Mt6zqqgFF8/rLJkWchcCyTxwzFRanq+an3HW89gSOpDyteBOpzC5AtqJNxpaMDorGqcnaueuIZZKvVdcZhh23hgZcUnhN0vQprHbJOI1mb+784XNj+AdTMX3aK7neLgXHtv3fTFVkCYA4S4QLx0ap4XfJf62dX/rbQx8slGv8g25fgoNpwTWlrsOOUiMxI593I3IyDpygMEWUIIsNBhwJ9jrjjwtsBbEHZhrAN5UUR+btX3SSiz+PdhnFM2lysqZFrFywI0s+O+CKeWzi+OR6GiddH4onk18rOful7hS4ik0uM/pBbDgpDdatZPhznTxXcSOCtoKcojEAZgjCE7PDUgYWM703sBdmK6mYVtglsQ3lBRTeKuk3OyfMl0cAXFoZjW4oUH/F5TdPVy//FhvGaQ1gCYF5rOMqD8bqme4Mo+HKhx5YfSe5C+dfc8oYuu/13fWPpfifEfGawEPRT0b54ykEHqri+iJY51TL01epuKtqXg9X/Xq0KCOBFdyESicqeA5XjxPGKF9ntfLQnciXbe2cGbMvnQl5/tBUKJJ5Y9s70Ond39jVLuygFvp1eP/xfZiSSn1g6p/Lpdtpv3nKJ1Iu5ZfkbrVcbrindF9s5JPCtgyNi/QLxfdUzSKCfivRV0b6oBk6l/4FtDq/+py0HqgUCILrXi6RRSYv6PSA7cDRnz49od8bFtgeZsm0N4fi9hfq3H68rwsbhQRB8F5X3FzsW0/lYAmCOTOWayPnqeF3yjtao5DudcXKe319/+R5gD9Dj55mfHiZPiwWEqlyDFOL1iUxw8GQ8kbxXxYcNs6dsaP9jHJ9cYnagValHq731oQHpdNlXEPkSSr9ix2M6J0sAzJvpjxKWuJbP1dQlv+OjzF0NYdXLxQ7KvOrKumWjI9yXUD6q2u5TOr9WAFwr6v4lnkj+VH3wnYZw4voCH9O0wZXh8qFRoJ/c36JfFMEq+Jk3ZQmAyYO8RZX54mKz4nXJe13kfrA4nPTHYkfVU9UuWBCk1w1/jwifj1TeTcdPVlAKXCcu+kQ8kfy9iNz5zmjSb4vV58FAddg0jkA+G6n/IEqZlfg3+bAEwLRFL5SPe+c/Hq9L/hHlnligv3rtEDZTGDWJZW9XDT6cXq8fRDipE8xHI8Dlqnr5apf6R3xe6peRys/vDyc9U+zAeoLsUEr9AHAtyju6xARFplOxBMAcG+U84LxMJN+MJ5KNKlofSVD/wKxJPf59fLtRlZl1qXG58rozFc6l46e7z9dJiF4fiF4fTySfRlmsqvUNcyufKsR49p5qZtg4KgqCaqdSo+hUlKDYMZmuyxIAc7wC4FJRuTSm/s54Ivm0KksFeWSXtv4hVzLY5OnKm//nLVHUOgX176YuNcPDyV1jNuLDnItwrojMjdel/s68VIOgD7mS0qZFX3/XP4sdXFdyoKpmIO5iFZ3hlXeIdo3ZiE3nZwmAaW/ninAu6E39Jba/OpF83KGNqi7ZqrEnO+NogmKKh6kTVfwEEaaCVEWZlrcDruNf6xfMyYh+SuFTUabFx+uS/6teGsEvK4nxhL0+Oty08PH+sSA9XnCVKFXp3dGFTqRMsbu+aX+WAJi1wADgpALsu5fAVEWmIkqJtPp4Irke0ZWCrIzUre5dunftwhvfvbMAx+504mHqRISxuIMlcCeAniwdcbNXHke4MK9VlSdEuKAAUTiU80T0PJAvZSKIJ5J/B1YislLQlYHTNT0lKai99aEBLZnSseqDcaATFCYIrWehriOqYL4g6G5FRnfAsUwnZQlAD6ewVcrkQkn7OYp8geOrHHc0DhiDyhiFjzg86ZZexBPJF4C1KM8osk7gb+qijc2Rf6Gt094WW+0dK3pn9rSOyvhgFM6fjpexAmOzZW1T1DZBAAAgAElEQVQ1OyNexz7JvawqN56vk36yWlJ5VfI7XysuWk3y44jcDJxQ4PhOBk5G9UoFMpFQnUhuF1ijylqcrsG7v8RctPGVyG/oaq+UpoaNsfLAnSI+GKVwmoiOEfQcRcakWzg5u1b2hOigNp8WUb6zr8/eul77+jzYMYc0nZUlAIb6Gyqagetrwqaf4FxC0Svp2Fr8pwCnIFwuBy6G6ujvXCaeSP1d0Y0iugmVLYq8JMo2j98s4jbHvGyLMXBHocusXnb77/r22tN3AC4aJhKMUM8QdTpcVIeDDEcZhTAqvTsaDi7b702lmC35u1HuKtPg5oXhxO0NQDyRzGvD3HC+H9WGK36TdtFNwCeBvOaObw8Cg4FKESqz/4dKlD0fiCeSmwXdoCIbUd2iIpvFy2ZxbFONXsIHW/b33bMzVySqYGrDNaUZdgxsgaEi0TCHGy7OD1WV4YgOU5WRgowCPRklhujBU0GLc1J4hN9oFMypz9VuyPd8MN2XJQDmoNwUru+7sm7Z6EjdjcAHKe45EgMdJTAKzV40BQUBhwBK5JSI7cQTyTTo7uw0qrITpRnRFqAVYfeBHWbLuGouWZA+iJYdPJoyMHeIPoiUA+W5GQsHsA+HU8Chmo0h27c9dzHvPK/sX0H1B0FJ2feOt8PdwnDiduAr1WHjLeJiXwA+S/Hq7R8wXLMJ10Ug2c9AFFUAB07pta8P8UTSAztz0+o2o9qMsJfs/ffVyZhU0qB7AQQpzZaKPvA9+gElqJQiB84FHQBSnmZ7KZDrgp89FzV3jqIHXup0ipf2rYLcq8Kt9bMrni12MKZzsQTAvM6i2VPWAR+ZGTbO9RL7IqIfAnlLseM6ijKQMuAt5JKEg/TQP+rh3zjSNVpes1HX8GdFfiRl3FV/Q2Vze+44V/1x9rTw8dtLgpZPovIJsrP0dWYOGHTwtcsbnA+H/uUNO9odNoqx82R6R/GyqtwTBfI9G5pr3oglAOYNLQ6rNgJfnHbnAzeUvFIeR7gWmAY29riT2I/QIHD3klkVjxR6vH1uBMftwO0zE8nzPVwHXEMHvh4wb8oDjwrcU9ovWLjwyxP3FTsg07lZAmCO6sHPX5EGFgILZ4aNo3xQ8gHUXwkyni70SNRNpBV9xMGi0tL0woMjKGZ3bBCL51Q+CXyy9taHvtrSUlbr4UpBLgHKjrataVeqykonsqjVya/sad+0hSUApk1yrQK3ALdMu7lpSGlGpinUApeRrRFv2t9esk92C0tL9y/pTMMmc7H8J/Cf1eGqPk72XYKjVlXiuf4Tpv1FwOMIC2NR5jf3hVV/L3ZApmuyBMAcswe/Pnkb8HPg55fd/ru+vff3uQjPpSpUAO/Czq9jtQ9YLUoKx8Ol0eCmQo9yaA8N4fi9QAPQULtgQdC6fsR5kXCpKJcCk4DexY2wy/LAeiCF8rDTzEOLw6odR9vImKOxC7RpF7lhVw/nFmrDFYP3B5nJ4t1ERMcD5wP9ixljJ/Yi6CqQlU5IpQc0/yH32qXLWnj11RHwZG65bWrY2GtgELvQI5WoHw8yARhR3Cg7rV1k/99WquoKXypN93+t8pViB2W6H0sATEHkhpAtzi2Eobqng6azMt6NRxgvyDmgY4DhRQ20Y3lgg8JagadVdZWoW1kfVrxY7MAKLVfA57HcAsCM+StOEs1MwMv4bPloxgCj6NgaFMX2ksBaVZ5BdJX62KrzuejPNrWy6QiWAJgOkbugrcst9xz4+vRbkoOCVh2DMgaRs0FPBxkJjKT4Y86P1UsomxCeV+U5YI2IX7/L+3VdrZJdIS2dNfEfwD/IJYmQraSY3t16tqo7Gxgrwhlkz4WRdN1kcQewCXQTyF8EXYfTtZnArTvSk31DEQI0PZMlAKaochfA5bnlMLW3PjQgvb9spIiM9MIpogwFThCR4YoOBYaADgEZROGfGluA7SDbBN3qYYso27IV6HgJlRdwPL8rat1kN/ljlxu69lRuOczUsLFX/6BkpCIjRf3JImQrMgpDHAxDGKbKCWQrCRa6Q6oHtgMvA9sE2aqqm8meD9uc8gLiN5aWtjzfmTptGnMoSwBMp5W7cP5vbnlT1eGqPjHS/Vrw/Rw6UGLaT9SVeugl/tXOZwL9VLLzHaiyT+DVm7WjWSATqdvjfLQnQnZTxit90oP3dIVOeN1dLrF6Nre8qdpwTenesu19STMoQPt5F/QNxPdViOEpP7CeQi+R7PkhSqvyatVIdexzsB+VtPd+j0d2+FJtjrX02ZPr8GhMl2YJgOkWchfkvcDWYsdiii+XsLUA1nnOmDfQkzrbGGOMMSbHEgBjjDGmB7IEwBhjjOmBLAEwxhhjeiBLAIwxxpgeyBKAnk7pVewQjDEdT1H72e/hLAHophTfJ68VxeqxG9MTiUhelRXVHhK6LUsAuinV4K35rCci/QodizGm81HI72df9JQCh2KKxBKAbkqc5vnZan4tBaZLqw5TeSWEAFeFjScXMhbTOYjm97MviN0nuin7YLsp8W5XXit6es+oW3ZGgcMxRSbiL8933cgF7ylkLKb4rqxbNhqkLJ91JTs9semGLAHorjR6Ka/1BJzKtwocjSmiaeHj/REJ811fkTB+W6r86GuaLklVMm34mRfclkKGY4rHEoDuykmU/8oSr0k0zSlcMKZYasM1pSWu9dfAiW3Y7CTSuvC6u1aVFCouUzzxulRCkCvyXd/jfSHjMcVjCYABQJF5NXXJm1CVYsdi2kf8tlT5frf918C7j2Hzy7ds2begNmy0TqLdharE5yVDYFaxQzGdgyUA5iBV5sfnp/7bmn+7vhl1y86QFl0hUH2s+1CYmXYlK+LhitPbMzbT8aaFj/eP16V+jTC32LGYzsMSAHM4pZa0rqmZlzzmG4cpnqlhY6y6LnmDU/e0Kucc/x717bjo6Xhd0/VTw0abPrwLqq5rmlniWtcCVxU7FtO5WAJgjuQUFeprEslFNWHTmGIHY/ITn9c0vb8rWS3KrUDvdtx1H1S+2d/FVlXPS01rx/2aAqpJLHt7PJFsEJVFwEnFjsd0PpbRmzekMBMn1TV1yV9G+Lqls6c8V+yYzOtV1y27WNQlgEmghTzUuSL6QHxeMgUyp35uRWMhD2aOTbwudRb42aryAewhz7wJSwDM0QSqfNjhroknkg+gcmf9nEkPI1LQO415c1PDxl79XeyDwOdRzu3QgwsVoI/G65J/FM+dLYOaf/ng569Id2gM5nCqUpNIXqYiX0D1cqx4j8mDJQAmXw6YgeiM6rrUOuqSP3Pif7lk1pQXih1YT1IdNo0TkWsRPggMKWowynkq/LhkR/lt8UTTveq5pyGcvLqoMfUwNfOXnaIafIi61EdU5Kxix2O6FksATJsJjEa5VdXdHE+kHhP8rzQobai/6UIrGFIA1eGKsyXwV6J6DTC22PEcwRCQL4rji/FEcg0i92rkFjWEE9cXO7DuKP6Nx4dJ1FKtyAfVMwXyLfttzOEsATDHw4FerMjFRK2+JtH0P+DqM16W3h9OeqbYwXVV1921qmTr1n2TvGcGQhyiMwr7ar9djUX1ZnHRzfFE8jmUehVtGDGsz4q7Pzm+tdjBdUnZ8ftvJ3DTUa0hap2g1sRv2oElAKa9OEUuAr0ocHpLPJHcirAMWO6U1OLZFaut38CR1S5YELSuH3GeFyqASZu37L8MGEDXL8l0BsJXBPnK5i379sYTyRUoy8WRKo0GNy0Mx7YUO8DOanqYPC1wXCpChdalqnByMmo/PqZ9WQLQ0ykvI5xQgD0PRakFaj0Qr0ttIZFcKehKr24l2rqyIax6uQDH7fSq65ad6nxwgaITQCak1+s4oN+rT/kFudC3AKV5rtsKtHcZ4D7ApQiXqkLabd8dn5daLeKf8LiVgW99YnFYtbGdj9klVIeNJ7igJHs+qEwAnQAMBQp6z1d4WSjIz77pIiwB6OFUeMaJ3K7qvwdSyIpvw4AZiswQUZAYNYnkJoW1qDwj6Dov7plevmXdwrBqdwHj6DDTbm4aUtLqzlHR0YK+HWS0wttFGawHG0M65KnuYUQ+i2pe7+QD8ed6dd9XuKSAMfVDdLIikwXFuxjxRNM/QZ5BZa2KPiMq61Rb/9RdEsXasLHfflc62qk/B9ExipwDjAHeqtqh58OfVdznRP0soLIjDmg6J0sADEtmVzwwNWx8tL+L/X/AV4EOKQWsMBIYieg0BQRP2sWIJ5JbgI0quhGVDU5ko/c8H6i85NGtu2jd+lhYlemIGN/I1LCxVzklQ4lxIpEfJk5G4TkVkVGgo4BTydAf0VxL/qG/dhTZiOpX6+dWLgSIJ5J5bbVo9pR1wKXVidTVDv1m7nPqAPIWYAqiUwRAFJEY8URyF7Ah9+/ZiGMDyAYVtpLhxebs+bC/Y2I8sqlhY6w/JUMdMlQDPRE4Ba+neqejRGUUMCoNwwRPdraNorzf2YXIrWXRoG8vDMe2xBNJmxOgh7MEwACQu4DOrw1X/Ec6iD6H6udyF+RiGAYME5V3AagqIuBzT839iRFPJLcC24CtwCuINqM0K7IbYYegu1CJRGWnoh5AIIOj+cBB1IuADjx4VNEykD4qWoZS7lT6exiIUC5oP5BBZJtmRwD9QcEDItkHN4EOeoI7mvWo3Dp8eK9fHk/Hu4Y5FQuuu2vVope27L1GkBuBYg0z6w+cC3ouQu6/WBEF3MHzYRfwErAV9BWEZvWy28EOL7oLoVlU0qB7UTmkZoHsEHdIQ7unXHPXRUGcig5ANFCkP8pAUcpx2g+VcuDA+TAk+7vi0VdPAQHpHHNrvYzInS5q/f7isGpHsYMxnYclAD2cqB72tL8wnLgdmFcbNn57vyv5d0G/SOcsIzo0t2SHxekhT9h68E/oIf0O9eAvOa/rk5jbhx7Y9tDntE5xIT+aJ0X01ndGlfeFobTLFK65BOKnYag/Xy2p9+K4EWVce+y7nfXPLWdBNiF7NS+TQz53ec1HqYe/Z5fDvpP7g7z6ZeHgudYFvCCi39nXa9/dv7/+8j2v/aYI5davsGezBKCbitCBks9NS2TYkb6cew//rTDUO54KUhcrXIcyk/bvHGaOzy7gv9TJPQ2zKlIASwpwkFxCsRBYWJ1IjXWqH1bRfytiK5E5sghoRLl7l2YWvemrMuWIP/uvIx3zStB0PEsAuimHnJRnct/3zb6Zu/A/DDx8Rdg4POaCa0E+CB1cftYcKiOwzCs/61Ue/HrhlyfuO9oGYahuNam8dh6G6t6sBaFhTsUa4MbaO1bM298cvc8JH1GYgl1PiulpRO/Flf4834JcmueEUYp0xhZA0w7sB7abUpUov/fR8qYJwKEeCKs2A98EvnnF/OUjY+pnoswApmLnUqHtAx4BGghKlixpY9XFJ/nDmfk2XD9N6nTgz0dbL5d43APcM/2W5KCghUvFUa3ZliJ7aiwsDzyFshQnv6qfXfFsW3cg0Devh4TIR22OznQJdtHutvyO/N5ba2n1/FTFgebjfD0wa9Im4HvA964Mlw/NuOgKJ3KxKlXAyccSsTmMgjyjaKNTHi4tDx7O50n/jTiXuVrz7McQOa4G5rdl//d/rfIVDrwiCFf1kWD/pap6iRMuVmUsXaQTRSf3AtCIyqOtJf6BB78+edux7ig+L1WlaH6v8wKxjoPdlCUA3VXgthDl9xJAvH532p0PTDrWGd0WhZO2Aj/NLVwZJs/0gVR5fJWoTAROOZb99jARsB40qbjGmJfHcv+vx626btmpqnJ9Gza5YWbY+ItjLczTEI7fC9TnFq4Mlw/1olUerZJstcOzgeBY9t3DPA+sABq9+Mb2mo57atjYC9Hv5Lu+KMecaJjOzRKAbsp51TZ0Az+/ZEf5z8NQP9AevccXhZV/JtuEfBdkJy9R3zpBPOMRGX9opbMeSkH/ishKlFU4v6os41cXogDStJubhkhGfgv0a8Nm/byL/bY6bKxojyI8uUTmv3MLtWFjv3TMjUPdBJTxwATgbcd7nC5uC8gqRFfidVWgwcr2SgAPVbtgQZBeH/sl1ofHYAmAedXVT7nlQW3Y+NH2vhHlOiUtzS1A9sZUFslYr3I2+LGSrZI3GjixPY9dZBHoBmCtqKxDWKtO1pZlWtd3RLXDeLjidDLREuDMY9j8LHGxx2bWLa9ZPHvSX9szrty/vSm3ABC/LVWuaTlbVMcIOtoLYyRbJW8U3au14EWBddlqh6x1ouujKPNMR1Q7jN+WKk+v5x7QmkIfy3QNlgCYgxR9b9qVnHll3bL356rBFUzu/eVjueWg2jtW9M7saR0V4UYKMlK9H6kiIyX7GmGIwlCBwYWMLU8RsA1kG+hm4AWE50XZ4NFNgY82DR1R/o9izYAXr0vF0einZIvVHKuxkfonauYlP7pkbmVDO4V2RPU3VDQDK3PLQdfdtarkpa17TkblrQ4ZqcKpCiNFORlkOOgQsoV4OkGSoP9UZKvAy4g+L+o2KboJ4fkAvynWt2Tj8fTjOB7VidRY0vrfdM7ppE2RWAJgXkPfHql7Kl6XvKV1QPOtx9ov4FjlLpDrcssRXXfXqpLNL+0f4p0OEXHDxPsB2Wp99PNoP6fSX5H+OI0BByv9iVKir28K34HkhksoEbBLVNKK361OdqI0O9jtVfcgvOw82xzBy4vmTtzWGWc3vOobTSMyXr6Ham177E9gsAr11XVN/y2u9Av5DjFrL7kEakNuOTJVuXLeiiEZp0PAn4ByghPp66EfQrl4HSC4fipaBvRHcslCtlfkwEN3JbBbhUOTth14yQi6S53sFNU9CrtRmkF2eNGtzsu24SN6beuM0x1PDRt79Xexm0C/Sv6TQZkewhIAcyRlKGHJjn4fis9LheN00q/aq7Jce8hdaF/MLcURFu3IRxS/LVVOC1/MRHwFdEB7719U3k/Uenk8kfx2mc98t1NN2CSii7Ilodv9nXlXVbtgQdCyfsQ1mj1TTy12PKZzsgTAvAk5HdFfPOVSN1YnUnXNvvW+Yk/CYw5Xe+tDA9KtZdeR1uvJNoUX0kCgLu1in69OpL7Zq3Tfjxbe+O6dBT6maYPr7lpVsnnL3vem18tssn0ojHlDlgCYo1LlHEH/u7+LvVCTSP2Hi5X8aNHX3/XPYsfVk8XrUmeJ6ufTLVxL23r4t4chgt6ebuk1N55o+mng5fu5kR+mSKrDxhNwwXWbt+z7NFa5z+TJEgDTFqcoekuUaZkbr0s2iOeeYcN7/7YzvvvsjmaGjQO9BLWIfBjVCi1+cZ1+IJ+NHJ+JJ5IpQX8uPvq1zTjXMWrDNaXp4JX3iHKtojOAsmLHZLoWSwDMseiFUqtC7eYt+16Oz0stFPySlkG7H+voToPdXW24YnBa/DREZ3qYAfQqdkxHIEClIpXqYt+PJ5JLUVkcleoDuQqBpp1Mu/OBspKd5VWo1qTZ/j6UEzpdT1TTZVgCYI7XCYh+SpFPlewob47XJX8rytLIBY8snTXxH8UOrstRlenzVowNnL8MmJEmqqRr/Zz2At6H6PuCVjLxRDIpog1e3e8bZk9a2xlHTnR2NfOXneK9XOJwM3SHXk625aXYYZluoCtdWEznV45Sq1DrfEQ8kfwz8Bhoo3expCUErxeG6p4iebYGTAGpoi41BddtqiTGgCpVqRKUeF1qK4nkYyCNgUTLzo0mP9uZRpd0FleFjSe3SqxSHFWoVqmX0wXQvCb3MiZ/lgCYDcBw8pwatI3OzC5yXS4heBFkpYiuVC9PBCUlq3taZ8KZYeOoSILzHTJBhQtWkzofpH8HXNv/Tv6TNP0DKERHsqHA1aBXR+pY7VK74onUKlFdqU6ecFHr6mOdf6Crqg4bTyAoHefwE1T1ApAJGRghkJvMs2BP+ntyRaxGFeoApvOzBKCHU9gU+MzF3pV8twNKhJ4IWqNKDaJEmRbiieQWgWdQWYtjjUq0zlPy16U3XfRiV20urg3XlLYGO05RH52uTs4BRqvn7SKM9lCefZrrMC2ifGdfn711vfb1yWvsfpnPnJ12sdnAl4D8Zow7Nv1BL1bhYlTxLkY8kdwFrEN4BmWtinsmgL+WRANfWBiObSlgLIWjKjO+8YcTHa1vEw1Gq/pzwI0BPQcYivrc+dBhzfr3qZcvidNfkC21bHooSwAMuaeumTV1qStU9WY6dqKQYQrDEL0EBdThiIjXpdIkkpsE3ajIRhGex/Oid2xD3ZYS3/LSvsH7tnV0p8PLbv9d3z77+w33Gg1XYQgqJ4oyFOFUsgVXRqXZfhKKQ+TgnV46/pWtgjaoj91QH05cDxBPJPPaMFfk54Yr65b9NKPuNsl2Puyof0F/4F0o7wIQ9Xgg7bZH2RYkNgIbUDbgdIvCS050q2hsy95euzf//vrL93RQnEC2U17v7b2HtLrSEYgf5jxDVDgJOEXQUYqcSl3qrUAZuFwzfgengAfJUypyY8PsSb+H/M8H031ZAmAOWjK74gFUH6yen5ruVL+uyEVFDKcMOFORMwE0d93Mtgl4Mi5GyY5y4onUTuAVoBnVZoRmhF3ADlQjUTlYqEZhvzoOr8XuKXe5nwNFHKIDBClVtB8wUJX+uTLD5cBg9tEne0sSDrZPdK7+WBHCAiK9tT6c/L/Hs6PcfBDxeNj0Dpx8DaileDX3A7LzQZwCVGbvoZL9TQXF02tfH+KJ5B7gFYVmlGbJnQuC7Fa0BZWdQnaiTA8ZHM2HHkQ8veWQkRYqOgCRABiI0h+lHJFysufDIHbogIwDwWdTrkPOBe08J8ZyEbl5yaxJD3bVVjVTGJYAmMOJaENu5r74vFQVwldA30OnmGzlSHQAkC19e+B6e/ASJ4ddkAFed/mTQ5/FDkwJ8OpXivDkfqx2A7/EB7fXhxP/0p47ziUSH5hRt2yOw12P8gE6vvhQvvoCfQUOS8wOfqby6qf76nv2Q8hrv/SaLxxxo04pUnhAnP9W/awp2VkXZxc5ItPpWAJg3lD93IpGoDEepk7UQD8syieweds7myeBuymTX+Vm1CuYpbOnPAdcV3vHii+km6MZCNcBl9DZ2kB6tr+Lcm9r4P7/B2ZN2lTsYEznZgmAOar6sOJF4LYw1NtXSbJKnFwjSjVwQrFj66GeAxaJ158tCSev7eiD52ZsXAgsrE6kxgp6LehVIKd3dCwGgJeBehV/b8OsyY3WzG/yZQmAyVtuzPYjwCO1CxYE+/984kUu0hkqXAWcUeTwuru1KAud0LB4TuWTxQ7mgIY5FWuAG4AbpofJ04KAapRaYCLWMlBIzwO/FWXpYeW4rZnftIElAOaYLLz66ghI5ZYb42HTO9S5i0EvFmRyIaak7WFeABpReTSmrY/cF1b9vdgBHc39YeXfgO8B36uZv+wUjYKLEb0YuJj8axCYI9sB2oTIo6L+0SVzpvyp2AGZrs8SANMuch3F/hf4bu2CBcH+9SeNE6IqcBNBx1OYwjLdhVd41v2/9u48TIrq3B/49z29zLCjgoBRgURFpkejwS2yKJoYNU4TTeBGZQa3nxpjzL1JbmIiaDPojcZcs6rRLMiAmgtxAVyiUUeZwbgAbtMMGhUwRgcxyD4z3V3n/f0xjQKy1HR3TU13fT95Os8DnD7ndaa66ttVp04JlqiiETb0VKEn8nW1+VNP+ieAWdkXzprxzKFGzXgRjFHFsehYJMr4WWM3964AS1T0WYipLzvsvZeyoZuoYBgAqOCyO6oXsy8AQDzReABCOAaqxwI4BkAlgvmtMAPgbQAvQ3SJgbzY7kSWPZo4YaPfhXkpO4HwHwDuBIAzEs/1jUhmFIw9BpBjoTgKHesoBHGf9E8ATVBdIpAXQ2Fdcv814973uygqfUH8sJEPshMJF2RfADoOAmXh1OHqSEwhIyGoUOhnpWN1Mi+WJu5KH0GwGoo3oGhWkeUGTnPUDni9aFe0K6Bs4KnPvgB0rKCYMh+OsAiNFNUKGFQAOBSKoQD28avWAmlVYJUAb0GlWaDNEtJkeya6otTDH3VfDADkm+yO74XsawdnJxbvnzEYasQZqpChsDgIRgeIymCF7A/oQAAD0fXrE7QB+BCKFhX9QARrobIGkH+q6CrrmFUWoXe4U++8bDB6LfvawRmJ5/pGTftQK2aoqAwD9CCIDlLFQIEMAjAIHXeldPXjkh0Aa7Pr6q+B6Boo1gLyTxF9x2poddhi9QOJ0R90cV1Ee8UAQN1Sdof5Aba7jPApqnLGTxsGmJT0CRnbTxDqraK9YNEH0P4QU6aivbY133mVNwBQwWYVpLf92UDWW7XtorJFDD6yIpuNdbZYwWaJhj70+l572rVsoNplONhe/KbGPppyBhhFb2tCvYxqb7XYR0V7GTFlFtp/W1tRRER3XNBo59UiDbBZraYAWQ+DTSqyWayzxbFmg0Fm48LE+A8L/d9K1FUYAKh4ieijwFp0vIiQDWgMaUQucBYuERFRADEAEBERBRADABERUQAxABAREQUQAwAREVEAMQAQEREFEAMAERFRADEABJwoon7XQER+UH72A44BoESp0TJXDQVDPC6FiLohVXH12bciEa9rIX8wAJQqa4a5bNnHyzKIqHsSUVeffbV2qNe1kD8YAEqWul3muaenZVC3cGaifrAXbamIibh6cJIxrvclVGQYAEqUEbvZTTsV9DgnUX+g1/WQv8ISOdVt25CEx3tZC/nva4n6YbAuH7mtIT5boUQxAJQoo9F/uWknCnFC4f/xuh7yzxm/fqQMotPdthfR2jN+/Yi7OSRUlKwJ/xTirq0R2+JtNeQXBoAS5SCTcdtWFdXx2sbLvayH/JFIqAlv6D0LwOfcv0sOiWzoMzORUO4fStCE2oarAHzTbXtVcTwsh3zEDzhl6W+rpjde7HcVVDgTE8noMtP4e1H5j06/WXHuUrP4jkvvWMIZ4CUkXtt4uQK/8LsO6h4YAGibkIj+IV676Dfc6Re/+A3PDWo3654AcFGufQj0kpaWtifOTizev4ClkYzN5lIAACAASURBVA8mJpLR+PTG2wC9HdzvUxY3BNqJXNmypm3phNqG4/2uhHKgKvHpjVPgpJIAxubdn+g4x9hk1fSG6vyLIz9MuP6ZE9vNumUQ/ZbftVD3wts7aBf0CAWejdcuujMcQu3914x73++KaO/i1zcegxmLb4LoKXA7w8udASKoi9c21KjVHy1MjFtWyM7JG2dd/+xnjDrXqcXF4Jc92gUGANodA8jlGQc18emNt6qmf7YwMf5Dv4uiT6uqbYwJtBZWz0aBj/w7+ZIYWRKvbbhPrF43PzFuuYdjUY7OTize3zH2R7DOFQBc3etPwcQAQHvTE6L/LRK+sqq28W4D59fzrz3pNb+LCrpEQs1SWfwVEf0uoKfB2wP/9gTAN9TI1+O1DY9B8KsFU8c8BhHtovFpN86qbfi8Aa5yYM8DD/zkAgMAudVDoJcozCVVtQ1Pi8pdKMf9C340houEdKFzEvUHOiYyeRkaLxTgMB9LEQCnQ3F6fEbj6zqjYWbEydx9f2L8uz7WFDhnJJ7rG5X01xVyAaDj/K6HigsDAHWaACdD9GS047b4jEUPKOTPm5zME08nxrf5XVspqkrUDzASroLg/AwwHuh29+ePEMWNGRP+nwm1DfVQ3G01s5CXjLwx8ZZne7RtcU6F4lxB+mwFegA8AUOdxwBA+egJlfMFOL+vCW+J1zY8LoqFRs3DDyRGf+B3ccUsPqNxBGDjUKkCcKICIb9rcsEocCoEp4qEnXhtw7MKWRC2uuCBxNg3/C6umMVveG4QnPRXBahq3+ycJnyGBxUAAwAVSi8AZ6vgbEcs4rUNbwN4AoonyjT05LzEiev8LrA7O+eGRUMyGRkDwZcAOQ2qw7rusr4nQgDGCnSsY3BzvLbhfQgaoXhCxf5t4bSTVvpdYHcWv6mxj6T0eFh8SQVfgpM+Gh0Bi6hgGABoI4C+HvT7WQCXQnBpuzhOfEZDEsCLULxgrHlhPVJNTyfGu16uuJRMTNT3bg+bL6gNHSfQYwU4PuNg6CfHe0928wr3iaIzbd0aAsVEABNFDeK1jatU7PMCeRFiXyzL2GXzEuNdPcCq1Fx6x5JIy5otlSKh4xR6LFSOQ7vGFDCeZkDFRognn30qEgwAAaeCZcaiTgU3ARjo0TAhKI4EcCSAi62x6Itwa9X0htdE0KSQZqP2NaumeWFizDse1dDlTk7Uh/ug7BATylRCUaGQGIDKdmAELEKSPdB7/q1O8DJUrwSk0U1zNTJOrP4WwOe9K0qHicowAP8BNWg3xonXNqwAkIRIk1q7HBpObkL7m6UUFM+8fvHQsNqRqlIJ0QpRrWxZ01oJmB6q27YEz7eINQL8UA0uge59sSg1TlGfiqLdYwAIOgXmXzd25ld/2vBgKIUZEFyGrtkueojgOADHCRQqAhFFvLZhEwQrobISqqtgsFKtrgppaLWJOGtCh7Z8MG/SpG7xcJKTE/Xl/cJmoGPDBxo4QwVmmFUdJoJhAIYBGA44UVXf9p8fqeh15SNabps3aZITr21w9aaFU8c0npyoP6afCV+hQALAPp5W2SEEIAYgBtVJIgKIg74Ip+K1DSsBrFLFKiOyCoqVjsg7IZN5d0PGru0uk09PTtSH942EBmYcHawqB4uRYbAYDtHhEBkGxXBY2wcABJo9znfptpFW4PbyaNu1867+8oZ4bcMlXTk4dT8MAAQAePjHYz8CcGXVjGf+V1R+CMiFAPx4JGyfjrMFeiQEgAIiAisW1hFkVgzReG3DByJYq4oWiK5RK5sNsN6KboRgE7TjZYxs2NapFdkcspre1YCOkR5GteO+aashhfQFtL8Y9IaiD4A+HX+HfQEMAjAQkCGA9lMLGFh07NIV0j2+K61RwS8yTuT2RxMnbMylg+y37l+fkXjurqjJXKHQ/wLgxzMBogBGABghAigUEMBAodagrzGI1zZuAPR9AGsBrAGwTqAbAWzatj2oygaBboTpeLKdFWkLWW3d1YCOkYhR7b3tz9ZqPwj6QNAHij5Gpa8F+kPQxwCDIBikiv0BDMw4EEA6toOPL6SI35P026D4YyZkbn5k6ujVvlZC3QoDAO0gOznrW+fcsKg2k5HvQ3ApgD5+17UdATBIFYMAVEI7drYd+9rtdrQC6HY7XVGF3V2HVj/ZP398BJcd3v9p3W86lgCrFfLzst7mj/O+d+IuD26dlQ0QN0685dlftW3JXCIqPwBwcCH6LhztB6AfgMM//ptt36y33x622z5cbw/oCKDb96Xyyfd23X6M7mcjgN9lbOYXjyTGt/hdDHU/DAC0S9n1/38w8ZZnp7Vvcs7KBoFTUeRT00uQA6Aeijs3aOYBr66XZwPFbxIJvfWlUOMpClwKxdcA8MmR3c9SAHeW2cw9QZ1YSe4wAASc7OWAnt3xzwMwr6q2MQbFxSJ6LoDBXVIg7U4SorNgonULrjlhzV5bqwpmuJoD2NF2N0v7JhJiATwB4In4Dc8Ngk3VQGUKOq7fk3/eB3CvWP2j62c0aMdJMwouBoBSJboV7iafDXfb5cJrxyQBfC+R0B+8bBqPtooqFUwSYGTOdZJbFsBLUDwUMvb/Hph2UnNn3vy165/97O5Oee+s6vpFwxYCe71PPxs8bgZwc9WMZ4YLTDx7q98XwafPdYWVCiw0goUbnMzTnT77I/icm2aaEZ5FKFEMAKVKQ//Gbq9y7uDgryUWH/VgYvTLbrvOfgtcmn0lvppYXBk2epZCTwEwGlylrFA+UNF6sXgyo87CfK7jWrUTXDfW0AQAv+xM/9m5I78C8Ktzblg0JONIFTouGY2Hd7eXBs0WAI0qqDeOLsznaYxVtYuPBewQN22dcOjfuY5D3RsDQIk6yjlx5TLTuAUdK/TtkTX2lxPnzj0119vrHk6MbgLQBODGiYlkNGU+Ol5FT4GVUyB6DBgI3PpQgEYA9Rlrnnr4uhOThXjKXvyG5wapk77G7dlegZ16dmLxPbku55ydP3IngDuhKhNmLKpUMadAZTxgxwCyXy79BtBWAC8K9ClrzFPlmX1emJeIpfLtdOLcuaH2FfYXLptvfOSaE9/B1HxHpe6IAaBEJRJi47UNzwL4sovmJ7U3H/AbAFfkO252B9WQfU2fOHduqG3FAYcb6CgLjBJgFDpeQX9c6WYAryiw1ABLLWTpwmmjl+9wwE/kP0j8psY+aE8/LB23MLok+znGeWhiov6UvCeRieh84DV0vH4FAPFE4wEiOkqBURCMUuDEztVXkjIA3hDBUgWWqsjSQh3wd6AqbTMW/06go12+YzEf9Vy6GABKmtwPqJsAAIh+Kz69EYMHl3/3zsuO2eX98rnInlVIZl91ADAxkYy2mnUjQyqHW0GFiI6EogLAoei477uUbAJ0hcAkFbZZVJrFmOVHOSeuzF5K+cS1hR34zET9YLTpfRCM6vy75dh2E/5r/Ibnvu5qkmEnLEiMeQ/AewAWAkAioebl0LPD1doKa1Ah2LY9yOHoXregFkJKBG8o0KwqzQCSYu2KMuy3ouAH+51MTCSj7dc3/haA6wWABHq/hyWRzxgASlkZ7kY7fgqgv6v2ot9qWdNaEU80npfdSXsiu6N7Jfv62MmJ+nCfkDkoBDPUWhkKo8MUGCoqQwH9DCCDs/d8dxcWwIcA1gKySqCrreAdUV1tEVodDTmrsqfDP+VBjws7q3bxFw3sXAAH5tHNaDjpF6uub5y0cOqY5wpV286yQeit7Gvh9v8WTzQeYI0MNXCGqshQsTJUxQ4VyFB0zC0YiO51a+p6AGsA+ZeKrhZgNaysMkZXO7CrNzn2n34sbXxOov7Adll3LxRj3L5HgXVtPVrv9bIu8hcDQAlb8KMxm+IzGn4J7dTJ5JNgsDxe23j1gmmj7+jK03/ZHeNK7GEG+hm/fqQstLH/AGPT+6uGBhvRgQrpq6K9jMU+CvQWkV4K7Y3tgo8q+ors5pG6inYItmb/lIFsWznOblaVLTDYZCDrrdWNAmlxVNaGIqG1X0gfv/ZT3+J9Fr+psY+04QaF/TYKMxP/ILHaGJ/e8NsyzUzt6vvKtztb8Pdd/XsioWZZ5PmBTtoZaEKZ/Y2GBkPQx0L7w6KPAL1VpJeI9oOiL7Y9VlnRE7LrlS5V4Yhg+xUU1wtks6puEWCzNfhIVLYIdKNVWSvitFgT+aBHpt9ar7/Fd1YioWaZWXxFBnoDOvnQLwF+8fh/f2WLR6VRN8AAUOLKeoV+1r7ZmYJO3O6X/ZZ9e3xG4wU645mfLJx20lNe1ddZj151ZjuAf2VfvlrgdwHbufSOJZGWlq0XoF2vU8FnCtx9CILvtkv4nAm1i2o3WOeu7vKAnmwAW5N90XaqZiw+bZltvAHAMZ1/t7650To/L3hR1K3wXt0SN+97J7aKsZPRMcmos44XNU/GaxufjF//zLhC10b5m5hIRqumN1S3rNm6HCJ3AgU/+G/vIIX8vq8JL4/XLpp86R1LuApgNxSf3jg+XtvwtKh9DJLLwR9pgUzuLg9ZIu/wDEAAzJ960rMTZjT8pyp+m1sPegqsOSVe2/iSwv4603/zvdlv4uSTsxOL93eMvbQd664QYEgXXwY/FJDZLWtab5owo+G2VEjvfPQn49Z2ZQG0o5MT9eV9Tfg8AFcBmtdjnEXkO/OnjXm+QKVRN8YAEBDzp429tWp6wxARXJN7L3q0QGZG1ve5ecL0xnslZOc8OHXcC4Wrkvbk0juWRNa0tJ6uBtWO2jjyfFqjAGnteLRNrvuBA1RxfSQjU+O1DQtEMWfQ4B5/LeRdJLRnE2objldFNUS/CSD/9RUEifnTxtyRf2VUDBgAAmThdWOnTqhdlFLI9Dy7GqCi31Er34nXNqwQ6L1iQws6s5oguXPpHUsi77VsHWcEX2tZ0/ofEAws0NPntkL1HBgRKO5Dfos1lQOYpIJJLWta18ZrF/2fVTx4wOCeixgGCi9e+8zREBOH4lwFRnz8yOE8iWDq/Gljb8i7IyoaDAABM//acbUTpje+rqK/R2HusT5cIdPV2OkTahtWK3ShSmghnLLGhYljtu797bSzsxOL98+IPVUE8ZY1racbEXe3cbr3D1j9xvzEuFcB4KzahhMN9C+AHFKAvgcCcqURXNmypnV9fEbDo1BdkA7jSV4myM1pNz/Wq8fWHmMUUgVBFYCDC/wI4o0ievH8aeP+UtBeqdtjAAig+deN+b+qxLOviHHuA1BRqH4VGArIlaL2SpjWVLy24XkonjIGT693Ms9xUtGunf0/z+9n06lxVnCyEZziqI3t7SmNuRLIfSkbvujRxAkf3+b20LVjX5l449+OaU+VzwRwdgGH6w/FuYCcG8lA47WNTQqth2h9uRNeNC9x4roCjlUyJt7ybI/2TfYEwI4HZDxacZyKVwtkyWshq994IDHuDW/6p+6MASCgFiZOXHHazY8dV761500QXA7s5h753EUBjIVgrFVc19eE0/EZDa9B9QVAXhTYF6OHr1me6/MHilVVYklPMVuPVphjAT1WoMc5mdQh257LrN6turBegWsWTBt9+67Wdph39Zc3QPXrE65vvEJVbvBgwSUB9AgBjoDKVe3GQby24R8KvLhte1Db86WgnTU6OVEf7otQhUp2exA5rn2zcwQEYY8ndmYUuA22/McPBOxnTp9gAAiw7CIfV8Zrn/mjQG5VyBc9HC4CxRcA+QKAyxUG7SuGtMdnNDSrYrmINClss0KTPZwBq7vbgiqdddrNj/XquaX3oY7YkQI9QkRGKrQSaB0OSEg+Pofr+ex9hWgdTPRHC685Yc0elxvuWLf/1jMT9feFTfgmANUeF3ioAIcCeh4gENPqxGsXrRRIEyDLrWpTSE3z1l6b/1HsC9JMTCSjraEPhwokBkWFiFQCGAnFSABln2wPXbLu1mILfPuha8e+svemVMoYAAgLrj3pJaiOjs9ovBDAdOS3fGxnlEFxlABHQRWS/V+7WWfjtQ3/ArAKwEooVkLwDlTXIGTWhDPplhD2/8CvkFCVWNLTonVwOGwHW0cGGiMHquJgAMMAHQ7IMLRioDU2e/Tctnvv2hVrVfGCiH5vwbRxizvzvuxjh6dUXd/4e7H2FkCO9ajEnYUAOUSBQwD9mghgxaK8tSfitQ1rAV0FyEoAqxRYDdV/mZCuzWRMi0GPFr/OHkxMJKMOPtg/E44MhmMHQWSQQoYa0eGqGAZgWDvWfcao+WTdFX8er/MOVK5dcO3oOj7ghwAGANpGRBcAf5qYSM5JmX/XKPCjAk0Ky4UBcFD2Nfbj46YIYBUZE0YG61BV27AOwBooNmWXbl0vkM1QbIJgkxXd+EmHsl614wS7KNIKDUNEst1GLNAbAIyKQLW/QvpC0AdAH4H21o5lhfsDGAy09goBUGsgsvNpe/+XpVfgaSO4YcG1Y5/Ip5+FU8c0Ajiuasbi06D2xwKcXJgKczIQkIEAjgWyP2URqBWEDAC0Il7bsAXQ9wHZIMB6hWwGsAmKTQLdCJH1Vjp+WwbYrIqOOxRUVSAZFUQ6uhWx0I8nXhqVvlD0gaDPtiWmVbFt+xjUjnX7AmHAasc2io7I5+HlnM56A8BNZXbfOfMSsRSu87sc6i4YAGgH2W/Vf5g4d+7MtuYhk8TgBx2n7ruf7CNk993+mKvQj4/B23/H0e2+culOt03pJ2/Z7v3btS9w3R5xAHlIjPOzBVNPeraQHS+cNvpxAI9PuP6ZE9XKjwD5Kgo/Z6QQem0LrR2/s+xvTj7587ZtYsfMJjv8WVV3iHHbb1PbvaX7UywRyM+jI9/7S9Dm2pA7DAC0S9kdxr0A7p2QWFQBkRoVXAxggM+l0Y7eFcXd6ZC5/ZGpo1d7OdD8jmAx4ZwbFg1JW6kRxf8D8Dkvx6TOkg2A/p9avWNhYtwyv6uh7o0BgPZqfmLccgBXT7zl2entm+w5ED0fwCnIcyU6yo0C6wR4SMXOWjh1XH1XX8/NPuL4Jqj+rOr6ReNFzRQAVQD26co66GPtCn3SwNy9wabv5+225BYDALk273sntgK4G8DdVYklPY20ngqDiaoS9+C2MdrRByJ4DBbzynTfxz6eADnNx4pEdCHwFICnJs6dG2p744AvwupEAc5B100kDaqtAJ4SYF402jZ/3tVf3uB3QVR8GAAoJ9kZ1wsBLDzj14+UhTf0O8lYe4oFxotgFLrnNeJisgVAowrqQ4onHpw2Zll3nrmdvWTUCKARqv8Zv2HxKLH4EmDHK2Q0gF4+l1jsMgCWKlAvKk+l99m4iA/konwxAFDesjuix7MvTLzxb/1S7eXjVPQUqJwAwVHoWC+edu8jgb4IYLE15qkhA8uf32Ed/T3dv9/ddNxRsgQdrxsnJpLRlPno+I7tAaPRMZO/0Msbl5o2gb5k1TwHo09lnMii7VdvJCoEBgAquOzpyIXZFy69Y0mkZc2WSsAcq5BjBRgFaAUCO4dANkDxCkSXAPoibHjJgsSJb/pdlVeylysasi9AVc66ftEhYs0xgBwroscAcmSALyO1Q5AEsBRWXzQaenH/IWVJPkiJvMYAQJ7L7sheyr7uBICJc+eGWl8f9FmBxIyawyFaoYoKdMwqL5Vvh+9D5R8KbTaC5RAsdyTU/NDUE//ld2G+EtGHgH+g43Xvtr8+J1F/YEYiI0V0pFVUCGQkRA8FMMS3WgvrIyjeEoNmqCy3aptFw8myindX8jY98gMDAPkiu8PbdhDYwRmJ5/pGTftQqBlmjQ4zioNV5DOqGCLAQHTcijgQHQsG+SEFYC0gHwDaIoIPVbFaoKtVzeqQ6uqPkHmHs7E75/7E+HcBvAvgb9v//cmJ+vJ9ED7YERkqYocqZKgIhqpiIASDoRiIju3Bowfm7JUFsFYEa1WxFoIWUf2XwqwW1dUQuyply1bzFD51NwwA1O1kd5SvZV+7lEioWRZ5fqCTdgaGw5m+VsO9xdp+EPQRoLeK9BLbcUpZBYLtziqoICJA5uPVgVQcQceqgQq1amSDQDeKyhYV2SzQjSK60arZYJz0mgcT49d7+d9PO8oGqTeyr936WqK+v4OywaFwpq+q9FVIX1HtbYHeEPQRq/0EYgCgY6VH7ZioKhAFwrJtZcAO6yW7faiRDaK6RYHNUGxSYzYYyWzOZMIbQ5HQ2i+kj1+bSIj15r+eyDsMAFSUsjvcNdkXEbLBrMvD2YKuHpCoQPw6hUpEREQ+YgAgIiIKIAYAIiKiAGIAICIiCiAGACIiogBiACAiIgogBgAiIqIAYgAgIiIKIAYAIiKiAGIAICIiCiAGACIiogBiACAiIgogBgAiIqIAYgAgIiIKIAYAIiKiAGIAICIiCiAGACIiogBiACAiIgogBgAiIqIAYgAgIiIKIAYAIiKiAGIAICIiCiAGACIiogBiACAiIgogBgAiIqIAYgAgIiIKIAYAIiKiAAr7XQDlT+dODKVam78hYk9TyAEC6Va/V4U6ImiB4ulIOe6RSclUV43dPqvySEDPM4LDFdKrq8al/Cm0TSArxTp/iVzQvKhLxpx5VP90KH0hgGMA2b8rxiwWCs0I9D0VPBYti90nk+Y5ftdE+elWBwrqPJ0ZG5xuW75ABMcCAun4W5+r2pEA20qakm7DD9vuqqwqv6DpLa/Hba+LzRDoTwCYjuG718+F9mzbtqzGfCc1u2JOZGuPi+SypWmvxkvfNXJc2qT/AmAgsmPTJyT7/6K4KN22/Hm9p3KCnNe0xueyKA+8BFDENAGTNvIAgGP9rqUTRhqjD+vMYeVeDpKaXfktAaaC23hpUJmc7tH2M6+6b515+DA1ZgE+PvjTXhyfzuj9muDnq5jxl1fEUsMrJ0D0BL/ryMGIdKj3BV51rneMikB1ulf9k2+u3Drr85/xouNQOHw1gH5e9F3CTkwNr6jyuwjKHQNAEROjX/K7hlwJ9Mte9Z3u1XYU+E2uFIVDcMZ70rMW72fJTwLhz62IMQAUNe3rdwW5UvXu25Y4lt/kSpSIevW75TaTC+HPrZgxABQxAd70u4acif7Dq64zYXjWN/lLRN7wpGOV4v0s+UiUn7VixgBQxBxr7wWQ8buOXIiG6rzqu8f5zasBPONV/+Sb1eEy9eb3KpjlSb+lLe0Y3Ot3EZQ7BoAiVj5lxRsCTPO7jhz8MjLltb97OYA65nIAH3k5BnWplBi92Ks1JCIHDfgDgL950XepEpVryquTPHNSxBgAilykJnkjRC9SoMXvWlxYB+C/ItXJ73k9UNmFr61Qx5wI4GmvxyLPvSbAqZHJy5/0agAZ/3Qm4myJA/glgHavxikFCrwPwZTIlKab/a6F8sOFgEpAtHr5TJ07sS7d3vR5sdjX73p2RWE2RtrKX5LLlqZR0zVjll342goA41vrYgeHgUOgloG3yDjQd8qnrPDmuv9O5MJVbQD+S+fGpmXacBTUerpWRTFSg3XRsspXuApgaWAAKBHZD+Qyv+vojnrUJN8B8I7fdVBxkEnJzQAa/a6j+2r2uwAqEH4jIiIiCiAGACIiogBiACAiIgogBgAiIqIAYgAgIiIKIAYAIiKiAGIAICIiCiAGACIiogBiACAiIgogBgAiIqIAYgAgIiIKIAYAIiKiAGIAICIiCiAGACIiogBiACAiIgogBgAiIqIAYgAgIiIKIAYAIiKiAAr7XQAVhs6NRTOtZpQVHQLYkN/1dCkRayDvhz9qWypXvdnuxRB6T+WgTAqft8b286L/wBOxxkFLWLcslQtXtXk1TPucWIVafE6g5V6NUbqMI8Z5L7Kl51K5bGna72oofwwAJSBVV3l5uk2vh9j9BAAgPlfUxRRQKNL9y9an6mK1kerkL0WgBen6nsMGpNPhW9MZ/QYMjATtZ9tVFFADpNFrQ3p25fXhyU3/W6jfIQCk5ow8AdbcAYsjA/kZKQgFrEG6R9uHqdmxa6LVyTv9rojyw0sARS5dF7sW0NsB7Od3Ld1AfwC3pOoqflaIznTuqH7pTOQZiEwCPytdpZ+q3pyui/2iUB2m74qNhjX1AI4sVJ8BNwCKO9J1ldf4XQjlhzu1ItY+84jDFbjW7zq6GxH5fuquI0bl20+qtXUqgIoClESdJbgqNWfkCfl2owkYNfgDAJ7yLzCFJtpmHX6Y33VQ7hgAilnIngsgWNf73REYOznvTkSqC1EM5URgTd6/w/Tw2DEADi9APfRp4ZAx5/pdBOWOAaCIiehn/a6hu1LgkLzePzfWG8CgApVDOcj3dwgAavC5QtRCu1aI3xH5hwGgmKls8LuE7kqAj/LqYHlyK4BUYaqhXOT9OwQQsrq+ELXQbqjJ+3dE/mEAKGJW8LjfNXRXqpLXz0YSsAp5olD1UA5E896+QxmnEcCWAlRDu2CU+6BixgBQxMreSj4EoNHvOrofWRY9eMCf8+5FnGkAPFlXgPbq1cjWHnPy7UQufn2TANcXoiD6lGdCNU0P+10E5Y4BoIhJAjaSiZ4DwWK/a+lGlmQ0FJfxT2fy7Sha3bzMCiYB2FiAusi9lzIZOatQi82Eq5M3QXALULh1BQgNkXD6G4Vcq4G6HhcCKnJy0UtrNYFxqc+NjIvKVwQmkOsBKHS9Qv8WLY/dH500zylUv+XVyQX6p6MPyUTSUxT286KmrFB9044Uul5VnowePOC+aAEC3DYdB6nk91MzY7M1hP8QYLhA+OUnBwr9UFUfi9YsX8CDf/FjACgBkoAFmh8E8KDftfhvecF7lIteWgvg5wXvmLpU9MLkywBe9ruOkjDF7wKoEJiCiYiIAogBgIiIKIAYAIiIiAKIAYCIiCiAGACIiIgCiAGAiIgogBgAiIiIAogBgIiIKIAYAIiIiAKIAYCIiCiAGACIiIgCiAGAiIgogBgAiIiIAogBgIiIKIAYAIiIiAKIAYCIiCiAGACIiIgCiAGAiIgogBgAiIiIAijsdwGUP50ZG5wOyQ8APQ3AEAAhv2vaiQWwBkC9E7I39zi/eXVXDKpzJ4bS7ckao1MGGAAAFaRJREFUqFQLcJgCPbtiXCoMBdpFZZWI/Uu4vN9tMunvrV6PmaqrPAbQ/wJwHID9vB6vyDgA3lfBX6Mh+V85r2mN3wVRfhgAilxq9sgvpBV/BXSg37XsxX4AKkKOqU7Xxc6O1CSf8nIwnRuLptqaHxDImQCgXg5GnhAAEB2skBPS7Rsn6z2HfVnOe+NDr8ZLzaq4DNBb0f0CdHcyQBRHpDM6JTWr4vTolOUv+V0Q5Y6XAIqY3jGqJ9Q8CKC7H/y311eBv+ifjva05lSr3iDQM70cg7qQ4qhMOvJHr7pPzYodBxEe/N3bHyIP6Nwv9vC7EModA0ARS/dsOw/AQX7XkYN9MuHUZV51rnNjvUXk2171T/5QQbx9TqzCi77F4L/Bg39nDU23bjrX7yIodwwAxUxxgt8l5MpCvuhV35k2HAWA30xKkFiPthuFZ9tjaVP+3IoYA0AxkyKewyHqXe0ixftzoT1T68nvVjkfKjfFvA8iBoCipnjF7xJypnjZq67DoVQTOmYsU6kRb7YbhXfbY0kT4c+tiDEAFLFIJjoHwEa/68hBSq3c6VXnHTPF5c9e9U++eSFSvfwFLzoOqfzWi35L3PqIzczxuwjKHQNAEZOLXlprBdUA2v2upRMciF5efkHTW14OEknpVYA0eTkGdR0FWmzIThbx5o7O8JSmhyC4xYu+S1S7UamWKSv+7XchlDsGgCJXXp1cAGtGq+BRACm/69kDB0C9WHtKtHr5TK8Hk0uS6yKmbbQKbgbwgdfjkWc2AvqnTCQzqvz85n94OVC0Ovl9Bc736jJDiUgp8DBUvxie0vSQ38VQfjiBowREL3htKYAzde7EENIr+vpdzy4dsN8mGf90piuHlMlvbgTwQwA/1DmH9IX04G1exSQVUrnw5fVdOWRZTfIeAPfozGHliPbhnSQ7ixy+USbN4/yaEsEAUEKyH8yP/K6jO8qGASJX5MJVbQDa/K6j+3nN7wKogHgJgIiIKIAYAIiIiAKIAYCIiCiAGACIiIgCiAGAiIgogBgAiIiIAogBgIiIKIAYAIiIiAKIAYCIiCiAGACIiIgCiAGAiIgogBgAiIiIAogBgIiIKIAYAIiIiAKIAYCIiCiAGACIiIgCiAGAiIgogBgAiIiIAogBgIiIKIAYAIiIiAKIAYCIiCiAGACIiIgCiAGAiIgogBgAiIiIAogBgIiIKIAYAIiIiAIo7HcBVJziiWcPMSHnQOU2ROQbATKA+eeD00a/5XctVHy486ZOiU9vHA/BrwDnCKt+V0MUbB0fQYt4bcMrMPaqBVNPWuRzSVREeAmAXJswvaEKoo8DeoTftRDRDj4Pa56omt54ht+FUPFgACBXTrv5sV4q+AN41oiou4qI6B+rEkt6+l0IFQcGAHKlfGvPMwHs73cdRLRHQ4y0fsXvIqg4MACQK2JwmN81EJELIiP8LoGKAwMAuWJVon7XQER7p6rlftdAxYEBgIiIKIAYAIiIiAKIAYCIiCiAeEsXFdpbAFb6XQRRCfps9kVUEAwAVFACrZt/7bhav+sgKjXx6Q0JCK7zuw4qHbwEQEREFEAMAERERAHEAEBERBRADABEREQBxABAREQUQAwAREREAcQAQEREFEAMAERERAHEAEBERBRADABEREQBxABAREQUQHwWAJU8nXlU/1Q4dZpROVwFg0RlYF79QT8S0fdUzduRTOSvctFLawtVq1d07sRQuq35aCiOVNERothXRPoBgKpuUODfAnkDglcj5SNfkknzHN9rVogze+QZVsxXYXWAGlktgnnRyckX/a6NqBQwAFDJysyu/KpV/Gca6ZNEJaIAoIBC8+5bVQAo0uGUk6qL/V0Ft0UnJ/8sUoDOC0TnxqKpVvmqEZ2cblt+KoB+EEAAQLb7OWz7u+yf023LN6TrYk9YsXOiZeYRmZRMdX3to/qlZ7fNA/BlKAARiAJQ/CA1O3Z75K3kdyQB29V1EZUSXgKgktM+q/LIVF3saav6EKBfAhDxcLgQgDGiuCc9J/Ziui42xsOxXNG5sd7p2ZU/SLVhtYjer8A5APp1oot+Cnxd1DyQasOqdF3F97XuyF5e1bsrqba2OQC+vIt/EiiuSA2vvLYr6yEqRQwAVFLaZ8W+IaJ/B3BSlw+uGKVAfXp27EddPnZWW12sKt2GpKreLMDgfPsTYIhCfp5R543U7FhNIWrcm3RdbIwAZ+2xLtEf6R9i+3ZFPUSligGASkZqduV3RTAXQE8fywir4sb22bGfdeWg+scRfVJ1sXsNsADAwQXvX3AAFLPSdbH7dOZR/Qvd//bsrr/576w8VWbHeVkHUaljAKCSkJ4dOx2q/4ttl7N9Jor/Ts2quKwrxmq7+4jPpsPhpQC+6fVYCpyTDqWfa607crhXYwjgapKmwOzvVQ1EQcAAQEWvte7I4aqYi47r8d2HyK9TdZXHeDlEe93ISnHsYggO9XKcnYwwcBa331UR86Z7dRfiVLj/IsoDP0BU9EJwfgqgj9917EIU0Fu86nzrnyoPEphHCnGtv7MEGGJEHm+defiwrh6biAqDAYCKWuquI0YBmOR3HXswNjOrco8T2nKhdUf2Cof1MQAHFbpv1zUIDgiFwgv1jlF+zrkgohwxAFBxM/ZidJPr/rujopcUus80nNsAjCx0v52nlekerb/xuwoi6jwuBERFSxWSmY14J1beWSnA7yx0ZT7jipgDoPr/ALi6Bq7AaXrHqJ5y2dKt+Yy7TWZWxRkWyOmWPAXeF8XDAnlDBS0AIIrBKjpCgTMFGNL5XuWi9OzKP0eqm/6WS01E5A8GACpaqbrKI0T0M27aKvBwNJ05Vy5+fVMhxtZfH/K7dP+y3wD4fy6a93DKW08C8Gje486NRdNt6Pw3bpFF4jjTIquaG3e3gp4mYDKfqxynqjMAdGpBI1X9jdafXCnjn850ujYi8gUDABUtFR3q8tz/h9Fw+gKpeaMgB38AkKvebNf6k69I/3PtOAAj9tbeGjOsEOOmW2UyRD/XibdsUeCSsuqmP++tYUcwaHoawNj2uth5Avwe7tdUGJF+d+15AOo6URsR+YhzAKhoGdUDXDVUWSjnvfFhoceX8U9nFJjnqgS3te6xDwhEf+i6PfA+HIwpq0nu9eC/s7Ka5D0QO1bRcZnA5YCuayMi/zEAUNESY/Zz005h3/esBhVX8wkE6J3vWJnZsdFwcbYhq02gZ0cvTL6c63jR6uZlYs1ZAFpdviWWmhM7NtfxiKhrMQBQ8VKXs/9FPHtCn4i+4aqh4h/5jqWCc923liujNcufz3fM6AWvLYXI912/weK8fMckoq7BAECUh3B5xd8B7C0EbI5E5L68B1N8yWXLVyNvN83Me7ysSNnIOwEk3bUWtzUSkc8YAIjyIJPmOWJxEYC23TRRiF4l5zWtyWccnT1yCIDDXLVVzNjdTP9cyKR5jgpucNdaY3rPYQMKNTYReYcBgChPkQuSi2EwDsCLO/3T26p6drR6ed7fxjMiFS6btkYllPfthjuLlmEhdh9yticZJ9wNFigior1hACAqgOjk5IvRmuRxNmQ+J8CparUyUp08pGzK8vmF6F+tcfWwHwWekZpXtxRizO3JpORmKBa7qkGNqzMVROQvrgNAVEDl57/2NoC3AQAXFK5fAfZzM5NRJDu2Fzr6PnWvzRT7elYDERUMzwBQ8RK4m92vLh8v241ZoJebdqLIa67Bnijg6nZKK9rXqxqIqHAYAKhoqeoGN+1EZB+va/GcqLuzdSpu79nvNON+PQCeWSQqAgwAVLQU4naBn9N15rByT4shIioyDABUtET1XZdNh6dNrxs9LYaIqMjwVB0VrUhb+UvpHm0fAdj7KX7Bd9OzYsMhuM0RvAVjcrpPXlNpW95rnzUy6e+enWonIuoKDABUtOSypenU7IqHoTLZTXsVxAHEjQJwclwnJxRCum0jUnWx9RC8pcAjAvtgtLp5WW4dEhH5g5cAqKiJyhyfhu4PxShRTIOapalZlX9Pz64Y61MtRESdxgBARS1Sk3wMQL3fdUD0BFVZlKqL3a13jOrpdzlERHvDAEAlQH4IION3FVnnpXu0NW79U+VBfhdCRLQnDABU9KI1TUsg8gO/69jO0eGwPsOH4hBRd8YAQCUhWt30KwB3+l3HdoanM9F7tf5kTrQlom6JAYBKRqQ6ebmqTAdcLhHsOf1S5p21V/ldBRHRrjAAUMkQgZZNaUqo2HMA/NPvegBABdfozKP6+10HEdHOGACo5JRVNz8YKe87QgRXu32AjYf2zYRT3/W5BiKiT+H1SSpJ2ZX6btIEbk4fMvI4daTKGDlMFQcAGAQg1ycEGgCDAbh+toCq+QaA6TmOR0TkCQYAKmmSgAWanwPwXKH61JnDytOm10UQ3ASgt4t3VLbNjh1SXp18s1A1EBHliwGAqJPkwlVtAG5Lz658WVUXAQjt9T2K4wB02wDQdvfIQ8UxF0HweaPYqpBFEdN2l0x+c6PftRGRNzgHgChHkeqmZ0XwgJu2RuQAr+vJVaqu8nLjmCYBrhbFGQp8HdBfZWxZMjWr4mi/6yMibzAAEOVBFc+6a6ddEwBEOzW3ITO78quA3gYguvO/KXAgRB5vrTtyeMHqI6JugwGAKC/i8rHA2iOvYRTtbppZoG9nurWqM7DnCZEDQrAL9I8j+liFq9sZjWhbZ2ogIn9wDgBRETDAFjerG4m6v9Sgf4jtmwZcnOLXykw4PEegG13dPGFlk9saiMg/DABUErbOOfLAsLVnqegBYtHiCB7qUZN8x++6CkWBFlcNRSvc9tkWcvqG9j5/sWN8QVwhLW6uL1ija9zWQET+4SUAKmqqkHRdbGrYOm8BersopkFwawh4s70uNkMTpbGNi5rXXTY9VmePHOKmYfmwwe8C2OK6ho71D/bezgmtcNsnEfmnJHaOFFyZ2RVXKzADn57EFhFgauqzsev8qKvQwqHWJNw98tik1XzTTZ8y/ukMoLPzq+xTUpH2aHOB+yQiDzAAUNHSuiP3V8i0PbUR4Oqtc448sKtq8kr2fvylLpv/WOcc4moyYCQl1wBYnXNhn/a8XLZ0awH7IyKPMABQ0UrDfgXA3mbXR8PWOaMr6vGaiD7qsunAtC2/3lWflyTXQTABnbgUsMf+RP5aiH6IyHsMAFS0RDDITTtVHeZdEepyIq04+Q7lOGYOXD/qWL+Tmh271E3LaHXyFVWpBmBzr65j0Iyae/Psg4i6CAMAFS1V/dBNOyNyuHdFyGFumonbWfx7UH5B01sA6l2/QfHb1KyKy9w0LZvS9IDk+cAiBR7vUfPqynz6IKKuwwBARUtcPupXgbNSs2OfL/T4es9hAwA931VblfcKMaYY/Z9ONI9A5HepWbHfd9S6Z+Hq5AwAf861NmNtZ2ojIp8xAFDRyoSs29vNorCYl5o98guFGrvt7pGHpjORRwDs66a9GBTk1rjI5OVPAvJEp94kuCSdibzZPqsy0T4nttt1AlKzKirEyMpcLldYkcWRC5oXdfZ9ROQfLgRERavH+c2rU3WxVwDs/du94FCoea69LvakKF5XIKflakUQFeCz6uArAMpdvu2D8FtNBXscsRVzpVHnFQBlnXhbPxG9DhbXpepiKxXSLIo1AKCCQQIdCWC4WpdTDHYiimH6p6MHykUvrc2pgxwo9Gvts2LDumo8ABAj7ztqFvBSB5UCBgAqagrMFzcBoENEgNMhOL1TT8z59JidtVASeU+w+1h59auvp+piPwZwS45dDBfo8G2r+ubzs9hGoJ9Jh1P369zYqTIpmSpAly7GxFcg+EpXjPUxVYTg3NxeF7spWp28ViSXzYGoe+AlACpqUYRuBdCd15531OovCt1ppDr5SxH8pdD95mlMuk2CMA8gIsDUTF1sqt+FEOWDAYCKmtS8+oEKful3HbulmFl2wfJkobsVgYbL+tZApJtdd9f/bJ15+DC/q+gKKviJ3lPp6lZUou6IAYCKXjSVuRlAt1t+VhTvRSz2uFJhXv1P+ntrpKwsDuAZr8bIQShkQmf6XUQXKU9ncJrfRRDligGAip5c/PomB6GvAnC1LkAXaVPRc+TCZN73/++JTFq6IeJsOR153L5XaOpygaY9dODmmQfdgtvFqIi6IwYAKgk9al5dKcDZAP7tdy0AtqrqN6M1y5/visHkwlVt0ZrkuRC5AoB36/C7nPAmkLwew5zv+7uShS2aWol2xgBAJSNSk2y0IXMcgIJfc3dLgH8BclLZlOXzu3rsaHXT7U7IVgjkwUL3LcD9qpiMvT+RsC0CszCfsRzF/S7G6Q42RDPRx/0ugihXDABUUsrPf+3tSGv5cQKZCmBjFw7dpoKbwyFzRLSmaUkXjruDHuc3r47UNJ0NyLEC3AcgnUd3aRH8BWJHRWqSXy+rSd4DxXex5zshfyI1r36Qx5gov6DpLRX8NJ8+uoZ8Xy58eb3fVRDligGASo5ctnRrpKbphkgmeogAPwbwPPJ/0M1uBsPLqjLdAUaUVSd/KOe/9pEn43RStKZpSaQm+Y1IJvoZKL4tigUANrh46wZRLIDIFZFw+oBIdXJitLp52cf9TkneBuAiADv/d24C5LvRmmRBbnmMTk5eJ4Kr4eUljdx9BNGLojVNf/S7EKJ8cCEgKlnZVeluBHCj3lM5KJPRQ63oAQIzRKBuV/HbgSpSKmgx0HfTEl7Zc/Kr7xa26sLK/gxuA3CbJmDahh5+cDgUGmFFB4hFbwBQg83GMWszmnmjfPWKd/a2aFG0JnmX3jFqbnuPtlONYIhAVobLyl6QSUvdBAx3dQsUSN6kf4j9PlWG8aI4WATRQvWfC4W0WdW3y8pRL5OWb/azFqJCYACgQJDzmtYAHUvfBlXHgX3FKgCr8u7rsqVbAeR1rd/VOJck16HjUgYRFRgvARAREQUQAwAREVEAMQAQEREFEAMAERFRADEAEBERBRADABERUQAxABAREQUQAwAREVEAMQAQEREFEAMAERFRADEAEBERBZD4XUAxmTCj4duq+K3fdRAR0aeJ4Mr508be6ncdxYJnAIiIiAKIAYCIiCiAGACIiIgCiAGAiIgogBgAOkOxye8SiIho11R1g981FBMGgE6wkKV+10BERLsmFsv8rqGYMAB0wsJrxyQF+rjfdRAR0af8dX5i3HK/iygmDACdFArhAgBv+F0HERF97PWMzVzodxHFhgGgk+6/Ztz7ZdG246D6UwBvA3D8romIKIAcAG9D9adl0bbjH0mMb/G7ICIiIiIiIiIiIiIiIiIiIiIiIiIiIiIiIiIiIiIiIiIiIiIiIiIiIiIiIiIiIiIiIiIiIiIiIiIiIiIiIiIiIiIiIiIiIiIiIiIiIiIiIiIiIiIiIiIiIiIiIiIiIiIiIiIiIiIiIiIiIiIi2qP/D9/Ky/OqOOTLAAAAAElFTkSuQmCC;" vertex="1" parent="1">
          <mxGeometry x="1010" y="320" width="100" height="100" as="geometry" />
        </mxCell>
        <mxCell id="Lf1fIR2ePeuiFVvzxuUq-79" value="" style="shape=image;imageAspect=0;aspect=fixed;verticalLabelPosition=bottom;verticalAlign=top;image=data:image/png,iVBORw0KGgoAAAANSUhEUgAAAgAAAAIACAYAAAD0eNT6AAAABHNCSVQICAgIfAhkiAAAAAlwSFlzAAAOxAAADsQBlSsOGwAAABl0RVh0U29mdHdhcmUAd3d3Lmlua3NjYXBlLm9yZ5vuPBoAACAASURBVHic7N15nE31G8Dxz519H9swtrFnC0XJlq2UpY0sWUJlr6yJ0qZIComQJGtESKVUsm+lKGRfZzCWrLPv9/fHNeVXlpn5fs895977vF8vr9/Cec4zx3W/z/muIIQQQgghhBBCCCGEEEIIIYQQQgghhBBCCCGEEEIIIYQQQgghhBBCCKuwmZ2AcAobUBQoA5QGSgIRQMF//fIB8l+9xg8IvvrfE4G0q//9EpABXPjXr3PACeD41V+nAbtRP5DQRv6OhDCPqW2wFADuxQsoB9QAqgHVgco4Gn1/J+eSAkQDe4HdwC5gJ3AUyHJyLuLGpAAQwjxSAIg8KwDUu/qrPlCLf97arSoR2A5svvprK3DR1Iw8mxQAQphHCgCRY0FAY6AF0BTH272r/x3agX3AGuA7YD2QZGpGnkUKACHMIwWAuKlSwGM4Gv1GQIC56RguBUcRsBJYjmMYQRhHCgAhzCMFgPiP4kBboB2O7n1P/nvaC3wBzMUxf0DoJQWAEOaRAkAAju799sDTOMbzvcxNx3KycMwZ+BRYjAwT6CIFgBDmkQLAw1UBugI9cUzqE7cWB3wOTAd2mJyLq5MCQAjzSAHggbyBx4HBwD0m5+LqfgEmAEuBTJNzcUVSAAhhHikAPEgI0AkYAtxmci7u5jjwEY5egcvmpuJSpAAQwjxSAHiAcGAQ0J9/dtoTxrgETALeB66YnIsrkAJACPNIAeDGgoEewMtAYZNz8TQXgclIIXArUgAIYR4pANyQH9APeAlp+M32FzAGmMI/5xmIf0gBIIR5pABwM/cDE4GqZici/s9hHD0xX5idiMVIASCEeaQAcBMVgfFAK7MTETe1BhiI44AiIQWAEGYytQ2WzWbUBeDoYt6NNP6uoCmOvQPGAIEm5yKEEKaRHgA1jYCPcYElfTabjWKR+SldMoIyURGUjoqgaJH8FCoQSkTBUAoWCCUsNJDw0CAA/Px8CA5ynCCcmJRKWloGAFfik4iLT+b8hXjOX3T8On32Esdj/uJYzF8ciznH6bOXsdtd4sXyENALWGdyHmZS+ouKPXtBVx5CuJxiRQqqhpAhABcUBryLo/Gw3DMMCQ7grjvKUqNqKapVLkmNqqWoWqkEgQF+Trl/UnIqe/afZOeeGHbvi2HX3hh+++MoCYkpTrl/LtmBT4CheOZqASkAhMgjKQA8T31gHlDG7ESyFYkIp0mDqtS7+zbq176NGlVL4e1trdGdjIxMdu6JYfO2A2z59SBrN+3h3Pk4s9O6VjTQBdhkdiJOJgWAEHkkBYDn8AFeBUbg2MrXNN7eXtSpVYEW99WgedM7qFm9NDaba/1VZmXZ2bHrGCtX/8HK1X+w7fcjZGZmmZ1WJo65ASOBDJNzcRYpAITIIykAPENpYAFQ16wEvLxs3FunEh0eq8vjD91D4UJhZqViiDPnLrN0xTYWLd/K5m0HyMoydQ7BLzi2bPaE44elABAij6QAcH8P4mj8TTmpr/JtxenRuQkd29SnaJF8ZqTgdKdOX2Thl1v4ZP5aDhyONSuNS0BnYKVZCTiJFABC5JEUAO7LhmPjmDdx8nLJAH9f2j1Sh55PNuXeOpWceWtLsdvtbNi6nxnz17D0m19ISU13dgpZOIYD3sJ918tLASBEHkkB4J7CgLnAo868aeFCYfR76gH6Pd2MiILu1cWv6tz5OKZ8+iNTP/2R8xfjnX37b4Ancc9VAlIACJFHUgC4n5LAt0A1Z92wfJlIhj77EF07NCTA39dZt3VJySlpzFm0gfc+/Iaj0eecees/cWz0FOPMmzqBFABC5JEUAO6lGo7Gv6QzbhZVohAjBj7G050a4+Nj6sICl5OensnCLzcz8r2lziwEzgAPA78564ZOIAWAEHkkBYD7aAksAkKMvlGRiHBee+FxenRugp+fj9G3c2upael8PHcNb41fxl8XnLKvQCLQEcewgDuQAkCIPJICwD10AWbhWOtvGH8/Xwb0as6IQa0JC5Vt6HW6fCWJtyYsY/In35Oenmn07TKBZ4A5Rt/ICaQAECKPpABwfb2AaRg80/+R5rUYP7IL5ctEGnkbj3fgcCyDXp3HytV/GH0rO/AcMNXoGxlMCgAh8kgKANfWD/gQA59DkYhw3n29E13bNzTqFuI6vvlhB32GfkLsmUtG3+p1HEtFXZUUAELkkasXANbaMN65hgNTMOgvwGaz8UznJuzfMkEafxM8/GBNdq1/1xnPfiTwmtE3EUII3Ty1B2Ag8L5RwSML52P25D482KSGUbcQubDixx08PWC60ZMEh+E4IdLVSA+AEHnk6j0AnlgAdAc+xaCf/cEm1Zk9uS+RhT1j215Xce58HE8P+IhvV/1u5G2GABOMvIEBTC0AVL9Azb6/cG0W+PzIEIATdQZmYsBD9/fzZdp7z/D9opek8begwoXC+Gb+UCa8+SS+vobtufAe0M2o4EIIoZMnFQAtgNkY8DOXLF6QDV+/Tp9u9+sOLTSy2WwM6tOSNcteNepgJS8cBeZDRgQXQgidPKUAuB1YiAHr/BvWrcyvP46mds1yukMLgzS4pyI7142lSYOqRoT3xrGh1D1GBBdCCF08oQAojuNI13Ddgft0u5/VS0dQJEJ7aGGwiIJhfP/5cLo/0ciI8EHAl0ApI4ILIYQO7l4AhAIrgBI6g3p52Xj39U5Me+8Z2cPfhfn5+TBrUh9GvtgWm037tJCiOM6VkOpQCGFJ7lwA2HCM+d+hM2iAvy+LZgxg6LMP6wwrTPTaC48z58O+RpzLUBWYj3v/OxNCuCh3/mIaBrTRGTA4yJ9vPhtK24dleNfdPNnuXr6a+wKBAX66Qz8EjNAdVAghVLlrAXAfMEpnwPCwIH784mXub1hNZ1hhIc2b1uD7RcONOKjpDRynTQohhGW4YwEQBXyOYza2FoUKhLJm2SvUu/s2XSGFRTWsW5kfFr9EvvAgnWG9gHlAGZ1BhRBChbsVAF7AXKCQroDhYUGs/Hw4NavLd7enqFOrAt8veonQEK09AQVwLA/01RlUCCHyyt0KgBGAtnVdQYH+fDN/KHfdUVZXSOEi7qlZnpWfDyM4yF9n2LuBV3QGFEKIvHKnAqA28KquYAH+vqz4bCj31qmkK6RwMfVrV2TRjAG6VweMABroDCiEEHnhLgVACI7lVlq6V728bMyb+qxRO8UJF9Kq2Z18PL6nzn0CvHHMB5D9AYQQpnKXAmAMUEFXsHde7ShL/cTfunVoyKtDtK4oLY1rHh0shHAj7lAA3AP01RWsR5cmssmP+I83hj5O1/YNdYbsiWO5qhBCmMLUs4g18Ad2AFV0BGvSoCo/Ln5JtvcV15Walk7jR9/i5+2HdIU8CNQAUnQFzAO7ysWq56kL4cqKFSmoGsLUNtjVewBeQlPjX7J4QRbN6C+Nv7ghfz9fls0erPMo4dvQOHFVCCFyw5ULgAo4CgBl/n6+LJk5iIiCYTrCCTdWtEg+Ppv2nM5CcShQWVcwIYTIKVcuAMYBWjZunzi6K7VrltMRSniAJg2qMuql9rrC+QITdAUTQoicctUCoCnwiI5ALe67g95dZS6WyJ2hzz5M03u1LRNtDrTSFUwIIXLCFQsAb2CijkCFC4Uxa1IfI86CF27Oy8vG3A/7UTB/iK6QE3FMahVCCKdwxQKgF6B8JJ/NZmPulH4UiZD9WETeFC9agI/G9dAVrjzQR1cwIYS4FVcrAAKAl3UEeqZzYx5sUkNHKOHB2j58D+0eqaMr3Agcu1oKIYThXK0A6AuUUA0SWTgf777WWUM6QsCkt7uRP1+wjlARQD8dgYQQ4lZcqQAIBobpCDRl7FO6vrCFILJwPt57XVtB+SIg61GFEIZzpQLgOaCIapBHmteiTavaGtIR4h9Pd2pMo3palvMXBAboCCSEEDfjKgWAPzBINYifnw/j3uiiIR0h/p/NZuOD0d3w9tbyT2ogMhdACGEwVykAuqPh7X9Q75ZUKBupno0Q11Gjaime6dxER6gCwFM6AgkhxI24wgJ4G7AHxe1SCxcK4+DP7xMeFqQnKyGu468LcdxWZxCXrySphjqG46yADPWsbkoOAxIij+QwIOO1QsNe6a8PbSuNvzBcRMEwXnxOyyaVZYDWOgIJIcT1uEIBMFg1QOmSEfTQ0zUrxC093+NBChfSMpFf+bMvhBA34mN2ArdQCWisGuTVIW3w8zPnRz13Po6NP+/nz30n2H84loNHTnPpciKX4xJJSHQcAx8SHEC+sGDy5wumYvmiVCpfjKqVStKwbiWPP6HQFZ9fSHAAw55/hCGvz1cNVQeoAexUz8qaNHShCpFnnj6EZfU5AOOAISoBKpSNZO+mcTqPb72l3/44yoJlm1m1bjd7DpzEbs/bMKvNZuP2SiVo1rg6ndrUp1aNMpoztSZ3eH7JKWmUrz2Q2DOXVENNwbEE1iimzgGQAkCYyQKfX1PbYCsXAH7ASRy7o+XZ9HE96OWE0/7iE5KZMW8NMxesY++Bk4bco2rFEjzTuQk9n2xKSHCAIfcwizs+v3FTVzD0jc9Uw1wGigHJ6hldlxQAwmNZ4PMrBcANdAA+VwlQuFAY0b9/SIC/r6aU/uvS5UQ+mLGSyZ/8wMVLCYbd51oF84fQv2dz+vdsQb5w157Y6M7P70pcElF3PkdcvHLb3Q2YqyGl65ECQHgsC3x+ZRXADTytGqDfUw8Y1vjb7XZmLVxHxbqDGfneUqc1XgAXLiXw+rtLqFh3EHMWbchzF7mZPOH5hYcF0aNLUx2hZE8AIYR2Vu0BiABiUZikGBjgR/Tvkw2ZBHbk+Fm6Pz+NTb8c0B47L+6tU4k5H/alTFRhs1PJEU96fjEnz1Ou9kAyMjJVwmThOATrtJ6s/o/0AAiPZYHPr/QAXMfjKK5QaPdIHUMa/+Urf+PuB0ZYpvEC2Pjzfu5oMpzFX/1sdiq35GnPL6pEIR5qdqdqGC+grYZ0hBDib1YtANqpBujRRe+6f7vdztA3PqN1t/FcupyoNbYOcfHJPNFrEsPfWmjJIQFPfn49n9QyCbW9jiBCCJHNigVAJNBIJUClCsVocE9FTelARkYmPQZ9zLipK7TFNILdbmfs5K/p+uxU0tOVupy18vTn17xpDaJKFFINUx+I0pCOEEIA1iwAHgGUFu337NIUm03P0Ep6eiZtnprApwvWaYnnDPOXbKLtM+9bogiQ5wdeXja6P6FU04JjrFDLHsNCCAHWLABaqlzs5WXjidb1tCRit9vpNWQG3/ywQ0s8Z/r6++08NeAjU4cD5Pn9o2v7e3WEaa4jiBBCgPUKAD9Aad3UvXUqUSwyv5ZkXhy5gNmfr9cSywyfLdnES6OUtlJQIs/vH+VKF+HOaqVVwzQB3GsHKCGEaaxWADQAQlUC6Hr7X/LNL5Yfs86Jdz/8hi+/+9Xp95Xn91/tH62jGiIIaKghFSGEsFwBoNTF6e3tRZtWtZWTOHL8LD0GfawcxwrsdjvPDJzO8RN/Oe2e8vyur/2jdXXMTWmhnIgQQmC9AkBpvVSdWhWUj2G12+10f34aV+KSlOJYyaXLiTzV3znzAeT53VjZUoWpVrmkajpathYUQggrFQAhQHWVAC3uq6GcxKyF6y21SY0u6zbv5bOlmw2/jzy/m2veVPkzejuQTzkRIYTHs9JWwPcBP6kE+G3V20pHvl66nEjFuoP560KcShrXFRrsR6vGZWhSpyQ1KkZQqngY+cL8Abgcl8rxk1fYeeA8a38+wXfrjxGfmKY9hyIR4RzYOoHwMGMOwJHnd2trN+2haZtRqqm0BFaqBrnK1K2AhXBlrr4VsNJ2u5rVV7m4SEQ4NauXVkrggxkrtTdeRSOCeaXfPTz5WBWCAq7/uCMKBBJRIJC7q0fSo93tJKVksHDFft6b8RuHYy5ry+XsX1f4cOYPjBjUWlvMa8nzu7X6tSsSGhJIfILSCYH10FcACCE8lJV6AL4HHszrxU+0rsfC6c/n+ebxCcmUrtVf26l0gQE+DOt1N4O61yQ4MG8nEqZnZPH+7B2MnLyV1DQ9m9IUKhDKse2TCAnWu5pMnl/OPdzlPVb8qLQ3wjocSwJ1kB4AIfLI1XsArDIHwAYoTd+vd/dtSgnMmLdGW+NVPiofWxc9wSt978lz4wXg6+PFiz3u4qfZbSlSUE+3/fmL8Xwyf62WWNeS55dzqp9V4C6sVbwLIVyQVQqAkoDS7j31a6t9qc5csE7p+mw1KkWwYUF7br9Nee/3v9W9syg/L+lI1Qp6jk79dIH+AkCeX86pflZxTJgtqxpECOHZrFIAKM3+Dw0JpHqVvJ+T8tsfR9l74KRKCoDjzXXlJ60prOlt81olI0P5ZvpjWt5kd+87wR9/RmvIykGeX+7cfWc5/PyUp99UUw0ghPBsblEA1KpRBh+fvJ8ftGCZ+vKuwAAflkx+yJDGK1tU0VCWTH4Yfz+ls5IAWKBxSaA8v9wJDPDjjttLqaag9G9GCCGsUgAovc3UqKr2Zbpq3W6l6wGG9bpba7f1jdS9syivPae8pSyr1u/SkM3VWPL8ck31M4v0AAghFFmlAKiqcrFK9/+583HsUey+LhoRzKDuNZVi5Mag7jUpFxWuFGPX3hjOX4xXzkWeX95Uq5z3z+xVVVQDCCE8m1UKgLzv3gNK26tu/Hm/8havr/RTm62eW36+3gztcbdSjKwsOxt/3q+cizy/vFEpWq8qjawEEEIosEIBUAjHrOY88fKyUbVSiTzf/M99J/J8LTh2qHvyMee/jHV8qCIhQWqNpurPriOGpz4/DWcCBAGFVYMIITyXFQqA0ioXFy2Sn6BA/zxff+BIrMrtadW4zA13qDNScKAvLRopdZxw4Mhp5Tzk+eVNgfwhFMif57o3W2nVAEIIz+XyBUDpkhFKNz+o2Ag2qaP8JpdnTRXvrfqz64jhyc+vTJTaZxfFoTMhhGezQgGgNB1a9Uv0/AW1iXA1Kip/ief93pXM/dl1xPDk56davALKEwmEEJ7LCgWA0jhmacUCICExRen60iXClK5XundxtXsrHkgDyPNTUSZKeQjf+HWTQgi3ZYUCQGl/1mKRSjsIE6/YgIWF+CldryI8NO9zHwDiE9R+dpDnp6JEsQJK1yMFgBBCgRWOA1b6EitUIFRXHi5HdUe71LR05RzS0jKUrvfzVd+Vz1UVVP/s6jncwESqp6mpnkZo9v11WLzocwb2f9bsNJzqg8lTade+g9lpuDyX7wEomF/tSzRU8VjcuIQ0peuFea7EpypdHxqi9tnRULxKD4Bg61Z923q7ii1bNpmdgltw/QKggNpSKpVz3QGOnbiidL0wz7GTan93oSGBStcXVF8GqDyGIFzf1s2eVwB44s9sBCsUAMEqFxfIp/YlWqig2lvYzgPnla4X5tm5X+3vTvWzo2EIwLiTk4RLOHXqJDEx+k72dBUxMdGcPKm+kZmns0IBoDQLzN9fbTe328oVVbp+7c/yIXRVa36OUbpe9bMTGKA8AVJtFqNweVs8+E1465YtZqfg8qxQACh9ifkrnqtesVwxpeu/XXeUhCT1yXTCuRKT0/l+w3GlGJXKq312VD+7KBbPwvV58li4J8590M0KBYDSl5if4pfo7Yp7sickpbPouwNKMYTzLfhmv3LhpnIGBaj3XiE9AB7Pk8fCt2zy3OJHF9cvAHzVCoCGdSths6kdqvbejN9Iz8hSiiGcJzUtk3dn/KoUw8vLRsO6lZViqH52kQLAo3nq+H+2mJhoTp1SO4rc01mhADA1h4iCYdyu+CZ3OOYy78/eoSkjYbQJs7Zz7GScUowaVUspz+L39lb+6KudwyxcmieP/2eTZ6DGCgWA0nZqaelqG9EANGtcXTnGyMlb2fq7+uE6wlibt8fy1pRflOM0a1RNOYaGz676Vo7CKex2O6+/OoIxb79FUlKSlpgyBq5vDkRSUhKjR73Jq6+8hN3uOXW16xcAijvRAXRqU185RmpaJm2f/4YTZ9QP2BHGiDkdT/sBK0hLz1SO1elxDZ+ZVOXJo+qHOQjD2e12Xn3lJWZ8/BGTP5hIg3q1+WLxIuW4njz+n+1nDSsBVv34PY3vrceUyR8wc8bHvPjCYLKyPGNI1woFgNKXmI4egFo1ylC1otowAMDZC0k81Gu5FAEWFHM6nod6LefsBfW3r+pVoqhRVekQSwBS1YtXta0MheHsdjuvjBjOp5/M+Pv/O3P6NAOe70fHDm05cvhwnuKeOnWS6OjjmrJ0XdHRx/M8D+DwoUN0aNeGbk92/r89BT6bP5dXXh7uET0BLl8ApKToWYL3dKfGWuLsOXSBOm0XynCAhWzeHkuddgvZe1jPvu26PivSA+Deshv/WTM/ue7vr1+3lqaN783TsICsgf9HbucBJCYmMnrUm9zXpCEbN6y/7p+ZPWsmI14a5vZFgBUKAKUhgIuXE7Qk0avrfTq2ZgUcPQH3d1/C2Bm/auluFnmTlp7JmOnbaPbUUs5pePMHx6TRHl2aaol1OU45J5kDYFG3avyzpaenMfmDiTSsX4cV33yd4/ievP7/33IzF+Lrr5bTsEEdpkz+gPT0m5/j4glFgBUKAKW3mIuX9BQAIcEB9O/ZXEsscMwJGDFhM7e3mssnX/xJYrJsFuQsCUnpzFi8m6ot5/DqxC1ai7CBvVsQHKRn9d2Fi8pDRWpLGYQhctr4Xys29hS9ejzFE+0fz9GwgIz//yMnz+LwoUO0b9uaPr2e4XRsbI5jz541k1dedt8iwArHASv1y168nKgrD/r3bMGUT3/k3Hl936tHT1yhz2s/8cI762nRqAxN7inJHZUjKF08jHxh/h59HK4OaemZXI5L5fipOH7fe461v5xg5frjhhRcRYvk47lnHtQWT0Pv1VkdeQh98tL4X2vD+nU0bXwvvfv2Y+CgIQQF/fe4h9hTp2T8/xrZ8wCKF//vPK7ExETenzCOGdM/uuUb/43M+nQmAKPeHqu8Z4zVWKEAyHk5dh0a3qL+li88iHdf70z356dpi5ktISmdL1Ye5IuVB7XHVmEr3NHU+/tUnmjq/XNj3BtdCAtVOwHwWhcuKhcAZ3TkYabYs3rmZVjh/qqNf7b09DQ+nDSRZUu+4I03R/HQw4/83+9v2aL+9n/8y/KUilTeiVKL6DPplG6dt8mQ2bZu2ULbdu3/7//7+qvljHzj1Vy98d+IuxYBVhgCUJotd+rMJV15ANC1/b3KO7wJ99OkQVU6tqmnNebps8qfXekBsAhdjf+1bjQsoDr+X6aYr2Uaf4BSkb6UKaaWz7XPJK/d/bcy61P3Gw6wQgGg9DcUfeIvXXkAYLPZmDelHwU0TQgUri9/vmBmTuylvfI/fkL5KGmX7wFwB9nr/HU2/tdyDAs04NVXXiIhIUF5/L9JTaUT2A3R6E61k61/3rKF5ORkxr83lvubNmLTxg2aMvt/sz6dyYsvDHabIsD1C4CTyl+i/xFVohAzJvR0q64ekTc2m43Zk/pSJqqw9tjRJ5WLV+kBMFl243/tOn8jpKenM3PGx9xb/x7l8f+Gio2tERorFiXHjx+j3j21GD/uXdLSjN0e47P5c3llhHvsE2CFOQBKQwDR6m9R19WmVW1efO5hxk7O+dIc4X5eHvgYjzSvZUjs4zHKBYCchGIiZzX+1zp7Rr3Tp3FNKxYA6jmdPeu8etio3h5ns0IPwIlb/5GbXBx7gdQ0Y5bYjXnlCbq2b2hIbGF93Z9oxFvD2xkSOy0tgxOxShPQ7IC1ZpR6EDMafx2sNv6frVSkL6WLWi+vm3GHIsAKBcBp4HJeL87IyGT/IX0TPa5ls9n45P1ehr0BCut6tPldhg4DHTx6mnS1/QlOA7LntAlctfEH9a52I1mxZ8LdWaEAANincvGe/cb1hPr6erNs1mB6dGli2D2EtXRt35AvZg7Ex8e4PRp271Xq+AJ5+zeF3W7ntVdfdsnGH6zdyDa607rFibuySgGwV+XiP/crf5nelLe3Fx+P78mw5x+RiYFuzGazMWJQa2ZP7oOvwRs07TmgXLRKAeBk2W/+M2d8bHYqeaY6295ITWpZNzd35RYFwK69MbryuCGbzcY7r3Zk2ezB5M8nlaq7KZA/hOVzhjDqpfZOKfJ27Y1WDSEFgBO5crd/NquO/2dzxXkArs4tCoBfth922pKMx1rcxY7VY2hUTzYLchdNGlRlx+oxTp3r8ct2tZ3PgD915CFuzdW7/bNZefw/m5WHKNyRWxQA5y/Gc+io8/ZEKV0ygrVfvsq8qc8SWTif0+4r9CpaJB+fTXuONcteoVSJQk6775HjZ1XPm7ADv2lKR9xEduPvyt3+2VyhcXWFIsWdWKUAiAHOqQT4efshTankjM1mo0vbBuzfMp63hrenUIFQp95f5F1EwTBGv9yBA1sn0Onx+k6//9bflD+rx1E8REvcmjs1/mDt8f9srpCjO7FKAQCwReniX80ZEg0PC+KVwa05tn0S77/VlWqVS5qSh7i16lWimDiqK8e2T+LlgY8RGqLvYJ/c2LJN+bMqb/8GM7LxL1bIhw+HRFKisPP2YbP6+H+20kWdOw8gqogvU4dGUqyQFfbEcz4r/dRbgcfyevHqDXs0ppJ7IcEBDOzdgoG9W/DHn9EsWLqZVet3sWtvDFlZrr9lpCvy8rJRvUoUDzSuTqfH61OjaimzUwJg9Ubl4ftfdeQhrs/oxn/NlFJUjPKjW6tw3px5nomLLpKeYex3hCt1rTeuGcTsb68Yeg8/XxtDOhZgRPdCBAd60fSuYJo+G03s+QxD72s1VlrT1gDYqBLgyK8fULaU/j3bVZy/GM/Gn/ezZ/9J9h06xcEjp7l4KYHLcUkkJKaQluZZHzjd/Px8CAkOIF9YEAXyh1CxfDEqlS9G1UolaFi3MgUtdqjTsZhzlL1rgGqYpsBaDemAYz5Bnpl9nK9uzmr8r7XveCrPjz/L6t8Std8z25zXitG1Rbhh8XWa/e0VGzb8XgAAIABJREFUnhplzOZuAA/cE8ykwZH/+Xs4EJNmRhFgahtspQLAH7hy9T/zZNp7z9Cn2/36MnIBtsIdla63n1vo0vd3NR/N+Ym+Q2eanYZwsiIFfFjzYRRVytz46+2bTQk8N+4MMWf1b21+/MvyLjEEAHAsNp2yjyuvkvmPYoV8GNOv8E0LoUMn0mjybDSn/nJaEWBqG2ylOQCpwO8qAX5Ys1NTKkIY48e1u8xOQThZsUI+rJ9W6qaNP8DDDULYs7AsQzsXxNdHX7vgKuP/2coU0zsPwM/XxvCuBTm4uNwte0EqlPRj9YelPGZOgFUKgBLAy0BplSCr1u8mKdnYoyCFyKuk5FR+XCcFgCe5Ubf/jYQEevHuc4XZOa8MTe/SM27vSuP/2XStBmhWO5hd88sypm9hggNz1txVjPJjzRTPKALMLgAaA9/iWNY0GohUCZaYlMp3P/2hnpUQBli5eieJSVKgeorcNv7Xqlzan9WTo/j8reIUj8h7QxRZ0IeOzcLyfL1ZOj8YTlGFBrhkEV++GF2cHz+IytPzrxjlx1oPKALMKgCa41j2txZoCWjbeH3JN7/oCiWEVvLZ9BzFCvmwNo+N/7U63B/G/kXleCGXwwKNawaxaFRxYpaXp1lt1+sBaFY7mOgvy7N4dHGa1Aoip7tzZ3f371tYlrZN1Qqf25xTBHjUJMDKwAQcBYAhQoIDOLdvOoEBav/wXIXZk/DMvr+rSE5Jo3Dl3iQkppidijBYduN/m2Lj/297j6Xy/ISzrLnBaoGwYC+6tginb5v8t5xv4Gr2HU9l2rLLzF15mSsJWdf9M/ffHcyHL/x3dr+qgzGOiYEGrQ6YBAxEcTVOXjmrB8AfeBvYhYGNP0BCYgrLv5N9UoS1LP/uN2n8PYBRjT9AlTKOYYGFb/7/sECNCgF8NCySU99UYPKQSLdr/MExJDJpcBFOfV2Bj4cX5Y4KAX//XskiviweXZxVk/LW3X8rBvcE9AcmYlJPgDNuegcwB6juhHsBcH/Daqxa8rKzbmcqs9/Azb6/q3ig3dusWr/b7DSEgYxs/P8tPimLacsu0aBGEPWqmbOjpdm2/pnM5p1J9G2TP8cT/FS4Y0+A0QXAk8B0wKmfUJvNxuFtEy23KZARzG6Azb6/K4g+eZ6yd/WXHSHdWE7W+QvXZ/A+AdOBvjixCDCqbPIDPgLm4uTGHxy7ec1ZtMHZtxXiumYtXCeNvxsrVsiHDTlY5y9cX4WSfqwxbp+A3jh5OMCIAiAIWI7jhzHNjHmrZZtdYbr09ExmfqZr115hNUUK+LBqUpRTuv2FNdwW5ce6qaWUlmfeRH9gGk4qAnQXAPmAVUALzXFz7fTZyyz6aqvZaQgP9/nyLZyMvWh2GsIA8ubvuZzQE/A+TigCdBYAQcA3QD2NMZWMm7LC7BSEh5sw7VuzUxAGkDd/YXBPwACc0BOgqwDww9Ht30BTPC127Y1h3ea9ZqchPNSajXv4489os9MQmsmbv8jm6j0BugqAT4BmmmJpNfr95WanIDzU6Ilfmp2C0MyZS/2EazB4n4ABGFgE6CgA+uNY7mdJP23YzYat+8xOQ3iYzdsOsGbjHrPTEBpJt7+4EVcdDlDNtj4wTkciRho5bimrl75idhrCg7z6zhfKMYILF6XLqj14+UqDkyN2O5vGvMju+dO0h/akN/+MTDsHY9L482gqe4+lEns+gzMXMjh3KZPY8xkkJP2zFW9KWhbJqXYKhHlTMNzxK/u/VyjhR6XSflQu7c9tJf3w8zV123vDZQ8HGLRZUG8gBRiExn0CVAqAEBzr/A05aNrm5UXJBs0IKlSE/cvmKsVas3EP67fso1G9ypqyE+LG1m3ey9pN6m//t3fqJY1/Tknjn2fnLmWw5rckVv+WyG/7Uth7PJW09Ny1MRfjMrkYl8mhE9f/fR9vG+VL+FK3WhCN7gyiQY1AyhV3v+eZPRxgUBEw4Op/aisCVEqyaUAfHUlcyzcwmCodnub2jr0IK1mGtIR45t1XkbT4OKW4d99Zjp9XvoWXl3tVoWbvxGf2/a0mK8tO7QdHsH3nMaU4PgFBPLlmPwH5CmjKzI1J459r2/Yms3h1HKu2JbL7SCp2E/apKlnEl8cahvJ4k1Aa1AjC2+zD6TUyeNvgD9BUBOT1kdfHgI1+SjVuQYdvfqXei2MIK1kGAL+QUKq2f0Y59q+/H+GzpZuU4whxM3MXb1Bu/AEqPtpJGv8c2vLuS9L458D+6DRen/EXFdod4Z5njjN+wUV2HTan8Qc4cTadyV9cpHG/aIo9dIjnxp1h1+FUc5LRzAkTA9/TESgvBYAXmrcrDCxYmAc/WEDLqV8QWizqP79frUtfLV2hL4/+nKRk9/iACetJSExhxNuLlOPYvLyo3vVZDRl5Bi8//cvx3KXxz8qCFZsTaPpcNJWfOMKbn57n8Mk0s9P6j3OXMpiy9BI1njxK/V7HmbfyCqm5HIawGoOLAC1dC3kpALoAd+m4OUCBClV4fNE6yjZ75IZ/JrhIMW57qL3yvU7GXuSdSV8rxxHiet6euJzYM5eU45Rv8Tj5ylTQkJFnqNXnRUIiS2iL5w6Nf0qanY+XX6ZqpyM8/MIJ1m5PMjulHNuyO5mub8ZS7vHDfLjkEilprlsIGFQEnARG6QiU2wLAG3hVx40BSta/j9bzf7ruW/+/1ez9Il4+6vMNx07+mr0HTirHEeJaf+4/wbip6jtP2ry9uavvSxoy8hy+gcHUG/6Otnhv9Ihw2cY/Kwvmf3+FSh2O0HvsafZHW+9tP6dO/ZXB8+PPUL6toxBIz3DNQuC2KD9ee6aQzpCDgQQdgXJbALQDyuu4cdS9D9Dyo6X4hYbl6M+HR5Wl4mOdle+blpZB7xc+kdPZhDZZWXZ6DZ5BenqmcqzyLdqSr+xtGrLyLOUeeIwS9ZpqiTVm7nmSU13v++GnXxO566ljPDkylugz6Wano012IVDjyWP89Gui2enkWlJKFmPmXNAV7idAfY3xVbktAIbpuGnBitV4YMJcvLxz1y1yV99heGsY79v0ywE+nrdaOY4QAB/N+Ymtvx1SjuN4+x+uISPPdO+I8VrmCh2LTeeduec1ZOQc5y5l0G7EKZr1j+H3gylmp2OYfcdTadY/hrYvn+TkOdcpcN6ec0FXQZYGPK8jULbcFAB3A3eo3jC4cFFaTvsC3+CQXF8bUrQkldt1V00BgGFvLuBYzDktsYTnOhp9juFv6VnKWPHRzjL2ryBfmQrU6K7n+/Hd+Rc4csr63ecLV8VRtdNRlqxRWybtSpaujada52N89sMVs1O5pUMn0hj3mba3//eB/bqCQe4KgO46bth41FSlCTt39RmGX0ioch5x8cl0fXYqmZlZt/7DQlxHRkYmT/abQnxCsnIs36Bg7hnwmoasPJuuCYEpaXYGvH9WQ0bGuHAlk9bDTtLptVOcv6w+9ORqLidk0uWNWNqPOMWFK9b9+Z8ff0bXaoYTaJr4d62cFgC+gNqOL0D5lm2JaqB2ZlBgwcLU6qNlJIJNvxzgnUlfaYklPM/bE5ez5deDWmLd2XMIQRGRWmJ5Mp0TAr/dnMBXG+K1xNJpx4EU7nrqGMstmJuzfbEmjprdjrF9v/WGPpati+eHX7TNWRiCpol/18ppAXAvkF/lRv6h4dQfPlYlxN+qP9mP8KiyWmKNHLeUbTuOaIklPMfW3w7x1gQ9p/2FFC1JjW5ah/Y8ms4JgYM+OGupCYFzvrtCg97HOX7adcbAjRZzNp17+zj2DrCKpJQsBk3U1oOkdeLftXJaALRUvVGN7s8TVKiIahgAvHz9qDdsjJZY6emZtOsxkfMXpZoWOXPufBzte0wkI0NP12PdF0bhExCoJZZw0DkhcIwFJgRmZcHAiWfp/laspQoSq0hOtdP1zVhemHyWLAuM6o6efYGYs9ac+HetnBYALZRu4utHlfZPq4T4j9JNWhF17wNaYsWcPE+n3pNlPoC4pczMLDr2nsTJ2Ita4pVscD/lWzyuJZb4h84Jge/Nv2Dq7nkZmY7G7YNFej5z7mz8got0eyvW1D0DDsakMX6BdSf+XSsnBUA4UEnlJuWbtyGwYGGVENfV6I0P8A0K1hJr1frdvDbWkF4W4UZeHv05azaqn/QHjgN/Gr76vpZY4r/u6juM0OKllOOkpNl5btwZDRnlXmq6nQ6vnHKJGe9WMf/7K7QeftK0npKBE8/qmvinbce/G8lJAVAzh3/uhqp0UD/M53pCipak9oDXtcUb88FXLFy2RVs84V7mL9nEe1PUd/vLdvfzI/4+9Ero5xMQRL2hb2uJ9cMviU6fEJicaqfFoBiWrTNteDIB2Ijj9Ln+wGM4toEvDhS4+ssfx0tiKRzLxJsCPYFxwArguLOTBscEzodeOOH0bYSXro1n5VZtc/UGYcDEv2vl5ECfF1A4eSiwQCG6bTiKzcuYsx7tWVl82fl+zu7cpiWev58vq5a8zL11lDo9nMbs43jNvr+zrN+yjwfav01amp7jPQtVrsHji9fnejMskXsrej7Kic3qG3+VLurL3oXlCPQ3/kjxjEw7bYaf5JtNhn7//1sasAH4FvgROADomOhSHMdE8vuBRwGt++LezMMNQlg6pgS+Psb/nSUmZ1Gl41FdY/+rAD1j3DeRk1a5nMoNitdpbFjjD46T0xq/NQVv/wAt8VLT0mndbTwHj5zWEk+4vv2HYmnz1ARtjb+3fwBNx3wsjb+TNHh5nJYJgcdPO2dCoN0OPcecdlbjb8fR6HcFIoBmOE573Yuexh/gFPA50AOIBO4D5gDqG2jcwjebEuj+VqxTJgaOnn3eJSb+XSsnLXNplRsUrqbt4MAbKlC+MnUGv6kt3oVLCbTsOJbTZy9riylcU+yZS7TqNJaLl/R9GdcZNJKCt1XVFk/cXL4yFbjjqf5aYjljQuDwqeeY/a3hY/5JOLr2KwONgHmAM7YTzATW4NhYrgSOHuZYI2+44Mc4hk01dtfXAzFpjF+obZLmBBy9L4bLSQFw66P6bqJghSoql+dY9S59Kdngfm3xjhw/S7O2o2V5oAf760Iczdq9zdFofV8eJeo1pfqT/bTFEzlTs/dQQoqWVI5j9A6Bc1de4d352maQX08yjjf8csBAnNTQ3MBFYPzVXPoDhs20HPfZBeZ/b1xR9fz4M6TpmfgXi8ET/66VkwJAaQOg0BKlVS7POZuNpqM/IrCAvuGlPQdO0rzDGK7Euc5Z2kKPy1eSeLD9GK1HRwfkK0DTt6eDzfjxSPH/fAODqT9Mzw6B321JMGQXvt1HUun7rqGrDZYAFXBMLjNnWcP1pQCTgYo4CgJDdjnqOeY0v+7TP+qwZE0cq7Zp2/GvGLATmAk8CahXrTeRkwIgSOUGgfmdNt+DoIhIGr81VesX7Padx2jV6V0SEq231aQwRnxCMq06jeX33ce1xbR5edF0zMcEFy6qLabInbIPPEqx2vdqiTVo4lmSUvQNLMcnZdH25ZNaY17jCI69XNrhGI+3qjgcQwJ3Att1B09Jc0ysvBin7+yAxOQsBk/SPrxQDngamAvE4Pj7M6QgMLwA8Al07g5npZu0pGbPF7TG3LztAC2eeEeKAA8Qn5BMiyfGatvjP1vN3i9SqlFzrTFFzmWkJPHzhNc4s+NnLfGOn05nxlf65gj1HHOagzGGzC2Yh2N53vdGBDfIHqAu8Bb6JiICcPJchtZelunLL3NCz8S/mynLfwuCT3FM3FQaos9JAeCrdAMfpcvzpHb/V7XtEpht0y8HeLD9GC0nvwlrSkxK5eEu77F5m95h0RJ1m3B3v5e0xhQ5F73+ez5/+G5+/2QCWRn6vqzrV1d6N/rbkjVxLPpJ+/y7FBxj/F0xeC25QdKB13CsGPhLZ+DFq+O0nRtQr5opW3iXBZ7CsZIiGse8gcVALyBXG4sYtz7PRDYvL+4b+wmhxZSKo//Y8utBWnYcKz0Bbig+IZkH249h/ZZ9WuOGFoui2fg52Ly9tcYVt5Z4NpYfBnbmu75tiT8VrTX2XZUDuKuy+tLjS/GZ9Nc/qfAMUB/HLH9Xtx5Hb4DWf5jPTzjDyXPqxWCd2wO5o4KeJegKiuIY3pkOHL36axaO4u+m3LIAAMeEqwcnLcA3UM9Wwdk2/SLDAe4mu9tf95u/b3AIzT/8nIB8BbTGFTdnz8xk17ypLHyoJkd/NOa4775tlOZG/23o5HOcPq9nf4mrDgD1gB06g5rsCI6NhPTs9gZcSchi8Ad6xu77tMmnJY5GZXAss5xzqz/otgUAQESVO7h/3Cztb19SBLgPoxp/L28fHhg/h0KVqmuNK27u3J/bWdqhEZvHvEh6ojE93/lDvXni/jDlOOt/T+LTFVr3GtkJNACO6QxqERdwDAes0xXwC02z9zs9EE5okGs2pa6ZdS6UbtKS+sPHao8rRYDrM6rxB2gwYhxRDR/UHldcX1p8HBtHDWbZE034a+8fht6rW8twggLUvjrtdnjxw3PY9W1Vfwh4EDD/7GLjJACPoLEnoP8E9fX7oUFedH4wXFNGzuX2BQBAtc59qN71We1xpQhwXUY2/jWe6k/VJ3pojyuu7/DKpSx8qCZ/LvgYu8F7vtps0Lu1evf/8g3xbNurbULxSRz7xhu3Q5F1xONY0rhXR7D90Wl88rV6L0yf1pYbBsgRjygAAOq9OIbyLdtqjytFgOsxsvG/7ZGO1B3itI28PFrciWOs6PUYq4Z0I+kv5+xr06RWMJVKqZ0rkJkFr36sbWJ7Co4Ddo7rCugCLuL4mbXsvTtm7nnl43trVAig7u2mrAhQ4jGnkdi8vLjvnRlkJCdzfO23WmNnFwErPx9OSLDpM0LFTRjZ+Jdt9ghNRk8z9PArq8hISSYzLdWp98xMTSEjxfHWfOjbxez4eNzf/9sZ/HxtPNUqnKOn0snItBOflLfehnU7kthzVNuzexb3mvCXU4eBJ4CVgNIkr5PnMpjx1WWea6vWs9OnTX62/ulay8RzsmWeUmnUd6+1lqBmpqXyXb92nNyyRnvsBvdUdHoRYPZxvGbfPzeMbPxLNrifllMW5/rUuWlVQpTuq/LvKyszg+nVXLPrUgAwA8fab082ChihGqR4hA9Hl5bHzzfvu8gmp9op8cghrTsNanDTH8j9X1X+xdvPn+aTF1K0Zl3tsWU4wLqMbPyL3VWf5pMWaDly1plsOar/hUUdBwabnYQFjAR+Uw1y6q8Mlq1TO98h0N/GvNeL0bVFOFFFnL8BXl54XAEAjoNBWk3/ksiadbTHliLAeoxs/IvWrEvLj5bhE6BnVzghcqgPrrnDn27pOHbFU97VZ8rSS8rJtKwXwpzXihG9vDxHl5Zn1ivF6NYynFKR1iwIPLIAAMcmLQ9NXy5FgJszuvFv9fFyfIP0bjblNHIqoauaB/xgdhIW8icwSTXIpp1J7Dyk7zu7TDFfurcKZ/arxTj+ZXmOLbNeQeCxBQBIEeDupPEXbigZkIMl/mskGo441rEk8EZKF/1vQTD7VUdBULqoOQWBRxcAcLUImPGVtmNCryUHCJknMSmVR54cZ0jjH1mzDq2mf+nyjb9NegBc0RSsfaSvWeKBd1SDLFkbT6axW0n8rXRRX7q1dBQEx5aVJ/abCiweXZxej+WjShl/p+Tg8QUAOOYEtJzyhSE9AXKAkPPFJyTTvMMY1m3WslfI/ylasy4PffwVvsFqs/eFyIN4QP+2pu5jOo6T8fLszIUMtuxK0pRO7hQt5EO7pmFMH1aUPQvKcvzL8obfUwqAq2Q4wD3EJyTTsuNYNv0i3f63JD0ArmYG7r3Vr6oUYKJqkC/WqK0G0MUZ8wSkALiGFAGuTRp/4cbswMdmJ+ECPsUxTyLPVmy2RgHgDFIA/IsUAa5JGv88kl4AV7EGx1G/4uYuAItUAhyLTSfmrPKqQpcgBcB1SBHgWqTxFx5A3v5z7jPVAOt2mDMPwNmkALgBWR3gGrJn+xvR+LvLbH/h8uKAb8xOwoWsBc6pBFgvBYCQ1QHWJrP91clSQJewBMVxbQ+TiWLB9PMez3jcUgDcgvQEWJO8+QsPMt/sBFzQWpWLD8akkZKmdkSwK5ACIAd8A4NpOW2JIUXAll8P0rzDO1IE5EJiUioPdX7XkDf/yJp1eGj6crd/8/+b9ABYXSywwewkXJDSca8ZmXb2HnPucddm8DE7AVeRPRzwbe/WnN6xVWvs7OEAZx8l7IoSElNo8cQ7MuFPExu2PJ/37eXrh2+gSYcg2Wz4h5l3lLFfcCg2b6Vj6AHISElOuHRk/80+zItxdGmL3DkNRAOl8hpg3/FUalZ07+/jnJT/Sv0gKueVW1F6ciLf9W1L7LaNZqciNPK4N39hEbZp06oE9zM7Czf1A/BAXi8e1TuCEd0LaUwn92x19ymHuNlvyhBALhk5HCDMIY2/MIsN+3Gzc3BjSt2E0Wfcfy8AKQDyIHs4oGjNumanIhR5ymx/YU1Z2GPMzsGNKRUAJ85m6MrDsqQAyCPf4BBaTf9SigAX5olj/sJa7DbvaLNzcGMHVS6+cMX9p15IAaDANziEVjOWy3CAC5KlfsIK7BlpShvWiJv6S+XiS/FSAIhbkOEA1yPd/sIyvH09Y8s5cySqXHw5QQoAkQPSE+A65M1fWIp/qhQAxlF6tukZshGQyCFZHWB9MttfWM6l/FIAGEepByDD/TsApADQSYYDrEu6/YXwOGkqF2dID4DILRkOsB7p9heWlf+SSVspegSlrSID/N1/m2wpAAwgwwHWId3+wtJS/aUAME5+lYuDA9y/eXT/n9AkvoHBtJy6xOw0PJ50+wtLy0yXAsA4agVAoPs3j+7/E5pIupzNJ38HwspsPn6Fzc7BjSkVAIXC1Q97sjopAIQQwiQ2e2aeT6sTt1Re5eJiEe5/WK4UAEIIYRIbNikAjHO7ysVFCkgBIIQQwjD20mZn4MZqqFxcpqivrjwsy/1LHBe3+OvVZqdgqvaP3Gd2CuIWki+c49QvGzi7cxuXjh0k/uRxki+eJz05iax0paXYnqDP1V83MgkY4KRc3Ik3UFklQMVS/ppSsS4pAIQQuZZ65RKHVizmwNcLObf7N7PTcWcdgMGAB+xLp1VVQGmFRcUoP02pWJcUAEKIHEs8d5qdsz5g7+JZpCcr7bQqcqYIcD/wg9mJuJhWKhcHB3pRroQUAEIIQVZmBn8u+Jhtk94kPTHB7HQ8TUekAMith1UurlkxAG8PmCEnBYAQ4qauRB/hx8FdOb9vp9mpeKo2QF8g2exEXEQEUFslwF2VAjSlYm0eUOMIIfLq2JoVLGnXQBp/c4UCj5mdhAt5CMckwDxrUMMzNmiUAkAIcV0Hln/GjwO6kJYQb3YqAnqYnYALudmqilvy9oImtaQAEEJ4qH1LZrNmRB+yMjPMTkU4NAEqmJ2EC7gbxe7/u6sEkj/U/bcBBikAhBD/cmzNCtaPHAB29z8P3YXYgGfNTsIFKD+jVvU85/AwKQCEEH+7En2ENcN7Ys+UZecW1BPHskBxfUVw7JugpG3TMA2pqIs+k274PWQVgBACgKyMdH4c3FXG/K0rCHgBGGp2Ihb1BqA0fb9qWX8qlTJn/X/0mXTW7Uhi3Y5E1v+exLFYKQCEEE6ya+4Ume1vff2AD4FosxOxmKpomCjZ5cFwDankzLUN/rodSRw/bXyD/29SAAghSDx3mt+mjDE7DXFrQcB4oK3ZiVjMOBTbM18fG91bGVcAWKHB/zcpAIQQ7Jz1gWzt6zoeB5oBq8xOxCIeApqrBmlVL4TIgvqaxPikLL7aEM9Pvzq69K3Q4P+bFABCeLjUK5fYu3iW2WmI3PkEx3G3l81OxGSFgRk6AvVvX0A5ht0O639PYtaKyyxdF09icpaGzIwjBYAQHu7QisXy9u96ooApQGezEzGRDZgFRKoGqlUpQHnzn5Q0O3c8eZQDMa5zBLblC4BpVdTWZPbda+7BJV6+fkpnomdkZODjY/m/JkOkp6t1mXn5uv9pXjoc+GqBtlgFKlShctvulKjbhNDiUfgGBmuLnS0rPY0/Zn3A9o/eJSPFudvjLxpVnPb3qS0T++yHK3R5I1ZHOp2AtTh6AzxRf6CljkBDOxdUjrF4dZxLNf4g+wAYzjdQrapMTk7SlInrSVH82X2D9Dc+7ib5wjnO7dmhHMfL1497X5lA+2Vbqf5kPwqUr2xI4599r5q9htLhq21ENWhmyD1uZNqyS8oxOjYLp2pZfw3ZAI5egAa6grmQhsBYHYGqlfOnnYa1/9O/VP9sOJsUAAZT/RJMSfbcA8CSFX92oxogd3Lqlw3KO/55+frRavoybu/UC5u387ZQDStZhlYff8kDE+YSXLioU+65/vck9h1PVYrh5QVv9ozQlBF+wFKgrK6ALqAG8DWgpYoa1TsCL8WWcNfhVLbsdr3vaikADOYTrNYIxcdd0ZSJ61H92aUH4NbO7tymHKP+sHcoUaexejJ5VK55G55YsYNqnfsYXoDY7TBtmfq8u9aNQqldJVBDRoBjItxqoKSugBZWFlgJaFmv16BGEI/cG6oc5yMXfPsHKQAM5x+i9jk9HXtSUyauJ/aU2s/uF5ZPUybu6/KxQ0rXF6hQhaodntGUTd75hYTSYMQ4Hl+4loiqdxp6r7krLyvP7rbZYMoLkXjr+wYujaMIKKYtovWUBH4AtHT3eHvB5CHqOyvHJ2Ux/3vXfFGTAsBgYSVLK11/6mSMnkRcUOwptZ89rERpPYm4scvRh5Wur9y2u1O7/W8l4vaaPP75Ohq8/B5+IepvdtdzJSGLBT/GKce5q3IAfVrn15DR3yoAm4GKOoNaRHVgK1BeV8C+bfJzRwWlnYMBWPDjFeKTrL3c70akADBYWEm1obkTMZ674+eJmONK14dHedKwaN6kxau9uZSs11RTJvrYvL2p1qUvT6zYQbkHWxtyDx2TAQFG9YnQuvkMjp6AzUA9nUFc5LlnAAAgAElEQVRNdj+wESiuK2DJIr6M6l1YS6yPNAwJaXYMmA10u9UflALAYGElyyhdv2/PLuweeCyr3W5n35+7lGKoPntPkJaotkw2JLKEpkz0Cy5clAfen0er6cu09wb9fjCFn/9Un/SVL8SbGS8VxWbTkNQ/CuJYHvic1qjm6AN8C2g7os9mg5kvFyU8RL35+/nPZP44lKIhKyVHceyH0A0ohWOexFPA3FtdKAWAwcJLlVO6Pu7KZeU3YVd0/NgR4uPVulmlB+DWVPaoAPANtv7Z6VH3PkCHr3+lZq8X8PLx1RZ3q4YCAOCh+iH0a6N1KAAcqwMmAwsBV5wMUxjHTP9pOH4Wbfq0zk+z2nomCJs08/8I8CnQFceGUOWAp3E0+LkaN5UCwGCFKlfHy1uti2/X79s1ZeM6dv2h9jN7+fhSqHJ1TdkIV+cTEMg9A98gsmYdLfFKRfrS+zF97ep7zxfhdn17A1zrCWAP8KgRwQ3yMLD76n9qVaNCAOP7q0/8y9b7sXxEFdFXVN7Avxv88sAzwDzghEpgKQAM5hsYTEHFhmjThtWasnEdm9ar/cwRVe7AJ0BtEybhXo78uJzYbRu1xJowoAhBAfq+PgP9bSweXVxLt/R1FAOWA0twvC1aVUVgGY43fz0D9NcID/FiydvFCfTXN94SHOjFhAH6CoqrDgMzgSdxrHzQ1uD/mxQAThB5xz1K1x89fNCjhgGijx8l+tgRpRi63vSEe0hPTmTLO8O1xHrwnmDaNNa/wqByaX8WjCyuc2ngvz0O7AUmYkADq6AIMBX4EzBk1qaXF8x5tRjlS+jfHvzxJqE8cI+2PUfOADWBHsB8wNB14FIAOEHRmnWVY6z9aaWGTFzD2lXqP2vknerPXLiP7R+9S8IZ9e9Sf18bk4conz1zQy3rhTD2We1vlNfyAwYA0cDHQCUjb3YL1XE0/IeBvhh4Ns34/kV4tKExy0IBJg+OxN9XS89CJPC6jkA5IQWAE5So11T5YJqfvv9WeVKcK4i7cpnVq75TiuHt50+Juk00ZSRc3eWjB9k5e7KWWEM6FaRCSWMPmRrSqQDPtdU+KfDfAoCeOHoE1uGYRKZtpv1NhOLo2t4M7MTR8Bs6k7R/+wIM7KB+1O/N3Bblx+CO2u7RH6iqK9jNSAHgBP5h+ZS3Sk1JSWblN8v0JGRh3369lNQUtWU1Jeo1NWwTGOF6Nr79gvJqB3BM/BvRXf3UuJyYNDiSpx5yyuR9G9AIx5jzGRzb7A4EKl/9PR1uB4bi2KnwPI7Z6k7Zp6Bby3De1z9Gf10juhfSNSHQF8cKDsN55jmzJij7wKPEbPxRKcbKb77kwVaPER7uiqt6bu3SpQt8/+1y5Thlm7nShGdhpCM/fMnJLWu0xHp/oN6Jfzdjs8GMl4qSmJzF4tVO6/kLBJpf/QVwBdgBbMcxEz0Gx9DBJSAZiMPRhoRd/ZUPxx4Et+F4g83+Zezr9w10uD+MmSOKKR/0k1PZEwLbvqxl2L4J0BHHMk7D5KTCU9qFpu9etY1G3EXK5YvMaViOrAy1M+4bNX2AZwcO05SVtUwa/7by7H8vH1+6bzyKf7jhXah/S75wjlO/bODszm1cOnaQ+JPHSb54nvSrxxn7BgYRWKAQoSVKk79sRYrUqE3xexoSWEDbiXB5Nq2KWu+rlf99pycn8nmrWlrG/pvXCWHl+84/aycj006Pt08z5zvX3GveLF1bhDNzRFF8vPXusJQTDw6M4cdfEnWEisUxRyNeR7DrkR4AJwnIV4Ay9z3EkR++VIqzYe0qmjZrQeWq7rXGfc/uP9i8Qf1NrWyzR5zS+KdeucShFYs58PVCzu3+7eZ/Nj2N1LjLXD5+mBObfgKmgM1GkWp3cdsjHanQqp1TCxZPsX3aWG0T/yYNdk438r/5eNuY9UoxIvL7MO6zC6bk4GoGdCjA+wOK6N5dMccmD46kepejpKYr7+BaDMeEwBfUs7o+mQPgRNW69FWOYbfbmTJxLImKW7haSUJ8PFM/eFfLlsc6nvHNJJ47zZaxw5nXtBIbRw+5ZeN/Q3Y7Z3f9ysZRg5l3XyW2vPsSSX+d0ZusB7t89CA753yoJdYLnY2f+HczNhu891xhxj1fxGnd2a7I2wvGPV+EiQPNa/zBkAmBVXQF+zf5ODlR0Vr1tBxVeu7sGT58/x23OCPAbrczbfJ7/HXurHKsiCp3EHmnMev/szIz2DVvKgtb3cnOOR+Snqyliw+A9KREds6ezGcPVufXKW9rmbDm6Ta/M0zLcyxZxJeXujpn4t+tDOlUgJ8mlaJwfum4/beQQC+WjinBkE6mTDf4j1eeKkTpotomBH6EvgmZ/0cKACe7vVMvLXG2b9vK18sWaYllpi+/WMCvP2/WEqt6N2POPrkSfYSl7RuxecyLpBvY85KRksRvU95mWaf7iDtxzLD7uLsjP3xJzKZVWmJ9MKgIwYHW+ZpsUiuIrTNKU0PDMbbuonp5f36dVcbQdf65FRTgpXPL4XuBDrqCXcs6n2wPcdsjHclXWs+R1gvmfsL6NWorC8y0bvUPLPpslpZY+ctWpELLdlpiXevYmhUsadeA8/t2ao99I3/t+Z0v2tbn+Fq1/RA8UXpSIlvGvqQlVvM6IbRuZJ1GJVvZ4r5snVGaAR0KmNrVbQV9Wufnl5llqFTKvCGaG2nTOJQH9e0QOA7HHgpaSQHgZF7ePtQeoGejJ7vdzkeTx/Pbti1a4jnTr79sZvqH47UNY9wz8HVs3t5aYmXbt2Q2PwzoTFqCYZNwbygtPo4f+ndi/7JbnugprrH9I9ef+JcTgf42Jg4swurJpSgVafhhNJZTorAP300oybQXIwnws24VNEnfDoHFgdd0BLqWFAAmKPfAYxS+vZaWWJmZGYwfM9KlegLWrf6BCe+MJDMzU0u8IjVqU+Y+vQeH7Vsym3WvP49dU455kZWZwdpXn5UiIIfcaeJfTjWpFcSu+WXp376AKUvenM3LC3o/lp8/PytHi7rWP4r6tig/hnTSNodkAJonBEoBYAabjXrDxqCr/y4zM4OpH7zLV0s/t/TEQLvdzrLFnzFt0nvaGn+blxf1hr6t7VmCo9t//cgBYIVnabez/vX+RK/znLMg8mrj6CHadvx7uZs1Jv7lRFiwFx8MKsIfc8vQ9C5tXc6WU796INtmluGjYZFGnZpoiBHdC1p2h0DXeYpupmitelTt8Iy2eHa7nc/mzGDcmNdJNKHL+lYS4uN5b/RrfD7/U61FStUnemg9+e9K9BHWDO9p6pv/v2VlZvDTsGdkYuBNHPnhS05uXasl1kvdCjptxz+dqpb1Z/XkKL56twR33uY+kwSrlPFn8ejibPyoNLUqud7PFRTgxcv6tpBuCjyhK5jsBGii9MQEPn/kbhJOaz3imYjCkTw78EWq3F5Da9y82rP7D6Z+8K6WpX7XCi0WRYevf8U3SM9bT1ZGOks7NHbqhL/ciLi9Jm0WrsHLW98yMHfYCTA9KZHPW9Uk4ewpLfGKFfJh3dRSLjEEcCN2O3y9MZ6RM8/z+0G1szXMUrWsP8OfLEjHB8KNPCLZcIdPptG4XzSn/srQFfIUjrMalN/0XPixuj7f4BAajZyktfsa4K9zZxg5YgiTJ4zh8qWLWmPnxqVLF5g0/m1GjhiivfHHZqPxmx9qa/wBds2dYtnGH+CvP3ewe/5HZqdhOds/Gqut8QeIPZ9B437RHDrhuvsx2GzwaMNQdswpw9oppWh/Xxi+PtafI+DlBS3qhvDDxCh2zy9Ll+bS+F+HtgmBsqOEyaIaNOOOpwbwx6cTtca12+1sXPcT27dtpcXDrWn5cBtCw8K13uNG4q5c5tuvl/L9iuUkX90PX7c7nxlEiXpNtcVLPHea36aM0RbPKL9+OIoKrdoRVMi6M9SdLStT65cr8E8R4Oo9AQCNawbRuGYQp89nMOvbyyz6KY5dh1PNTuv/lC/hR7eW4XRrGU5JPePlpjOo8c+mZcmTDAFYQFZmBit6PMqpX9Ybdo+AgEDue6AlTZq1IKpUGUPuEX38KGtXrWT1qu+Uj/S9mRJ1GvPQjK+0LvvbMna4thnkRrvj6YHUfWGUlljuMASA3c7md4axa95U7aHdYTjgevZHp/HF6ji+3hTP7wdSyMxy7v1tNqhRPoBHG4bwWKNQ7nCzjY0Mbvwn41gRoDyZSgoAi0i++BdL2t6rZQ3zrZQuW54GDZtS/Y5alCpTDlsehyDsdjvRx46w84/tbFq/muhjRzRn+l8hkSVou2QTgQUKaYuZeuUS85pW0rq9r5F8g4J5cs0B/MPUj4V2iwIApAhQcDkhk/U7kli7I4mtu5P582gqSSl6KwJ/XxvVyvtTu0ogje4MokmtYCLy6d23wypcpfEHKQAs5fz+XXzVrTlp8U47/5vQsHAqV61Gyf+1d9/xVVR5H8e/Nw1IgwRYkCRABEEgVGnSFBUQpIgCCgpYV117eVRw18Wu7KMIa39QUcCCqIiIuipY1oKVKihIgFClJ4RAQpLnj0tcdCG5yZm5M3Pn8369eO2+MHPmN8PNPd85M3NOw8ZKS2+o49LSlZiYrISERFWvUUOSdKCgQPn5+7RvX642b9yozZs2KGfDOq1cvlR5Yay1WlJNDX7hXdU50dqVEJfPfFqf3XezpW3ardedj6rV+ZcZtxMxAUAiBFikuET6ZWOhlqw5oNU5hdq8/ZByfj2kTduLtDuvWPkFpSosKtXe/GKVlEg1E6MUFQgoKT5K9WvHqG5KtOqnxqhJepyapseqWUacWmZW88QzCKa81PlLHggAEfUFFYIt33+peZcN0aED9tw796qY6vEaNHWupa/8lXl9xCn6dfl3lrSVekJLtRh2kdJP7q2ktIaSpLxNG7Txy4VaOXuadq3+0ZL91GvbWee8bL58csT9fhEC4BCvdf4SbwG4znEdTla/yTMUFRMZD8JYISo2Tv2mzLSl8y/Y+at+XfG9cTtRsXHq+bdJGvHmV2oz+i9KbdpCsTUSFFsjQalNW6jN6L9oxBtfqucdDysq1rwD2bb0GxXs2mHcTsQJBNT99ofUZvRfLG86Et4OgD282PlLBABXatizr/pNnqmY6jWcLsVxMdXjdebkmWrYo48t7W9a9KnxjH9RsXEa+Mybyhp5uQLlLNgeiI5W1gVX6Kyn3zAPAaWl2vz1p2ZtRCpCAMLIq52/RABwrca9B2jQ1LdVrWaK06U4plrNFA1+7m01OrW/bfvYtuRr4za63/6Q0rqcEvLPp3c9Vd1uvd94v1bUHrEIAQgDL3f+EgHA1ep36KqhMz5QYv10p0sJu8TjMjR05oeq166LrfvZk73aaPvUE1qq1YhLKr1d1vmXK7VpC6N97zasPeIRAmAjr3f+EgHA9VKanKhhsz+zdNIbt8vofrqGvfaZUo5vbvu+9qxfY7R9i2EXVWk+gkB0tE48d6zRvvca1u4LhADYIBI6f4kA4Ak1Uutq4DNz1Onq8Zavee8mgehodb72rzrr6Tctfc+/PIV5e422zzAIZibbStLB3D1G2/sGIQAWipTOXyIAeEYgKkodrx6vQVPnKjnDnpn8nJSckalBU9/WSVfdXu6DdFYrzDd7jc3k9kxSg4ZG+y4yrN1XCAGwQCR1/hIBwHPSupyi895apHaX3GDpqnBOiYqOUbtLbtB5by1SWpdeYd+/6frxsQlVf4/eZFtJKi5013zurhdBISC/oESPvLxLXy0vCMv+3OiblQWaMmuX5bMWHkukdf4SAcCTYqrH6+Rb7tW5r31qy7vx4VK/Q1ed+9qnOvmWexVTPd7pcuAHERACXl+Yp5Yj1+rmKdt08uXr1H5Mtp6es1t5+8M8ob8D9hWU6P/e2qOOF2er8yXrdP2kbWo1aq3mfGq8Mm65IrHzlwgAnlbnxDYaOuNDDXr2bdXN6uB0OSGr3ayV+k6arqEzPrR8Wl+gQjaHgJ5XrteP2daPzqzZWKgBN+Vo2PiN2rCt6Le/X7z6gK58aKvSBq3WFQ9t0eLV9i3E5ZRV6wt1+xO/qtHZa/TnB7fou1X/OcZ1W4o09LaNOuPaDVq5zvrzvjrH1s7/GTnU+UsEgIiQfnJvDXv1E5055SXVb2/va3Mm6rfvojOnvKQRb36lJv2GOl0O/OxwCGh94VWWN71t1yH1uW6DZSMB+w+U6I6ntitr1Fq9++Wxn/vI21+iZ+bsUfsx2ep2+Tq9+O5eHSh0pF+xxIHCUs14b696XLFOLc7/RQ9N36lducXH/PmPvs1X+zHZ+tsz21Vw0JrjXrOxUL2vtvXK/0o51PlLkvdvIiMoEFDmGYOVecZg7fxpmZa/PFWr572iov3OrnAXG5+gZoNGqtX5l6p289aO1gL8TiCgHuMmSpKWzXjS0qbLbgeYrh3wxsd5uvHRbb+74g/Fl8sL9OXyAt37/A6teqWJwvhcrSXe/XKfRt+1WTv3HrvDP5qDRaW69/kdmvHeXk26oZ7O7pVU5Roiddj/SASACFS7eWudMmGyuv3PfVr/6fvK/uhtbfjsX2FbZTAuKVkNe/ZV5umD1KhXP+OH3QDbuDQE/LyhUNc9slXvLzIL8KtzCvXx9/k6rWOCUTvh9uqHuZXu/I9UdltgQLdETb6xnpqmV+78+6HzlwgAES02IVFN+5+rpv3PVUlRoTZ9/Zm2fPu5ti5epO0rvlfhPmsenIlNSNSfsk5Svbad1aBTD6V17mnJgjdAWLgoBOw/UKL7pu3Uwy/t1MEia/qHafP3ei4AfPy9Nauhzv9inxZ8m6//ubC2xo2poxrVKl4A1+bO/zG5pPOXCAC+ERUbp4zupyuj++mSpNKSEu3+ZZVeHdLZqN3z3vpaKU1ODOu7+4DlXBAC3vg4TzdN3qb1Wys33F+R1xfm6bGbS5Sc4I3f0ezNRZaegwOFpbrnuR2a/u5ePXpDPQ0p57ZAGDr/6+SSzl/yQABw3XrjESIQFaXUE1oat2NFG4ArOBQCVucU6tqHzYf7j2X/gRK9+Umexg6oaUv7VvvkB2uu/v9o3ZYinV3ObQG/df4SbwEAwH8cDgHheEWw4GCpJkzdrjYXrrWt8y+z8DtnHwaujI+/t7fW+V/sU8uRa3X9pG3aVxCcOyEMr/q5rvOXPDACAABhdfgVwdLSUstHAspeEbzz0jp64IWdlg/3H8vC7+y5qraDVff/y1N0qFRTZu3S3M/yNH5sHd317HZfXfmXIQAAwB8dHgkIBAJaOv0JS5vevOOQrnxoq6VtVmTDtiJlby5SZoPYsO63sqy+/1+RdVuK9OcHt9jVvGuv/MtwCwAAjsbGGQOdYPfQuhW8UGOInpHDk/yEggAAAMcSQSHArofrrOSFGkPgic5fIgAAQPkiJAR44TmAcNz/t5lnOn+JAAAAFYuAELBhW5HWbQnf/fXK2rAtvPf/beCpzl8iAPie6Yx9RfnenafBdCbE6LhqxjU4ef7dcPyeEgEhwM1X2Au+dW9tIfBc5y8RAHwvznCe/n1bN1pUSfjt25JjtL0Vaxw4ef7dcPyeY+MqguHg5ofsPvnBvbVV4DF5sPOXCAC+Vy25ltH2OV8ssKiS8DOt3fTcWdGGyTG44fg96fArgl4MAW5+yM7NoxPlcPV7/hUhAPhczYZNjLZfOXuaSourvmqXU0qLi7Vy9jSjNmo2ampch1Pn3y3H71keDQHrtrjzOYD1W91ZVwU83flLBADfq5V5gtH2u1b/qBWvTLWomvBZ/vIz2v3LKqM2UgzPneTc+XfL8XuaAyEgvm594zbcOApg0dW/bTP6HIXnO3+JAOB79dp1MW7j84njtPGrj82LCZONXy7UFxPHG7djxblz4vy76fg9L0whIComVu0uuUGj3l2img2PN2rLjc8BWFDTWknNJE2UVGhcUPkiovOXCAC+l9allxSoeI3s8pQUFeqdK87RsplPufp2QGlxsZbNeFLvXHGOSg6ZDTcGoqKU1rmXcU3hPP9uPP6IYHMISO96qkbM+Uon33KvYuMT1MDwvLvxXrsFoxIfS9on6TZJbSV9aNrgMURM5y+xFoDv1Uitq3qtO2rb0m+M2ikpKtS/77tFP776rE48d6wyup2mpLRGio1PsKjSqinan6+8TeuV8/lHWvn6C8bD3mXqte2k6im1jdux+/xLcvXxRwwblhJOrJembrc9oCZnnvO7v2/QqYfR8xvrtgTft29U3x3rAqzfGlynwNDHR/z/VZL6SBou6RFJ6aaNHxZRnb/kgQDwZEuzV42u+tG776mHS7PBI407oDK71qzUFw/dbklbbtZs8EhL2/La+bfy+COGRSEgKiZWrc6/TF2u//tRX7Vs0Klnldsu03joGuM2XOaTo/zda5LekXSrpNslmUxc4fqFfaqCWwDQCWcNV2wNZ6/UvSQ2IVFN+w+zrD2vnX+rjz+iGN4OSO96qs6bs0g9xv/jmPMsJNZPU3JGpkmVkWatpA3H+G/7JU2Q2W0Bz77nXxECAFStZopanneJ02V4RtbIP1v6DrzXzr/Vxx9xqhACEv50nE574BkNem6eah3frMKf5/mL31kYws/8pOBtgcGS1lei7Yi88i9DAIAkqd3F1zt+v94L4hKT1Paiay1v1yvn367jjzhlIeCCK8v9sajYOLW/7CaNnL9YzYeMCrn5Bp3NbwNEkE8r8bNvS2ol6UFV/LZAxF75lyEAQFLw/eKOV5u/GhbpOl37N9VIrWt5u145/3Ydf0QKBNRj/D+OORKQ1qWXhr/+ubredHelw58VzwFEkKPd/y9PvqRxkrIkvXuMn4noK/8yBAD8ps3ov6huq/ZOl+Faf2rdUVmj/mxb+24//3Yff0Q6ykhAYv109Z00XYOfn6/Upi2q1CzPAfxmrSo3pH+k1ZIGKPi2wJELYzyuCL/yL+P6twAQPlExser7yIt6bVh3FeblOl2Oq1RLqqk+D09TVLR9vzJuPv/hOP6IdXgkIComRlFx1XTSlbda8tBng049lZuTbUGBnlbZq/+jma3gSMAdkmpIukk+6PwlRgDwB8kZmTr9wal80R8hKjpGZ/zjOSWnN7Z9X248/+E8/ogVCKjbbQ+q6413WfbGRxrPAUi/f//fRL6k8ZJulE86f4kAgKNo3HuATrlrivEMdREhENCp9zyuhr36hW2Xrjr/Dhw/QsODgJKsCwC+RADAUZ14zhiddv/Tiopxx2xhTghER+vUu/6p5mdfEPZ9u+H8O3n8qFhi/XS/PwdQ3vv/CAEBAMfUfMgonTnlJcUlJTtdSthVS6qpAY/PUothFzlWg5Pn3w3Hj4r5/G0AK+7/+xoBAOVqdGp/DZ/9uepmdXC6lLD5U+uOGvb6564Y9nbi/Lvp+FG+Bp16OF2Ckz52ugCvIwCgQskZmTrn5QXqPm6i4hKTnC7HNrE1EtT1prs19KUPXfXAW7jOv1uPH8eW1sXXMwIyAmAolKeMjJ6INF2Mh8WA3KVg569a/NxkrXh1qor2u29d8aqITUhU1vmXq+3F17l+khs7zr+Xjh//bWbfLOVuXOd0GeGWLel4p4vwOgIAquRg7h6tfuc1/Tz35eBKdqUee3MmEFD9dp3VbPBINe0/zHNz2xuff48fP/5j4R1XadWb050uI9yel+SdBTRcigAAYwW7dmjz159q25KvtXvtz8rdmK0Du3eqMH+fSooqmm7bXlGxcYpLSFT1lNpKTs9USpPmqte2s9I694qY9ezLO/+SIv74/e6nt17SgnG+m6HxIkkvOF2E17k+AAAAqsb0Akqh9RHwKB4CBADAhwgAAAD4EAEAAAAfIgAAAOBDBAAAAHyIAAAAgA8RAAAA8CECAAAAPkQAAADAhwgAAAD4EAEAAAAfIgAAAOBDBAAAAHyIAAAAgA8RAAAA8KFQ1noutb0KAIAbhdJHwKMYAQAAwIcIAAAA+BABAAAAHyIAAADgQwQAAAB8iAAAAIAPEQAAAPAhAgAAAD5EAAAAwIcIAAAA+BABAAAAHyIAAADgQwQAAAB8iAAAAIAPEQAAAPChGLt38O2Sn+zeBcrRsW1zo+1L777OokqqJnDnFKPtqd+Maf38/jvL9PcfkY0RAAAAfIgAAACADxEAAADwIQIAAAA+RAAAAMCHCAAAAPgQAQAAAB8iAES42NhYo+3zDhZaVAm8Jtfw3z4uLs6iSgDYgQAQ4eITEoy2z8ndZ1El8JoNe/OMto+PN/vsAbAXASDCJSfXNNr+gzUbLKoEXmP6b5+cnGxRJQDsQACIcBkZDY22n/rdChWXlFpUDbyiuKRUU79bYdRGRqPG1hQDwBYEgAjXqHGm0fbLf92pJ79ZalE18IrHv16qH7fvMmrD9LMHwF4EgAjXum174zZufu/f+mhtjgXVwAs+/CVHt7z/mXE7bdqYf/YA2IcAEOE6duqiQCBg1EZhcbEGTJ+rf361hNsBEay4pFRTvlqiATPeUlFxiVFbUVFR6ti5i0WVAbCD7csBw1mpqbXVKquNli9bYtROYXGxrpv/iZ7+drku7dBSfZo2VONayUqMM3vNEM7aV1ikdXty9a81G/TsdyuMh/3LZLVpq1q1UixpC4A9CAA+MGDgEOMAUGbFrzt103vmw8PhYrqevdO8Wv9ZA4c4XQKACnALwAfO7D9QNWrUcLoM+ER8QoL69DvL6TIAVIAA4APJNWvqnGHnO10GfGL4eaOYAwDwAAKAT4y+6FLFx8c7XQYiXEJCoi4YfbHTZQAIAQHAJ+rUqavLr7zG6TIQ4a68+nqlptZ2ugwAISAA+MjIC8aqRctWTpeBCNUqq41GnH+B02UACBEBwEdiYmL0wMRHlZiY5HQpiDBJScl6YOIkRUdHO10KgBARAHwmPaOh7r5/Il/UsEx0dLTufeB/1SAt3elSAFRCKAHAaFHwoqIik81hg16nnKY77rzHeIZAIBAI6G8T7lP3nqc4XQr+oLDQ6Ktbkg5aUQfcK5QAYLQgfC/+kK8AAAvKSURBVMH+/SabwyaDzz5XE+55UDExzAWFqomKitYdd96jgYOHOl0KjmL//nzTJvKsqAPuFUoAyDXZwd69e0w2h43OGnS2/jHpMZ4JQKUlJSVr0pQndfY5w50uBceQm2v01S0RACKe7SMAOTkbTDaHzXr26q2Zr76plq2ynC4FHtEqq41mvvomw/4ul7N+nWkTBIAIF0oA2Gqyg/Xrsk02RxikpWfo+emzdNMt4xSfkOB0OXCphIRE3XzrHXruxVd44M8DLPjuNfruh/uFEgB+MtnBsiU/mGyOMImOjtao0Rdpztv/0uixzBqI/4hPSNCYiy/Tm/P+pZEXjOENEo9YutT4u9foux/uF8pj4NdKqvKSZKmptfX+gs954txjcnNz9f678zR/3ltavmyJSktLnS4JYRQIBNS6bTudNXCI+vQ7i7n9PaakpER9e3fTnj27TZq5RtLjFpUEFwqlV+4r6X2TnUybMUtZrduaNAEH7d69S99+s0jLli7Wuuy12rQxR3v27Nb+/Hxe8/S42NhYxSckqFatFKWlZygzs4lat2mnjp27qFatFKfLQxUtXfyDLhlrvABYH0kfWlAOXCqUd8C+l1Sq0MLCUc2f9xYBwMNSUlLVp29/9enb3+lSAITgnXlzTJsokcT92wgXyjMAOyQtNdnJe+/OU0FBgUkTAIAQ7M/P1wfvzzdtZomknRaUAxcLdSrgBSY7yd27V2/MfsWkCQBACF579SUr5gD4yIpa4G5hCQCSNH3as9rPrIAAYJv8/H2aOf15K5oy/s6H+4UaAD6UZDSl344d2/V/Tz1m0gQAoBxPPT5Zu3YZj9zvFgHAF0INAAckzTbd2cszX9DKH1eYNgMA+IMVy5dq1iszrWhqllgIyBcqsxzwdNOdHTp0SONuvUH79jHDJABYJS8vV+NuvVHFxcVWNGf8XQ9vqEwA+EzSGtMdbszZoDvH32rVBxUAfK24uFh/HXeLNm/aaEVzP0v6woqG4H6VndPzoKRBpjtdvz5bv27bql6nnsYMgQBQRaWlpbr77+P10QfvWdXkbQrO/QIfqGwAWCpprKSapjv+adVKbd60UT179VZUVGUGIgAAJSXFuv+eOzV3zutWNZkj6TJJDM/6RGUDQImCswKeacXOV/+8Sj+tWqkevU5RXFw1K5oEgIiXl5er22653ooJf450h6SvrGwQ7laV8fcakpZJamJVEWnpGXpg4qOsSQ8AFVixfKnG3XqjVff8y/wsqY14+t9XqrKu5yEFl4m80Koi8nJzNXfO69q7Z4/atu+guLg4q5oGgIhQUFCgp56YrHsm3KHcvXutbn60pFVWNwp3M3kC7w1JQ60qpExq7ToaPfYSnTt8JGvSA/C9/fn5mj3rZc148TkrJvk5mlmSzrOjYbibSQDIkLRYUqpFtfxOcnKy+vUfqAEDhyirdVveFgDgG6WlpVq2ZLHemTdHH7w/34q5/Y9lh6S2kjbbtQO4l2mvOljSHAvaKVdKSqo6duqi1m3aqXHm8UpLz1CtWimKT0hQbGysnbsGANsUFRVpf36+9uzZrU0bc5Sd/YuWLV2sb79epD17dtu9+1JJAyVZ+iQhvMOKjvthSTdZ0A4AIHweknS700XAOVYEgFgFFwvqZUFbAAD7LZTUT1KR04XAOVYN3SdL+kRSO4vaAwDYY5mCF2xGK7zC+6y8d99A0r8lZVrYJgDAOtmSukva4nQhcJ6Vc/BultRXwQ8YAMBdsiX1EZ0/DrN6Ev41krop+HogAMAdlkvqKekXpwuBe9ixCs9WSb0VfCYAAOCshZJ6SNrkdCFwl6pMBRyKA5JmKPieaS/ZPE8AAOC/lEr6p6QxkvY7XAtcKBwd80BJ0yTVDsO+AADSTgWXbn/H6ULgXnbcAvijeQpONTk7DPsCAL+bpeDKfnT+KFe4h+Z7S3pcUosw7xcAIt0aSddKes/pQuAN4RgBONJCSe0V/JDmhHnfABCJNki6RlKW6PxRCU4+nBen4MMpt0o6wcE6AMCLfpY0UdJ0SYUO1wIPcsvT+ScpGAZGSarjcC0A4FZ7Jc2V9KKkjxR80h+oErcEgDLVJZ0m6fTD/9tG4b9NAQBuUSJpiaQFCnb4CyQddLQiRAy3BYA/qq3gMwPNJZ0oqZmkepKSJNWSlKjgrQQA8KJCSfsUXJgnT9I2ST9JWqXgEP8PCr7SB1jO7QEA3mc0RDlr7kdW1eFJIwafbtoEv+MAjorhdQAAfIgAAACADxEAAADwIQIAAAA+RAAAAMCHCAAAAPgQAQAAAB8iAAAA4EMEAAAAfIgAAACADxEAAADwIQIAAAA+RAAAAMCHCAAAAPgQAQAAAB+KcboAWCpTUldJnSV1kFRXUsrhP9UcrAvOKXVovwcl7Za0S9J2Sd9L+lrSIknZDtUE4AgEAO9rIGn44T/dHa4FKFNNUv3DfyTplCP+24+SXpM0TdK6sFYF4DfcAvCuRpKel7RB0qOi84d3tJT0d0lrJD0rqaGz5QD+RADwnkRJkyT9LOkiSdGOVgNUXbSkSxT8LD8iKcHZcgB/IQB4S0dJ30m6QVKcw7UAVqkm6UYFP9sdHK4F8A0CgHdcK+kLSc2cLgSwSXNJX0q6yulCAD8gAHjDbZKmSIp1uhDAZnGSnpD0oNOFAJGOAOB+D4ovQ/jPbZLucboIIJIRANztCgW/CAE/+qukS50uAohUBAD36ippstNFAA57TFInp4sAIhEBwJ2SJc0Ws/cB1RWcNCjR6UKASEMAcKc7JaU5XQTgEo0kjXe6CCDSEADc5wRJ1zhdBOAyN4tXYAFLEQDc5xEx9A/8UZykh5wuAogkBAB36SDpLKeLAFxqiIKzYQKwAAHAXe6SFHC6CMClApLucLoIIFKwHLB7dJSFV/8tWrVR7zPOVMustkqtXUcxMc78U48YfLoj+0XQrLkfObLfoqIi7dq5QytXLNWCD+Zr1Y/LrWp6iKT2kn6wqkHArwgA7vF3WXD1n5iUpCuuuVldTu5pQUlA1cTGxqpe/eNUr/5xOvX0flr0xad6+vFHtC8vz7TpgIK/K2ebVwn4G7cA3MGSq/+kpGTd9cCjdP5wnS7deumu+ycpMSnJiuYGKzgKAMAAAcAdLLn6v/rG25TRsLF5NYANMhpl6pobb7eiqbJRAAAGCADOs+Tqv0PHrurQsasF5QD26dCxq07qfLIVTTEKABgiADjPkqv/4SPHWFAKYL8Roy5SIGD8kQ8oOGMmgCoiADjLkvf+O3bupiYnNLegHMB+mcc3VcfO3axoinkBAAMEAGdZ8t7/ueddaEEpQPgMGznGqlEA5gUAqogA4Byu/uFbmcc31UmdLHkWgFEAoIoIAM6ZIK7+4WPDR41lFABwEAHAGR0kDTRthKt/eBmjAICzCADOmCCu/gFGAQAHEQDCj6t/4DBGAQDnEADCb4K4+gd+Y+EowF8tKAfwDQJAeHH1D/yBxaMAnaxoCPADAkB4TRBX/8B/sWgUQOJZACBklvzGISQdJH0rzjlgt86SvnG6CMDtGAEInwmi8wfCgVEAIAR0SOHRXtJ34nwD4cIoAFABRgDCY4Lo/IFwYhQAqACdkv24+gecwSgAUA5GAOw3QXT+gBMYBQDKQcdkvxJxngEnlIqLHOCY6JjsV+p0AYCP8R0HHAPpGAAAHyIAAADgQwQAAAB8iAAAAIAPEQAAAPAhAgAAAD5EAAAAwIcIAAAA+FCM0wWgfE88P8vpEgDH/OXiEU6XAEQsRgAAAPAhAgAAAD5EAAAAwIcIAAAA+BABAAAAHyIAAADgQwQAAAB8iAAAAIAPEQAAAPAhAgAAAD5EAAAAwIcIAAAA+BABAAAAHyIAAADgQwQAAAB8KOB0AT5Q6nQBgI/xHQccAyMAAAD4EAEAAAAfIgAAAOBDBAAAAHyIAAAAgA8RAAAA8CECAAAAPkQAAADAhwgAAAD4EAEAAAAfIgAAAOBDBAAAAHyIAAAAgA8RAAAA8CECAAAAAAAAAAAAAAAAAAAAAAAAAAAAAAAAAAAADvp/L+5fkyoZ9oYAAAAASUVORK5CYII=;" vertex="1" parent="1">
          <mxGeometry x="1024" y="480" width="76" height="76" as="geometry" />
        </mxCell>
        <mxCell id="Lf1fIR2ePeuiFVvzxuUq-80" value="" style="shape=image;imageAspect=0;aspect=fixed;verticalLabelPosition=bottom;verticalAlign=top;image=data:image/png,iVBORw0KGgoAAAANSUhEUgAAAgAAAAIACAYAAAD0eNT6AAAACXBIWXMAAA7DAAAOwwHHb6hkAAAAGXRFWHRTb2Z0d2FyZQB3d3cuaW5rc2NhcGUub3Jnm+48GgAAIABJREFUeJzs3XecXGW9P/DPOWf6zrbZvkl2s+mNhJAQSiAEpRhEwIIKCNjArsi9otdyRa9cf6jXdhEVvYhYkCq9iEozhJKQnk3f7G62951eznl+f4Se7O60M8+Zmc/79bovL8nMeb672Z3nc87TACIiIiIiIiIiIiIiIiIiIiIiIiIiIiIiIiIiIiIiIiIiIiIikkaRXcBrTvzGHTP80dAn4vHIqmgkMDsU9jfEIkFXIhHXEvGomkjEZZdIREQ0JZvNDpvdadhsdt3p9ETcnrIep8t7wG53veR0lv5m6w0f7JJdIyA5ABz3zT9f5B/p/8r4WP+ykeHeEiEMmeUQERGZSlFUVPoaAuUVNVu95ZU/3H7DlQ9IqyXXDZ50wwN1wwPdNw0Odpw3MtTjyXX7REREVlHpawhV1TY/4imv/fy269/Xn8u2cxYAVtxwb8P4YO8vDrfvvjAc9qu5apeIiMjqnC6PaJw+/9ma8sqPvfS9K9py0ab5AeD669V5/oZfth/c9sloJMiOn4iIaAIOh1s0z1pyv6O85sM7r/9gzMy2TA0Ax33tTxd3Hd75u+Gh7hIz2yEiIiokvqppgRkz5l+59ftX3GdWG6YFgHn/9utfH9y78WrO3iciIkqdptkwa+7yv+77yefeZ8b1sx4AVlz/UHVP1/ZN3Yf3NmX72kRERMWmcfr8Q83TZq/YcP0Hh7N53awGgFXfvL3lQPveLUODh8uyeV0iIqJi5quaFqhrWHRC6w8v25eta2YtACz72h3L29o3Pz8+2u/K1jWJiIjoiLKKusislqWnbPnvy7Zk43pZCQAnfuOOGfvatuwZHelzZ+N6REREdLSy8trogjlLFmZjqWDGy/JOuf4u38GOnTvY+RMREZlrfKzfuf/Qnm1Lr7+vNtNr2TK9QHvX/s0c8yciIsqN4aEur8vtfRFASybXyegJwNwv//IOzvYnIiLKre7De2bOu/ZXv8/kGmkHgOO+9qeLD+7b9OFMGiciIqL0HNi76Yrjvvnni9J9f1oBYO31T9m6Du+6VdcT6bZLREREGdD1OLoO7fjj2uufSms4P60A0DW++/bhoS5vOu8lIiKi7Bge6i7p8u+9JZ33phwAln/jT80dB7fx0T8REZEFdBzcduWyb9w1LdX3pRwAxsaHb41Gwzk7RpiIiIgmFo0E1cB43/+l+r6UAsDS6++r7e7aszbVRoiIiMg8hw+3nnPSDQ/UpfKelAJAeLTvF5FwIOPNg4iIiCh7opGQMjTY/fNU3pNSZz442HFeaiURERFRLgwNdL47ldcnHQCO+8bvLxwZ6vGkXhIRERGZbWSouySVfQGSDgD+0ZHr0iuJiIiIciEwOnBtsq9NOgCMj/UvS68cIiIiyoWx8YHjk31tUgHgxG/cMWNkuLck/ZKIiIjIbKND3aXJ7gmQVADwR0OfEMLIrCoiIiIylWEYSMT9H0/mtUkFgHg8siqzkoiIiCgXotFoUn12UgEgGgnMyawcIiIiyoVIJDA3mdclFQDCofH6zMohIiKiXAiHxhuSeV1yTwCiIVdm5RAREVEuRKMhdzKvS+oM4UQirmVWjrVM04Bmm0CdJhAQCroTwJ4EkBDWPePIpgrMr4tiWnkMXqeOfr8dh4YdODzqkF3apCqqgYoqoLQCiMeASAjo7Tzyv0RElH16kn12UgEgHovm/f7/FSrw+VIDHygxsMQujvr7YUPBo2EFN/lVbIxaJwisnBHEF88YwLsXj8HnSRz19zt63Lh7SyV+/kwtRsPWyGlON3D8amDhCQp8tUf/vTCA3sPAlvUCuzcf+W8iIsqOeDySVJ+dXE+37qNH95h55KpSA98r11GVRP8oANwVVPGFYRXDhrwg4PMk8IuLO/Ch5SNQkihjOGTD1x9uxK/X15hf3CQWnqDgjAsAjze51w/3CzzyR2Cg29y6iIiKymO3TdlzFHQAsCkC/1tp4KrS1G8x98cVXDSgYXc89yFgfm0ED129H3Nroim/97cvVOOzdzUhrue4bgVYfS5w0lmpt5uIA4/fIbB3mwl1UdGo95Vj/rQGVHp5ZAllJmEY6Bsdx7a2TkRjcdnlpCeJAJDUEEC++mmlSKvzB4A5doEn6xI4uceOLj3LhU2iviyOJz+7DzMqY2m9/5MnD0JTgI//uTnLlU3u5HcqOOms9N5rswPrLlMQCQt07MtuXVT4zllxHL7yvnVYMXcmlGQelxElKRSJ4oEXNuP/3f0wOvqHZJeTdXk/tj+Rj3kNfLo0s567QQP+UpPI2TdJVQTu+fjBtDv/13zspEF84pTBLFU1taZ5wCnnZnYNTQPOv1yBmxtOU5IcNhtu+uwVuPNrn8XKeS3s/CnrPC4nLll7Ml78ybdx8emFtx9eQQYAryrwvcrszCw7xSnw4ZLczFK7ZMUIVrcEsnKt75/fhTJXDh5dKMDa9yhJzVOYissDrH4XP8Rpaoqi4ObPXYnLzjxFdilUBFwOO371hY/ivBML60y8ggwAny4VqFOzN23hWxW5CQDfOrcna9eq8SbwmdMGsna9icxeBFQnteVEchavOhIEiCZz+TtOxftPWym7DCoiqqLgl5+/EtVlSc5wzgMFGQDe785uhz3XJrDUYe48yKWNYcyvjWT1mu9fNprV6x3L3OOye8euacC8pXwKQBOzaSq+9sHzZZdBRajM48aXLspwvNNCCi4A+FSBlc7sd9bnuswNAOcsGMv6NVfOCKK65Oi9A7KpKakdp1PT2JL9a1LhOGXBXDT4KmSXQUXq/atXFsx8k4ILADNsya5tTE2TzdwA0OzL/lITRQGafJlNKJyMqgLesuxft6I6+9ekwrFibm5XuBC9WYOvAnWVJnzwSVBwAaDGpK+oTjM3ANR6zVlrWuc17wmAww1T0pY7qV2sqVhVlZXKLoGKXF0FA4AljZnUT4+avCvgWMScbXxHTNweOBHDka0TsywSzv41qXCMh/gDQnKNBgvjZ7DgAkCPSTe83SavqOs26VCfnjHz9npKxIHAePava8Y1qXDsPZy91TJEqQpEIugZMn+CdS4UXAA4rCtoMyEE/Cu5sxXSv35b9nfAaR92omPUmfXrvllvZ/av2bk/L3eephz559bdiOTr9qyU957cvBOxhLmTq3Ol4AIAADwUzu6XNWoAz0bMHQJ4Zn8pRkLZfVz/4I5yCJP70j1bstuAMIC23YUxw5bM4Q+H8ZvHn5FdBhUhQwj87P4nZJeRNQUZAP53XEM2577f5Fezer1jiesKbnruGGfnZnC9/302e9ebyIGdgD+LT8P2bAXGhvgEgCb3w3sexR4OBVCO/ez+v2HrQRMee0pSkAGgLQH8ejw7X1qfoeB/xsybSPdmP/xHHfr89qxc61fra7BvwNzH/8CReQDPPJSdDjseBTY8wc6fpuYPh/Gh/3cz9nX1yi6FisRtTz6H793xgOwysqogAwAA/MeohpejmT1KjgvgsgEN/hz1Sf6ohg/cOgvRRGb/LJsPu/G1h6Zlqaqp7d0KbH8x8+v8/V5gJHdnGFGea+8bxFlf/wFueeypghmTJevpGhzB1T//Hb58y59hmD2mmmPJ9ZDrPpqXX3WjTeDxWh2L7KmXHwNw1ZCGPwVyn5EuXTGM3112CI409h5o7XPhnJvn4rBJqwomoqrAuy9Pb2tgIYBnHgJeeTYvf8zIAqrLvDj7hCVY3DwddRVlsGm5eWpHhSkYiaJrcBgbdu/H+l37EE/k8Ez4bHnstik/jAs6AABAmQr8riqBCz3JfwndCQWXDmn4l8kT/yZz2qwA7vzoQTSWJz/b+YHtFbjijzMxbtKeAlNSgFVnKjj1XUcCQTKCfuAf9wrs32FuaURERYUB4A1nuwWuL9exyikm/KL7deBmv4afjKsIWuArLnEY+PLaPnxhTT9qSyd+xPnCoRJ8+7FG/G23NXanKvcBJ52lYMFywDbBlAb/GLDrZYGXnwZi2T0DiYiIGACO1qQB53oMNGkCDRrgN4BuXcGGmIINEQVWfNCjKgKntgRxaksQjeUxlLkM9PrtODTkwOOtZegYye3j/mTZ7EcO9qmpB5weQBEKxkcFBvsU9LYL05coEhEVLQYAIiKiIpREACjYVQBEREQ0MQYAIiKiIsQAQEREVIQYAIiIiIoQAwAREVERYgAgIiIqQgwARERERYgBgIiIqAgxABARERUhBgAiIqIixABARERUhBgAiIiIihADABERURFiACAiIipCDABERERFiAGAiIioCDEAEBERFSEGACIioiLEAEBERFSEGACIiIiKEAMAERFREWIAICIiKkIMAEREREWIAYCIiKgIMQAQEREVIQYAIiKiIsQAQEREVIQYAIiIiIoQAwAREVERYgAgIiIqQkoyL1r3q1eE2YUQERFRdjz26ROm7N9tyVxo2owFmVdDRERElsEhACIioiLEAEBERFSEGACIiIiKEAMAERFREWIAICIiKkIMAEREREWIAYCIiKgIMQAQEREVIQYAIiKiIsQAQEREVIQYAIiIiIoQAwAREVERYgAgIiIqQgwARERERYgBgIiIqAgxABARERUhBgAiIqIixABARERUhBgAiIiIihADABERURFiACAiIipCDABERERFiAGAiIioCDEAEBERFSEGACIioiLEAEBERFSEGACIiIiKEAMAERFREWIAICIiKkIMAEREREWIAYCIiKgIMQAQEREVIZvsAjJl0wCvXYGqyK6EyHqGwyKj9/vc/MUiejtDAIG4QEKXXUlm8jYAzPKpWDPTjpkVKjt/ogn85z/CGb3/mlNdWaqEqLAYAjg0auDZtjgOjhiyy0lLXgaAM1vsWDvLBvb7REQkg6oAsypVtFQ68XRbHE8dTMguKWV5Nwfg+HoNZ7LzJyIiC1Bw5KZ0aZ0mu5SU5VUA0BTg7Ll22WUQERG9xblz7Xk3HJ1XAaCpQkWpI8++w0REVPBKnQqayvOqS82vAOBz51W5RERURKo8+dVH5VW19vwbYiEioiKRb31UXgUAIiIiyg4GACIioiLEAEBERFSEGACIiIiKEAMAERFREWIAICIiKkIMAEREREWIAYCIiKgIMQAQEREVIQYAIiKiIsQAQEREVIQYAIiIiIoQAwAREVERYgAgIiIqQjbZBVB+MGBgPD6E0XgfRuL9GIn3YjTej4gRQkLEEDPCiOkRJBBDvRjGl2ytMADEhB0JRUMEDkQVN2JKGeK2esDeBM0xDw7XCtjsTbK/PCIpQtEedIW2YCDSjt5IL4Zjo0iIGIJ6HAIGQkYchgBKI++G0KthV2NQVQVOJQFNVeF1ApVOG+o9HtR661Fb1gIVeXYmLUnDAEDHFNBH0Bnag67IXhyO7MNwvA+GSCT3ZuXI/6gAXEocQBxeRAAxDog+ILYPiAEIHnldGHYMqdUI2RdAdZ8KT8nZUDSfCV8VUe4lRAxto89g99jL6Ih04nB4DAOJOIIJA7pI7hrN0UVwG3OmfJ1AGEIdhUPrQblzCHUlccwqr8C86oWocFdn+JVQoWEAIABARA/iYHgrOkKtOBzZi9H4QM7adiOO6UYPEO0Bok9BjP43+pUqDNuPg817Hrzes8HRKsoX49E2vDzwV2wd24UDkXEMxXQYSXb0mVKgQTGqkDCqMBQHhgLArj4AewFDPYgy5yHMKg/h+LrpmFO9DK+ndSpKDABFLGqEsTf4Mnb7X8bhyG7oQpddEgBAgUCdGERd7Clg+Cn4h53oti+DWnoxvN5zZZdH9Ba6SGBj/1/wzOAz2BccxZhuADnq8FOhGg0IhBuwLQxs6wUMpQ8exz4s9I3gjOZl8JU0yy6RcowBoAgdjuzFtrFnsS+0EXEjJrucKZUiivnxl4DhlzA88h30O89ASeUXYLM3yi6NilQ4MYSnun+LF0a242A4gliubvGzSBXliERXYnMP8EqPDpt9E5pLe3BG8zy0+ObJLo9ygAGgSOgigdbAi3hl7En0Rztkl5M2nwjAF3kEes+jaNcWQfiugcd9kuyyqCgIbOm/HY/2/hM7Q0HE87DTn4gCDXp8EQ4OL8LBYQBaKxb69uP8eaeg1MW5A4WKAaDAGSKBHf71eH7kQQQSI7LLyRoNArP0nRADV6FdbUK08t9QVnKm7LKoAPWGtuP+zv/DS2NdCCQM2eXkhj4TrQMzsXMgglL3P3B6o4JTZ54JzhkoLAwABcqAgR3jz2H98AMI6qOyyzGNAmCm0QEx9CUcGpkFo+o/4XGfILssKgAHRp7AnYfvwLaAP2eT+KxGhQvB8Kl4/ADw+KG9WFazFxcseCfsmkd2aZQFDAAFqC20Hc8M3YXBWJfsUnJGAdBiHIQ+8DEcsK+Eq/pG2O18dEmp29B7C+7veQptkZglJ/NJozdha28TNvcPoqX8Kbxv4SpUumtkV0UZYAAoIEF9DM8M3o1dgedllyKNBoF58Zcx3rMOnSWXwFd1reySKE8833sr/nj4CQzGktzvokipRjXaR96B/9kQREvFQ7h08WlwOytll0VpYAAoAAIC28afwbNDdyNqhGWXYwlliGJx8Da0hf4BpeZHcLoWyi6JLGr30AP4Xcdf0Ba2/ooYK1FFCdpHzsIN64exuPo5fGDxubBrTtllUQoYAPJcSB/HEwO34UBwi+xSLKlFdCLafyn2eT+GKt8XZZdDFhIObcCN+2/GrmCIj/ozoAofWgfOxnee7cSaaX04Z95q2SVRkhgA8lhbaDse7fsNwkZAdimW5oSOJYHfYn9oPZwNv4FNK5NdEkkkRBTtnZ/Fo7EIhgzBzj9LhD4Nf9zRiCf29+OLJ+pormmQXRJNgfur5iEBgZdGHsV9PT9l55+COUYr7F3nwR9+WXYpJMn48O24Z/+HcU9cIKQ4Mc3rhE3lx2A2jEQEDAH0hb345nNl+OW/9iGhx2WXRZPgT36eiRkR/LXnZ3h2+B4I3rqkrB7jaB74FMZGbpVdCuWQkejHiwfej9+O/BPt6hsT1myKgmleh8TKCkNMB/zRN/5bCAXr+6bh848EsaUjfzceK3QMAHkkqI/izu4bcTC0TXYpec2JBOb5f4qhge/KLoVywD96F/7S9hk8h3IYx/jIq3M54bHxozATw+Fj344E4g78z8Zq/PTZNhhGkWyilEf4U58nBmNduL3zu+iLtssupSCoAJaE78Foz6f4JKVgCbR1fgq/G3oY3Wr5xC9TgKZSd+7KKjChOBCaZOWkEMDGgTpc++gwuof7clcYTYkBIA/0RdtxZ9eNBb2jnywL4xsQ6roMQnDtdyGJRbbhkf0X4t5YHLEk5jqXOWyodNlzUFlhEQCGIskF6MGoB19/xosndu03tyhKGgOAxXVH9uOu7h9wsp+J5ug7EO26GEJwHXgh8A/fjj923oBWJbWdIJu8Lqjc6j4lY1GBeAqniCcMBX9obcQPnj7EIQELYACwsP5oB+7t/Rk398mBFuMAwl2XQSCFTzOynJ6ur+D3w09iWC1J+b1OTUW9hxvZJEsXwGgkvfduG6rF1//Wh1CYNzYyMQBY1GCsC3d3/whRPSi7lKIx29gDf/cnZJdBaRDQsaPtEvw5MoiIkv6j/MYSJxwaPxaTMRxGRockHQ6W49ondbQPDmSvKEoJf9ItKKiP4p6eH/OxvwTzE69gsPc62WVQKvQx/H3f+/C44YbI8LhaVVEw3cunAFOJ6oA/lvnk2UDcjm8/58Hmdk5uloEBwGJiRgT39PwEgcSI7FKK1pLY4xgZ+h/ZZVAS9Fg3Hjp4BbaqVVm7ZrXLgRI7N0mdzFA4eytnEoaCn2yqxjN7OTkw1xgALERA4OG+X2Eg2im7lKKmAJgfvB3j/odll0KTSMQP4v72z2JPFjv/1zSXurJ+zUIRiAlEsrxoxhAKfrujAU/u3J3dC9OkGAAsZMPIA9zkxyI0CDSMfAfhOHcxs6J4dAfuO/RvaFN9plzfa9dQ7eIOgW9nABhOc+LfVIRQ8PvdTfjrlj3mNEBHYQCwiPbwLrwwzDtOKylDFGrf1TC4R4ClxKM7cWfH9ehQzT2DfjqXBR5lLAIkTF69d++BGfjrln3mNkIAGAAsIaiP4eHeX8EA18VazUyjG8P9/yG7DHpVItaO+zq/hV7V/BMdHZqChhJOCHyNbgCj0dzsmnnfwWl4nMMBpmMAkExA4In+33HGv4Utjv4Nfv8jsssoekaiHw+2fwmdSkXO2mzwuLgs8FVDYQGRo12zhQD+vHsGntvLJwFm4k+2ZNvGn+G4v8WpEKgb+S50fUx2KUVL14N47NAncdCkMf+JqMqRHQKLXUQHAjk+2deAgt/smIaN7ZyHYxYGAImC+hieHb5HdhmUhHKEERrg/gCyPNd2Wcpb+2aLz2VHqaO4lwUOheQcmGUI4KZXqtA+0C+l/UJX3D/Vkv1j8I+I6iHZZVCS5sQ24EDgn/B63yG7lKLS2vYRbFRye+f/ds2lLuwYDsCsgyMdqoJSmwqvZkOFzY4ymwsOxQavzQ1F0eCK70Y0fggJXSBmCIQSDgQTHkTjXsRFBRS9Dgo0U2objx7Z+EeWhKHg+xuc+NE5QXhdqW/xTBNjAJCkLbQdewObZJdBKVABeEe+B3jPBDLccY6S09dzPR7T7dK/3R6bhhqXAwPhzA+McmsqprscmO9pwBzvXCysOA2V7sUZXTOeGMeewR04ODKMdr+CgfA0INGCTD/iDSEwYtKyv1QE4nZ896lx/L93uaEqfHCdLQwAEhgw8MzQXbLLoDQ0iEHsHv4Fyn2fl11KwQv6H8Y9wf0wFGusx5/udWE4Goee4gb4qgLMcDmxsrwZp1efh8ay07Nem91WhiX1J2NJ/Rt/FokO46Wu57F5QGAgNB+qUT/xBSYwElWg52rm3xS6Q2X4+XPtuGZNi+xSCgYDgATbx5/FYKxLdhmUpsbA7fBXfAxqGifOUXL0WBfu67sNYcX85X7JsqsKppW40OGf+nROVQGanHacVX0czmj4NJz27O9WOBWX04c1s87FmllH/ru1fzOebu9GV2ApVGPq+RRxAxiLWKPzf83GgTo8vH0fzj9uruxSCgIDQI7pIo7nhx+UXQZloAwRdA39EBU118supWCt7/gM+iRN+ptMrduB/nAUkQl2wynRFJxWOR0XzbgKVRk+1s+2hbXLsbB2OXQ9gacPPYUNPR5Eo8uhTDC+ks39/rPp7n2NWNrQj6bqWtml5D0GgBzbNv4Mgvqo7DIoQ03hhzCmXwtFs84daqHo6roWL1mw8wfeWBa4d/Stk3cr7BrOqp6H9zV/CzbV2psHaZoN75x9Nt45G2gb2oX793ViOLgKCt5Y7hhOCIRyvOwvWbpQ8MMXNPzkPAM2lfMBMsHvXg7pIoEXRx+TXYZp7KoDFbYqlNpqYdimwdBqAMWcmcmylSCO8eGfyC6j4EQCz+CBcJ/sMiZV4bSjwmkHAJTaVFzWeAJuOfFOfLDle5bv/N+upWoRvnzyubhm1SBqSv8JgTgEgKGpRzmkGom68ev1bbLLyHt8ApBDrYEXCuaY3wpbFWa7F6HB0YR6RxOq7DVwKG/cQYy//v8ZUPVhqHo7tFgrbLHtsEVfhiLyf+fDhtBjCIpvQFH4a5QNhoji0Z6fIJTjzX7SsdgLTPMtxntnfhtaAYTcqtK5+MKqudg3vAN3bwVi+izZJU3phYEGrDrUjhNnNssuJW/xkyuHtoz/U3YJGfFqpVjmXY3FnhNQ55ie5LtUGFo1DK0aCccKRAFAxGGLbYIj/Dgc4b8DIvOlVTKUKyH0jt6KssqrZZdSEPZ2XJ3znf5SpcLAKWIEq1p+DM0xW3Y5WTfXtwRfPxN4ds9u3N7aiIhu3S5CCOA3Wytx/PQ47Da77HLyknX/dQvM4che9EYOyS4jLVW2OqypOA8LPcuhZeNuV7Ej4TwZCefJCJd9Ec7gvXAG7sjLpwKlgbsBBoCMRYP/wt/jhqWHjKYZozjP9x6UV31MdimmWzN/AVY2hXDTC/3YNmzdyXahhA23bOjA504vvDCWC5wDkCPbxp6VXULKPGoJzvNdgk81fhNLSk7MTuf/NkL1IVJ6Fcbr7kO05GLk249ko+hDJLJRdhl57+nuGxFRrHkXpwBYLYbx4Zb/K4rO/zUetwfXnTkTVx3XC4dq3ZNKX+yvx4H+w7LLyEv59Wmbp6JGGPtC+dVJzHEvwdWN38CK0tNzMsYp1AqEy78Cf/X/wbDl15heYvRW2SXktZ6er2O7WiO7jGPyigg+4pmBU+bcD8VWKbscKc6YNws/eGcE9W6/7FKOyYCCm17Or8mXVsEAkAN7gy8jbuTHOLeqqFjn+xAuqf0sSrXcHbv6Gt2xGP7q2xFzn53zttPVEHsZAhI3S89jqj6KF/1bZZdxTI3GGK6s+wTqGr4juxTpqsuq8YN31eCEKmseyjMSduHl59fLLiPvMADkwG7/y7JLSIpLdeOy2i9iZekZUusQqhuhyu8hUno1pG8CnwQvogj5H5ddRl6qOPxJXBV6AudFN8EprLPwfIkYwIeafwZ36Ttll2IZqqri2rUz8f7ZXVAU62wStHx0N25+5b+w6qG/QETzbx6RTAwAJovqIXRG9sguY0ou1Y1La7+Ima55skt5lYJI6ScRKv8P5EMIQPCvsivIO1psP5yjD8AmdLwzug1fC9yHk+N7oJh15F6SThaDOHf2PdCSXulSXN57/Fx86fgOaJJDwLRwH77Zegtu3P5jzAx1oyY8gu77/yC1pnzDAGCyA+EtMERCdhmTcipuXF73ZUxzWm/sPVZyEcLl18guY0q1se2yS8g7lYc/ARhv/G6UiRAuDj+Pa4IPoUWX86h5rTKK1XPug6JwTHkyK2ctxLUr+2FTcx8C3HoEl7c/hFte+Q7WDL51btXsjVsQHx/IeU35igHAZB2hVtklTEqBgouqr0S9he92oiWXvLpCwLrKEEY8as2xbCuyRzbDPv6vY/7ddH0Inws+gkuTqcaiAAAgAElEQVTDz6LcCB3zNWY4Swli5az7oHB1dFKWNbXgayeP5iwEKBA4u+8F3Lbxm7i84yHYjaNvrMriQfTfe0dO6ikEDAAmOxzZK7uESZ1ZcSHmeZbKLmNK4bIvI+FYLruMScXGH5ZdQt6oOHw1ICZeWqYAWBE/gK8F7sU50S2wC3MnWZ6KURw/605T2yhECxqm4doVA9BM7kmWjO/DzZtvwFf23orK2Pikr124Yyuiw93mFlQgGABMFNBHMBq37uOoGc7ZOKX8LNllJEexIVRxPYRi3SN4XbFNskvIC/bodtgCryT1WgcSODe6GdcF78PSxCFT6lklBnDK7LtMuXYxWNo0E58+7rApEwNroiO4bs+t+J9tP8LsQEdS73HpUQw9fE/WaylEDAAm6gxZd/KfTXHgwqoroebRj4Bha0Ck7POyy5hQld4BSJ7Alg/Ku6+d9O7/WHxGAFeGnsJnQ49hmj6ctVrmGkM4veUOPvbP0Clz5uFDs7uydj2nEcOHDj+O3276Ns7qfwGKSO33qmXHLiRCY1mrp1Dlz6d/HrLy4/+Tyt6BSrs1j1ydTLTkvdDtVlmp8FZuxJCIcjLgZNREP+xjT6f9/tmJXnw5+CAuiTyHUpHZkXU+I4B1TTdC0bwZXYeOOH/ZPKysyfwkx5OHtuK3G7+NT7TdB7ceSesa5bEA+p64O+NaCh0DgIm6Ivtkl3BMHrUEq8vzZ6Odt1IRKf2M7CImFA4+J7sESyvv+Tcgw1UxCgRWxvbjq4H7sCa2ExpS36bWKeL4YPX74HAuyKgWeqsvrmnGNE96d95zAh34ybYf4ru7foG66FDGtTS8vB3C4AZdk2EAMIkBA8Nxa55rvrLsDDgVt+wy0hZ3rYbuWCi7jGNSYrtll2BhBpwj2dsvwS1iuDDyEq4L/BXL4odSeu97XF54Kz+ctVroCBUq/uMMJxxa8h2vLzaOf9t7G36x+QYsHsveTVN9aAh9zz2YtesVIgYAk4zHhyy5/l9TbFjpXSO7jIxFPR+QXcIxeRLtskuwLO/wr6Dowaxft9oYxxXhp/Cp0BOoN0anfP1SMYSZ03+Z9TroiAqPD588burJzzah471d/8CtG7+Jc/ueN2UDKPuLXJo7GQYAk4xa9O5/nnsJSrQy2WVkLO4+B0Kx3titV1h31YdsnsGbTb3+vEQ3rg08gAsjL8Etjn32RqUI4symn5paBwGnzp6FE6om/gw8eWgrfrvp2/jMwTvhSXOcPxlzew8hMsRQPhEGAJOMWDQALPScILuErBCKE3HXqbLLOEqpCAEmr1nPR1r8MLQcbIqlwcCa2E58PXAPTo/tgvq22ePrPLNgd7SYXgcBn1/dCLf21qegM8J9uGHHz/HdXb9AY9j83R5tRgJDf3/U9HbyFQOASawYADRFw2z3ItllZE3CZb2hDBUCRjy59crFpLT/uykv/cuER0RxUeRF/HvwfsxPHFmetkQMorHx+zmrodg57E5csfjI52BpIoTPHLgTt2y6HieO7MhpHbU7rDkZ2wq4+NUko3HrHZtZa58Gl+qRXUbWxJ0rZZdwTOFoK0p4l/kWrlE5k7HqjFFcHfobttpbUN78Gyk1FLPT587F4CuP4tKND6A0nv35H8mY5u/H7tYX4Vt4kpT2rYxPAEwSyeEe5slqdMyUXUJWCdUHQ6uRXcZRhD4ouwRLsUVboUgOxAu9C+Hk0b4pi0QiCAQCiETSH6c/57Q5cBjHnpORK+EXX5TavlXxCYBJYsK8iS3psvKBP+nS7Qug6taaeKfoI7JLsBTv4E+BFHdyyyrVjpFpt8prP8+Ew2Hs2b0P7YfaEQq+cSPjcrnQ1DwD8xfOh9eb/JbcJdPmoXX+Ehy/a7MZ5Saluo3DcsfCJwAmSRhR2SUcpdxWKbuErDO0etklHEVJYilaMXH6/ya1/ajvvTDsdVJryAe6rmPHtp146IFH0Lqz9S2dP3DkacDePfvw6MOPYd/e/Sldu+riDyBkk7f3yPTxPgQP75TWvlUxAJgkZsEAUKqVyy4h64Rqve2MRYZb1BYSVR+FGpZ496XYMNbwM3nt54mOQx14+MFHsX3bDuiJyVex6AkdG1/ahNZdyW965axsxt658rbwVoTA6AsbpLVvVRwCMEncgkMAzgKaAPgaoVpvTwMhrBf+ZPGM3AKksVVvtsQqzoJus95TIqsYGR7Bpo2bMdCf+jDa1s3bUFNTjeqa5EJ4+XsuRGLPTtgMORukefdyP4C34xMAEwgIJIy47DKOoir8586JCTahKUausUfkNa6oGGvk3f+xxGIxbNq4GU889mRanT8ACCGwdfO2pF9f0jgPu2fMSautbJgx1AUjwadzb8YewQQKFHa2RY3/9q+xhXO75vvNdM8CJBzWPDlSFsMw0LprNx66/2Hs3b0XIsPJmf39A/CP+5N+vXqGvKV4Lj2GkZ0cBngzflKZxKY6ZZdwlKhhvWGJjFlxvF1xya7AEtREP5S4vBURoaqrpLVtRV2Hu/How49jyytbEYtl7wnlwGDyy16rTzgL3V55S3cju/ZIa9uKOAfAJHbFiSistRdAQB9Dtb2wxkNV3XobLikqAwAAeMb+AphwwEtSNBcCvs/Kadti/ON+bN60BV1d3aZcPxpO5cZCQf/CWWh8Wc7SXVen9XZolYkBwCQOC3YCfr3wlqepuvV+oRUl+TXShUzm8r946amA4pDWvhXEojHs2L4T+/buh2GYNxFTSXG4s2LtOyE2vgRFwt4QjYO9iAgj5ZoLFb8LJnFYcAigL3ZYdglZp8VTW4+cC4bmk12CJdjC8tZdByuL9/G/EAL79u7Hww8+ij2795ra+QNAaXlpSq/3TFuEzjI5+zKUxwIIde6V0rYV8QmASRwWHAfuiXXKLiGrFOGHqlsw1DAAAABUWQdiqQ6EKy6W03YWGQIYDQuEEwK6ABwqUOFW4LIpE76nr68fr2zcjNGR3Dzts9ltqKutTfl9w7Ob0PRKrwkVTS1wqBUlTQuktG01DAAm8WrW23WvO9qOhIjDpthll5IVtuh2SBtjnoTDPkN2CdJpiT5AlzNBU/fMB6BJaTtT41GB1gEdrQM62kcN6Me4efe5FSyo0bCgRkNzuQpFAQKBALa8shWdHbkNxHPmzIbNnno34j5hMfDKSyZUNLVEpzlzIfIRA4BJKiy49WhMRHEosgdz3Etkl5IV9uizsks4JqdzoQVjSW45A/LG/6Ne6x0TPRV/VOCptgRe6U7AmOKHZzgs8HxHAs93JFDtAWarPQgefAW6PvkOftlWUlKCJUsXp/XeyoWnI2C/E9547idK2/t5VsdrOAfAJD4LBgAA2BNOfuMOazNgi1gvAERhs+TuhLnmCMm5uwOASPkl0tpOxwudCfx0QwQbu6bu/N9uMAS8GGhAW8Uq6Fru5h253W6cedYZsNvTfJqoOdDlk/MZWTZaeJOh08UAYBIrPgEAgB2BjYhace18iuyR56Fa8Nhdv1IhuwRL0KLJ7xOfVaoTUc9qOW2nSDeA+3fF8OjeOOIZ3rwHHTU4WLUGEbv5531MnzEN684/F6WlqU3+e7vQdDmfkbWBYSntWhEDgEkqHdYMADERwY7gy7LLyNjw0y9gYNB6na1fa5RdgiVocTnjrIZzmpR2U2UI4M/bYnilJ3uP7ROaG+2+1YjYzAkBpWWlWHPm6Tj9jNPgdGb+tME+qykLVaXOpccQHbXe8mEZGABM4lTd8GjWfBT8wtg/oIvcjhdmk9pzGI3/2APf7U3o+stxOLSnESavdEpazC5vr3MrUeJDUtrVnbOktJuqJ/bFsW8o+7+DhmpDZ9VJSGRxHxK7w47jly/Feee/C9OmZS/gemfNz9q1UhXpbZPWtpUwAJio3jlTdgnHNJwYwJbgetllpM35yD3Aq5uI1HcrmPFINYZ/txRtL7UgGpG7+YvdtVxq+1ahGgEp7cZd1p/guqNPx4ZO807ES6gudFWuyHgiqqIoaGmZifMvOA8LFy+Eqma3u/A0zEXALueE0thQj5R2rYYBwETTXdY9iOSZ0UcRMay1VXEytL07Ydt99AEzlWNA079Kof92Afb/bQGGhswfC307AQXukrU5b9eSdDnnTsQ9J0ppN1m6Afz9gPknhYYcVQi4079br6urxbvOOwcnrz4JLpdZe5qoGPDKWS4dHx6X0q7VcBmgiaa7rRsAgvo4nhi+GxdWXym7lKQp0TBcd98+6WucMaBlhwNiZzM6pxsQy4cwY3YPlIn3TsmaIcUHqLkPHlajJgYBSUNMMc8qKe0ma0NnAsPh3CwS7S9dCG+4FwqSHx/zektw/AnHY0bTdBMre0PI6wEkrMoT43KeUFkNA4CJ6pwtsKtOxI2o7FKOaVvwRcz3LMMCz/GyS0mK8/6/QB1JbmxZEUBjpwp01mCwogbjy/yYsbQTDrt5j1799gWw3v6PuWeLH5LUsoKEfbaktpPzcpd5P39vF9NKEHDVoDQy9YQ3zaZh0aIFWLh4ITQtd5soxUvkDAEgUIAno6aBAcBEmqKhwTkbHeFdskuZ0AODv0dVQy1q7NaevW5/8TnYX05v3oJvFPA9U4rohkVoXxRFzYouVJRn/w5AuPNvAxozqAk5J71BcwLIwaOeNPX4DYzk6O7/NQFX/ZQBoKVlJpadsBRutzsnNb2ZKJUTANSE+cMw+YBzAExm5XkAwJHdAe/s/zUCul92KRPS9u6E694/ZnwdZwyYtcUJ762z0Hn3EnTsb0C2DiTTocDlPT87F8tzighKaVdY8ACuN9s9kPulKn5HPSYKRdVVVTh73Vk4efVJUjp/AFC8cp6ZqTneNdGqGABMNsuzVHYJUxpJDOAPvT9GULfexBjt4F64b/slYGTvF/a14YFpD9Zg8LalOLCpBbFYZg/DetVpULTMNkYpFIqkFQCw+BkX3f7cBwBdcyKuvbVzd7vdOHn1STh73VmorqrKeU1vpjjk/JspCYusG5aMAcBk9a6ZKLdVyy5jSoOJPvyh7+cYTchZv30sttZtcP/mp1Bi5o3X+UaAmc+UIv6bRTj4z3nwj5ekdZ2Q8/QsV5a/VEPSEwBF7hLQqYyE5XQ6MduRn2lVVTFvwTy8+4Lz0NIyU0otR7HLeQKgJfgEAOAcgJyY4z0Bm0blHY6SrIF4N27t/QE+WP0pTHdJ3FBFCDiefgLOx+5Drnb4cUWB5i0uiK2z0T5Th3rCAGY09yf1XgOAq/IKcwvMI0IAUHPfGQuTdsDLlmju5v+9hQEbZjRNx/EnHA+vN72AaxaXQ4Mh4XF8SZSrAAAGgJxY5D0lLwIAAAR1Pwbu/xFmV5+H6DvWAWpuj1VV/eNw3vsH2HZszmm7r1EEML1NA9rq0VtTj+CyMTQt6oTdNnEQ6VZnwGbLjy1ocyFRshyozP0ubwm3tZ/C5GIp6rEsO34JTprrk9P4FGYMHkB0KPdnetSLIHgkEANATtQ5m1HjnIGBaKfsUqa04JCB0zcloIj7Ydu1FeGLLoXR1GJ+w0LAvvF5OB+6C0pIziPkt6sZAGr+Xo7g+nJ0LA6jbnkXvKVHb54ULnk3vBLqsypZj+IVYc3ltq9x2RUgkvuDohtqrXdmxusicg4mExpHvwEGgJw5rvQ0/DN6h+wyJlUREPjQ33Uor35GqR1tKPnf/0Zi2UrEzrkAem1D9hsVArbWbXA+dj/UHmsGpJIwULLRDX3zHLTN0uE8oQ+N047ctURgQ0n5R+UWaDFC1m4IFt1v4zVVbgW9Ehbb+NzWXRqpxiIZb1mcFs2635NcYgDIkcWlp2H98P2IGtY8ilcVApc+nkDJ29cpCwHblpdh27oR+txFiJ26Fon5S4B0zwF/lRIKwr5pA+zrn4I6mB8nc2k60LRPA/Y1ore2AbGlo4ge3wyvKmkzE4sSipzleAqsvbnLzEoVO/tzO95dXaLA67BwZxeW82+m2HM7tGlVDAA54lTdWFR6CjaP/VN2Kce0br2BmT2TZHEhoO3dCffenRBOF/QFS5CYuwh6UwuM+sYp5woo0QjUrg5o7Qdha90G7dD+nE3wM0NNvwLjn5XoXvll2aVYj6QhAM1CK1iOZVGNhkf3xHN6x7uwxtodnTI6IuUJgGAAAMAAkFPLy8/ClrGnIOQ89JrQgkMG1mxJ/s5EiUZg27oRtq0bAQDCboco90GUV0CUvGktvJGA4vdD8Y8d2cI3W7vuWET7wjqU1M+VXYblCFXOpjKqMXzkDALFmh/upU4FjWUqusZzF3wtHwDGJR1IZrP2nhG5wgCQQz57PeZ5T8SewEuyS3ldRUDgQ08mXh/3T4cSj0MZ7APy5FF+NggFwLkfkV2GJRlqJY7sPpfrwGdAM4aga7U5bjd5a5ptuGN7LCdttVSqmF5m7cluQtae/BWctgtwI6CcO7XyAigW2a/89XF/aw+dWlLn3CqUNC2XXYYlCcUOQ5Uz81zTu6W0m6yFtRqays3/2FUAnDvH+ne5IihnT37DZ/3N2XKBASDHqhyNmOe1xpnl563XJx/3p2MSCqCvu1x2GZam22qktGuLHZTSbirOm2eHzeRP3hOn29Bo8bt/GAmIqJwd+Yz63Bx3bHUW/wkpTGuqPgBNkTv6suCQgdO35O8kPJkOLpuOkpaVssuwNEOVFADi+6W0m4rGMhXvW+Qw7TlgU7mKdXOtf/fvan1a2rygxDTO3QEYAKQot1XjhPJ3Sms/G+P+xSpmV+C48HOyy7A8XWMAmMySOg1nzsp+J11bouDSZQ7kwz43th0bpLUdn75EWttWkgc/JoXp5Ir3oETL/d7lmgFc9hjH/dN1aM3xcFbOkF2G5ek2EzaNSoIjtgNHTmewvrUtNnxwsQO2LE3Un1ul4ZMrnPDYrTHHaCpa6x4p7SqaCqO8TkrbVsMAIIlT8+DM6g/nvN11zyfQ3Mtb/3QMVTlQdi7v/pORsM+W0q5iBGCP7ZXSdjqW1Gv4+HInGjIYr3dowFmz7fjIMseR7YbzRfewlGYVDxe/vYYBQKIF3pPQ4jkuZ+0t5Lh/2oQCjF58BVSHpG1u84ysAAAAjqicg6TSNb1cxadXOvGBxQ5Ue5LvwB0asGq6Ddec6sKamTZphw2lQwuNwghIOh6xylonIsrEKCTZubUfxW2d/4mIbu4BOBUBgQ9y3D9t+06Zi4oFa2WXkTcStmYIxQ5F5H6ZlyP6IoKll+S83UwoCrC0XsPSeg19AQO7Bwy0jegYCAmEEwK6AbhtCspdChpKFSys0TC7Usva8EGuuZ76A3K/T8QRotG6+0TkGgOAZF6tEudUfxQP9v3CtDY47p+ZYZ8D5Rd9RXYZ+UWxQbc1wRY/kPOmneHnoYgIhJKfT2vqvCrqvCrOaCncj2fbhvXSZmrocxdLatl6OARgAfO8K7DIe6pp1z9vvc5x/zQlbMDY5Z+F4uCBP6mKO+QstVJEBI6IdXbbpGPoHJHWdGzpWmltWw0DgEWcU3sFap1NWb/uwkMGTtsqZ7ONQrD/gndwzX+a4o6l0tp2ha156BYB7ufvghGXc/+vODTEGxZKaduKGAAswqY4cEHdZ+DM4kEqlX5w3D8D+5c3wbfm47LLyFsx5wnS2naH/gZFcMzLihyP/VVa22o1JwC+GQOAhVTY63B+3aehKpn/s2g68BGO+6etr8GD0ku+JbuMvBZ3LIBQ5XzgKkYArtA/pLRNk4iFIQ7JWf4HAMb8ZmltWxEDgMW0eI7DWdWZ7zN/3vM6ZvRxyV86Rirs0D/1HSgOOcfaFg4VMccyaa27g/dLa5uOzXvvDyF0eZ9LsVXnSmvbihgALGhp2Rk4sSL9H1SO+6cv6FYx/unrYKuQs5NdoYk55Z2Y6Iy8JGUVAk1Me/pFaW0rmorIMgaAN2MAsKg1VR/EsrK1Kb+v0g986Emd4/5piDoU9F39ebjrOUkoW2LukyW2LlAy/nuJ7dObuf/1Jxj+mLT2lWqu5Hk7BgCLUqDgrJrLsbA0+Q9QzQAufSIBT4S9f6oiTgWdn7gK3pZVskspKDHHcTBUeWeve0IPQ9P7pLVPb3Dcc7fU9o0Vudt1NV8wAFiYAgXraj+JJaWnJ/X6d69PoLmH4/6pijgVdH7yKpTNXyO7lAKkIuKR+H0VCZSM3yavfQIAuF55GEa/ubudTkoBguuukte+RTEAWJwKFefWfhQrys+e9HWL2gys3srOP1Vhl4ruT30O5XPZ+Zsl6j5TavuewF3QEp1Sayh2zt/dIrV9tdwFo4qneL4dA0AeUKDgzOpLsLryvVBw9IkfvjGBD/2N6/1TNVJhQ/8XvwrvLJnj1IUv6joZIov7W6RKEXGUjv5SWvvFzv3072EMhaXWIBa3SG3fqhgA8sgpvvfg/LpPw6Y4Xv8zzQAueVKHW97cmrzUM60E4WtvhLuR+4KbTShORF2nSWvf0MoRc8rblbDYibJKqKWOqV9oosh5V0pt36oYAPLMfO+J+OC0r8CrVQIA3v0vneP+KTqwfAaUa34OW1md7FKKRqjkAgmtqgh73oOBhgcRKv2whPYJACInXICxXz8C8d4zodpz3+WoFS7EWlbkvN18wACQhxqds3Fl03dw6kATVm/jev9kxW3A7gvPQOmV34dqd8oup6hEXadB12py1l7MuQqD9XdhtPoGGGplztqliQUu/joCv7oH6klzoai563qM1fL2orA6BoA85Va9OPmkb2Hbu1ciXrinhmbNUJUTnV+4Fr4zORNYCkVDuOQ9pjeja/UYrboBQ3W/Rdwxz/T2KDW6uxRjX7oZkf/6b2gzKkxvT1EVhN57rent5CsGgDymKhoazroGB7/4BfTVyh1jsyqhAHtPnInEV2+Ct1ne4TQEhEveCxxjEms2CNWNQPlnMND4UE6CBmUm1rICozfeDf3Tl0MtMe+zS2muhO4xP2jkKwaAAlDZdBKMr9yEPacvQkKTXY11DNQ4sf8zV6Hisu9xX38LSNibTdgaWEW45EL0NzwMf/lnIBQO7eST0JorMPbrB4B3HA9Fy353FDv/A1m/ZiFhACgQmt2Dyvd/HYf+/Trsm18uuxyp4jZg39plMK77JcrnnSG7HHqTYFn2ZmPHnUswVP97jFb9F4wczi+gLFNt8H/yhwjcdDvUxY3I1lMitdyJ8CkXZ+VahYqjxwWmrGEp8JlfoHXLX1Hz4AOoHk7ILilnDEXBwWWNcL7ncyivapJdDh1DxL0WCfss2OIH076GrtXAX3ENwiXnw6whBco9o7wOY9/4PRz7X4D75hth9AYyup6+7h1Zqqxw8QlAgao6/r3Qv/5r7LzodAxXFHbOEwpwcFEtDv37dSj76I1wsvO3MAXB0o+k9U6hOBEo+zgGGh58dZyfnX8his05GWM//iuMyy+A4krvs0tx2RA4/0tZrqzwMAAUMMXmRM3aTyH2rVuw/eJ3YKC6sCYK6hpwcEk92q+5Ft6rfwzvNB72kQ/CJRekfEBQ1H0GBhruh7/iGgi1xKTKyEqC676A8d8+BOWdy1OfH3D6MkDlhKipFPatIQEAVM2ButUfh3HqR7F7y4Nwrn8SzQfGoYr83Ds44FFx+MSF8Jx5ObwV02WXQykSigPBsstQOvqzKV8bdyzAeOVXEXNyI5eipNow/okfwPbufSj532/CODQMTPGxpdpVjF36rdzUl+cYAIqIoqjwLb8IWH4R2kfaEF5/F+o2tqJq1PrzBBI24PDsKsRWnIby5RfAx4188lqw9CPw+P8y4VG9hlqBQPmnECy9BHxQSYn6uRi74U64tj4G1y03Qx+JTPhasXY54ORTomQwABSpksoWlJz/VejvFti3fz0S25+Cb08bavtjljlUKG4D+porEFy2At6VF8Lj8cEjuyjKCqE4ESi/GuXD//XWv1BsCHo/BH/55yBUr5ziyLIiy9Yh8ot18D78U6j3PAERe+vNi+KyYfzK70mqLv8wABQ7RUH53NOAuUcOazk80oH41qdh37cTZYf7UT4Wz1kphqJgqM6FkTnNMBasQOX8tXDY3SismQv0mpD3/Sjx/+n1FQFR18kYr/wqEvbZkisjqwucfw1w9lUo/9VXIF7eD2EcuWsxzj8TUNmtJYvfKXoLZ2UTnGuvANYCUQCd/h749z8PW/sBuHp74R72wzsehTuS/gFEQgGCHhuClW4E66oQnTYdjual8DatgGJ3gvt2FQsV/vLPoXTs5xiv+HdE3dyzgVLgLMHYl26GvXcPPDd9GxjwY+x918muKq8wANCknKUNcC5/P/DqBm4CgB/AcGgYkf4DMEZ6IGJhIByCiEcgYiEokSgUzQbF7oDhckPVnFA8pTDKKuD0zYC7ahag2aAA8L76f1ScIp6zEHGfCSj8KKL0xOvnY+x7f4EW9ssuJe/wt47SYvf4YJ/pA2bKroTym8LOn7JCd5fKLiHvcHotERFREWIAICIiKkIMAEREREWIAYCIiKgIMQAQEREVIQYAIiKiIsQAQEREVIQYAIiIiIoQAwAREVERYgAgIiIqQgwARERERSivNuEeDAls69Vll0FUNPj7RpS8wZCQXUJK8ioA7B/SsX+IH0hEuXLPzpjsEojIJBwCICIiKkIMAEREREWIAYCIiKgIMQAQEREVIQYAIiKiIsQAQEREVIQYAIiIiIoQAwAREVERYgAgIiIqQgwARERERYgBgIiIqAgxABARERUhBgAiIqIixABARERUhPLqOOBqj4LGMmYWomRt683s+Oyl9VqWKiEqfN3jBgZDQnYZScurADCnSsN58+yyyyDKG9t6wxm9/wOLHVmqhKjwPbo3jsFQQnYZSePtNBERURFiACAiIipCeTUEQERE5hFCIBKJIBFPwOlyweHgkGshYwAgIipyo6NjaN3Ziq6ubsRj8df/3O12w1dVCZ+vEpW+SviqfHC73RIrpWxiALAIoScgomFAT0BAQFE1KDYHFIcLUJTMry8MIBqGkYgDwgAUFYrNDsXhgqJmYY5XWfsAACAASURBVKa3EBCxCEQiBqHrgKJA1WyAwwXFlp27CJGIQcQiQOLVSTY2GxS7E4rdmZXrQ0/AePO/gaICdifULP0bEFmNEALbt+7Arp2tEOLo2evhcBhdh8PoOtz9+p+5XC74ql4NBD4ffL5KeEo8uSybsoQBQDY9ASMwCiMWecsfv/6rqKjQSsqguL3pXV8IGMExGJEg8LZfcAFAURQorhIonjIoanpTQoxIEEZg7EiweBMdAIJjUBwuqN4KKFp6P24iHoUeGAUS8bf+RfTV/9VsUL0VRzrqdK5v6DACo0cC2Jv/HADCARiqCtVdCtVTmtb1iazqpRc24uCBgym9JxKJoLurB91dPa//mdPpfPVJge/VJwWVKCkpyXa5lGUMABKJeBT6+BBgGJO8yIAeGIUaj0It9aV2J2roSIwNHt1xvvnyQkCEA1DiUWjl1UCKTwP08WGIaGjS14hYBMZoP9RS35EnGikwIkEY/pEpikjAGBsEPGVQS8pSur5IxKCPDh4VXt5ahAEjOAbEo1DLqvg0gApC24G2lDv/iUSjUfR096Knu/f1P3M4HW8EAl8lamqrOXxgMQwAsuiJqTv/NzGiYUAZhVpamdz1hThy/Uk6/7e8PBFHYmwQtorapDu4I3fNk3f+r1/fMKCPD0GrqE16SEBEw1N3/m+uJzQORdOguJK78xB6YurO/83Xj0UgAiPQSn1J10RkRbquY+uW7aa2EYvG0NvTi96eN0KBr6oSCxctRFPzDFPbpuRwGaAkun8k6c7/NUYkCCMenfqFAIxwACIeS62oRBxG2J/US0U8BiMcSO36QiTfoQsBIzCa2vUB6IFRCCO53e+M4NHDFlOWFQkdmYdAlMd6e/sQDme2SVQ6hodGsP655/HMU88iHk/u5oTMwwAggYjHIJLsyI96byi5DtpI8nVHXT8cOGquwDGvn2RQOOr6ieS+diMSTLojf2sDAiIcnPp1r026TEO631siqxjoH5DafndXD557Zj0MI3+2zS1EDAASiHj6d5AiHp2ygz7ymtTubF9/r2FM3UG/OuM/Xcm8N7PrT92xG2l2/kBm318iKwiFcn/3/3Z9vX1o3dUqu4yixgAggdAz2CtaiCnfn9H1k3i/MPSknhJM+P5k5iVk8DUk8/Vn+j3KpD4i2dQ0V/xkW+vO3RwKkMgaPwXFRs/shLYp7z5TnFuQ8+sn8f60Hv+//mYxdUDJ8A5eZPo9IJKorNQaS1rj8Ti6D/dM/UIyBQMAHW2qzpOr4DJ6AkIkW+O0BtklvG5oaEh2CUWLAYCIqMhUVFagrq5WdhkAgEiUq2pkYQAgIipCK1etgKZlYRvwDNmztFU4pY4BgIioCJWVl+G0M1ZLDwFl5ant3knZwwBARFSkGhsbcM67zoKvKskdRs2owULzEYoNAwARURGrqKzAqpNOlLJPf4WvAqUWWZFQjHgWABFRkYrFYti+bSf27dl3zOOAzTazuSnnbdIbGAAytGHbDvzmwb9hT2cP9CTXlv/s4+/Hitnp/+B//se/wqYDHRP+/RVrV+Hqs1enff3bHv0Hbnly/YR/v3hGPX796UvSvv6Otg586qs3Tvqav/3n5+BxOtJu4x1f/DpC0YnPQvj+Ry7A6Qtnp339627+HZ5rPZDUa71uJ955/BJ89gPvQTnvdsgCDMPAvr37sWPbDsRi8jbimd7EQ4FkYgDIwP/d/wj+8/Z7U07OkQx/4frH/OgYGJ7w70eDmW3zOR4KT3r9Kq8no+vHEolJrw9kvsy+c3AYwcjEASCc4b/BwBT/Bm+3q6MH92/YhL9+72torK3JqG2iTPT19mHTxs0YGx2TWkdVtQ+lpV6pNRQ7zgFI0679bfh2Gp0/Fa/OgWFc87NbZJdBRco/7sezTz+Hf/79aemdPwA08fG/dHwCkKY/PfkUDHb+lKJ/7dqPQ929mNlYL7sUKhLxWBw7d7Ziz+49MHTrbGHdxMf/0jEApOlAd7/sEihP7evoZAAg0wkhcOhQO7Zs2opIxFq77dXUVMNTktlQImWOASBNiUSGB/pQ0YrHeZIgmauvrx+vbNyM0ZFR2aUcU/NMPv63AgYAIqICEQqFsG3zdrS1HZJdyoQURcH0pumyyyAwABQkTkw0H7/DZCV6Qkfrrlbs2rkbeqbHjZustrZGyqZDdDQGgP/f3n1Gx3GdaQJ+b1V1DohEIkgwgQEkQYKkKI0kirIkKlHBsmyP7XUaSSPvesZzNs7Ozs7u8cyPCd7Z4531rgOlHVG2JFsaW5ZlWlmkKDGIJAgGACSYI0BkdKMbHaur9ocEm5SJ7uru6i6E9zkHv7rq3ltoHNyvbtX9PgsEo/k9j8u0zS+UZ/vBSPr2Rwvc/ngfHmdueQCSqRQi8fTb/Ebz3Cpp5BqIiuHihUs41HYYkbGI1UMxZC6X/ycNBgAWuDyU+3M5TdfRPTSS9phLg/k998t0/pWRUagpDYqc2y5SI+O7PBRAbVluRUIuDY5kXAW5lMd3AOT3HRKZYXhoBAdb2zA4MGj1UAyTJIH6ObOtHgZ9jHkALPBe56mczz109lLGFYAPT57LOdGNmtKwu+ts2mMi8QT2nzqfU/sAsKPjpCnHTHhue+Zz38uj/a7uPvQMW7+PmmamaDSKA/ta8dYbb0+pyR8Aqmuq4XQ6rR4GfYwBgAX2HD+LzktXcjp3644PMx4TTSTx4u62nNr/l72HDC1vP7M98ziu5+LgCHZ2ZA6AfrrrIMKxeNbtqykNz7/fmvG4Q+cup02nnM4z7+7N6TyifGiahhNdJ/GbV1/H6VNnpuS7Pg1M/jOpMACwgKbr+JuXXoeaZVKOPV1n8eqBDkPH/tO2HegNjGbV/mBoDP/zV+8aOvbNw8ex3cCd9tU0Xcd/ff5VJA28pDQ0GsZ3X92eVfsA8KO3duF074ChY//6pdeRyHI758EzF/HSnkNZj4soH5cuXsZvXn0Nba2HkEwWP3f//PnzMDvPpXtJkjC7nsv/kwkDAIvsPXEOf/XCr5HSjAUBXd19+DdbXjQc9Q+FxvD4/3keI2FjLwaNRmP44++/gP5gyNDxAPBnT/8L2i/2GDpW03X89YuvYWfnacPtP/XOHjy/84Dh41872Il/NBjAAMDhc5fxH7e+bDgQO9M7iCd/8FPD3xlRvgIjAWx/ewd2vb8b4fBY0fuvrKjApvvuwk233AibnN8rY7W1NbDnUeCLzMcAwEIvfNCKr3/vJ2lfKNN0HS/tOYRH/mGL4cl8XPvFHjz0dz/CvgzP6w+euYiH/vZHWS+Jj0Zj+Ox3nsYL7x9IOyn2DAfxxPdfyOmxwX95/lX8959uS7vzIBJP4DuvvINvbnkx68n5lf1H8aXvPoOzfRM/S9V1Ha/sP4qH/+5HGBgNZ9U+US7i8TgO7GvFG6+9hb6+4mcddblcuOmWG7HpvrtQWVEBAHC68nt2P2ceU/9ONtwFYLGdnadx+3/7X9i8dgXubF6CBVUVcDnsGBgNo/X0Bbyy/yhO5pF2+MLAMD73P/4fbl66AJvXrkBTfTUq/V4MjoZxorsPr7Udw/vHjN+Vf1I0kcRfPPcqnnp3Lz69vhnrFzWgqsSHWDKJc32D2N5xCtsOdCCWx7Ll1h378KsD7Xj4hpW4rWkR5swqhwDQPRzA7uNn8cr+o1mtXHzShyfP465vfw/3tizHplVLsKC6Ej6XAwOjYRw8fRGvtrbj2KXenNsnMuq3ZXrbO5FIU866UGRZxtJlS9C0fBkU27XTQ0VlRV7t1nP5f9JhADAJJNQUfrnvCH6570jB+tjTdRZ7Mrzdn48zVwYMvz+Qi5FwBFt37MPWHfsK0r6a0rCttR3bWtsL0j5RJld6etF28BBGg9m9u2OWOXPrsXrNani9nut+XltXC7vDnlNg0jCvATabLd8hkskYABARWSg0GsKhtsPovmzsfRqzlZaVYs26FlRXV6U9zmZT0LR8GQ63ZXejoigKlq9Yls8QqUAYABARWSCRSKKzoxMnu05Bs+DFUofDgebVK7Fw0QIIIQyds3TZEvT19uNKj/FtzOvWr4XX5811mFRADACIiIpI13WcPXMORw+3W1KmV5IkNC5ehBUrl2f9Vr4QAhs23oIP9+zDxQuX0h4rKzJuuHEd5s+fl/NYqbAYABARFclA/wAOth7CyHD6dN6FUltXizVrV8NfkluabeCjF/pu2XAzGuZdxvHOLgwODl3zuaIomDO3Hiual8Pr5Z3/ZMYAgIiowCJjERxqO5zxrrlQfH4fWtauxuzZdaa1WT+nHvVz6pFIJDAyEoCuaXA4HPCX+CHLsmn9UOEwACAiKpCUmsLJEyfR0XEMalItev+KTcGyZUvQtLwJUo7FuzKx2+0ZXyCkyYkBABFRAfRc7kHrgTaMjRU/g58QAvPmNWD12lUsvkMTYgBARGSikeERHDzQhgGLKvVVVlSgZX3LbzP4EU2EAQARkQni8Tg62o/h1IlTllTqc7vdaG5ZybfuyTAGAEREeRhP39t+pMOSSn2yImPxksVYsaLp99L3EqXDvxYiohz19fah9UCbZel7Z9fXYe0Na+DxXD99L1E6DACIiLIUGg2h7eAh9HQbz4hnprLyMqy9YQ1mzaq0pH+aHhgAEBEZlIgn0N7eidMnT0HTiv+c3+VyYUXz8qzS9xJNhAEAEVEGmqbj7JmzOHq4HfF4vOj9S5KERYsXoXnVClbVI9MwACAiSqO3tw+HWg8hEAha0v/s+jq0rG2Bb4YU1Dnam8KxgRRiam4rLBKAWR4JN85RUO7iKkk6DACIiK4jHArjyOGjlqXv9Zf40bJ2Nerqai3pv9h0AC+1J9DZn8q7rdPDGg72qPhqiwNzSwqTAXE6YACQo7/6wv0IBKx585emtuVLFlo9BEpDVVV0HevCsc4upFL5T0bZsjvsWLFyORoXN0KSZs4dbGu3asrkPy6RAl7uTOBbNzlRoCzIUx4DgBytbKiHXlf8Z4E09cl+n9VDoAmcO3ceRw4eQdSSMr0CCxYuQPPqlXA4HEXv32qHr5gfbA1HdVwIalhQxgjgehgAENGMNzQ4jIOtbRj6RGnbYqmpqUbLuhaUlpZY0v9kMJYozK6KcLz4uzWmCgYARDRjRaNRHGk7inPnzlvSv9fnxarVzZjbMMeS/mcCTv8TYwBARDNOKpXCya6T6Ow4hqQVZXoVBcualmDZ8mWQZbno/RMBDACIaIbpudyDg61tCIeLX6YXAObPn4dVa1fBxTK9ZDEGAEQ0I4wMj6Ct9RD6+wcs6b+ishxr161BRSXL9NLkwACAiKa1RCKB9qOdlpXpdblcWLWmmWV6adJhAEBE09J4md6Oox1IJCwo0yvLWLyUZXpp8uJfJRFNO329fTh4oA1BluklmhADACKaNkKjIRw6eBjd3T2W9F9WXoa161owq2qWJf0TZYMBABFNeclEEp2dx3Hi+Alomlb0/u12O1Y0L8fiJY0s00tTBgMAIpqydF3H+fMXcPjgEcQsSd/7UZnelc0rYLezTC9NLQwALKbpQGfQgc6AAz0RGWOqlDZzlUfRUeVS0eSPY3V5ArLI/a3m4YSMtiEHTo3aEUhKSGoT37koQkepXcMCXxJrymOocuaet1vTgY7Ax9cclRHJeM0aalwpNJUmsKosjvRHpzcUk9E67MTpsA3BhAQ13TVLOkptKSzyq1hTHkOlo/iFYWhifX39aGs9hMBIwJL+q2uqsfaGNSgp8VvSP1G+GABYaDAm4+cXfeiPGc8ENqYKnAvZcC5kw64BDZ+ZE8IcT3aZzHQdeK/Phd39Lmgwtlyp6gKDcRmDcRmtQ06sq4jh7rpI1pNxb1TGLy75MJTVNUs4E5JwJmTD7j4nPtMQRp0ru2vWdOCdK27sH3JBMzhkVRMYjCsYHFCwf9CJmyqjuKMmghlUoG1SikQiOHqo3bL0vT6/Dy1rV2P27DpL+icyCwMAi/RGZDx7tgTxNHegmQQTEn581o/Pzwuh0Wdsm5MO4JeXvOgI5F5tTNOB/YNODMUkfHFB2HAQcHlMwXPn/Ejkcc3DCRlbz/jxxXkhzPcau2ZNB1664MPJUXvO/Wo6sGfAheG4jM81hMDHvMWnaRo62jvRdeyEZWV6V65cjkUzrEwvTV+skWiBWErgZxf8eU3+41K6wMsXvAgkjN1R7+l35TX5X+1M2I53e1yGjh1TBV684Mtr8h+nagK/uOhDKGnsz3dnnyuvyf9qXaN2vN9v7JrJPNFoFG+98Q46248VffIXQqBx8SI8+PBmLF66mJM/TRsMACywZ8CFUYOTlxFxTcL23syT0pgq4QOTJ699g04MxzMHHx/0uzGmmnfNEVVgZ58743HBhIS9A+Ze8+5+F4Imfn+UnqqqeG/7+xgZHil63zU11bh38z1Yt34t7HZzgkiiyYKPAIpM14HDw+bcgV/tWMCO+2cLOOWJl+M7Ruym3IFfTYPA4REH7qiJpD3m6Ij513w0YMc9dQI2aeJrPhpwQtXNvWZVF2gfceDWqqip7dL1dRztLPqLfm63G80tK6dV+t6wOoJL0RNI6vGczpeEghrHPFTaZ5s8MrIKA4Ai64vJCJt4JzxOg8D5MRuW+hMTHnN2rDB3MGdDNtxRM/HnPWMyYinzl01VTeDymIL5ad5/OBcuzJ/4ubCNAUARJBJJnDxxqmj9TdcyvQcCb2DX8MtI6fmXPl7mvQn3Vj0GWXD6mOr4DRaZmUv/v9d2In3bmT7PVabl8GCycP9IA6oMYOIAIFigaw4UqF26Vk93T9Ge+c9fMA+rWprhck2vdzy6wvuwc+gl09o7Hv4QPls5biv/rGltkjUYABRZQd8ez9B2ofrO9E6UyGPffsa+M3xeqF833wMrjpGRwj/3r6is+LhMb3nB+7LCnuFfmd5ma+At3Fi6GQ5pegVLMw0DgCIrsRUuTWmpLf2dkt+WQm/U/LvxTNdUYi/cNfszXbNdw7DBHRJZ9VvAa6LfUZP5L1lPxOVyYUXzcixctGDapu/VoGEk2Wd+u7qKYHIAVY65prdNxcMAoMhmOVPw2zTTHwXIQkeDN/1kuNCXNG073LXtTvzeAQDUulS4FR0R1dx/snZJz5gEaZE3ifNh81O0LjSYg4DyY7OZ/93JsoylTUvQtHwZFGV6/wvUdR16gVbgUjozY051fJBZZAJAS3lub+Gms7I0DoeU/q50eUk87S6BXMhCx+ry9AGAJICWMvPztK8uj0PJkAp5ZVk87S6BXNglHc1l5n+H9PvKK8xdlp9dX4f7H7wPzatWTvvJnygTBgAW+INZUZTZzYue3YqOT9VkfiPdrei4vXri7Xq5uGVWFCUZluEB4JaqqKmPP7yKhg1Vma/FZ9OwweS39TdUR+FV+AigGGrramEzociOv8SP2+/YiNtu3wCv12PCyIimPgYAFrBLOr4wPwyPkv+dqV3S8ejcEHwGJ9f1lTGsMWkFYllJAhurjU2uTlnHH84bNWUFwiFp+Py8kOHf3y1VUawsNeeam8viuHkWt/8Vi82mYMnSJTmf73A4cMON63D/A/eiti7NXlWiGYgBgEVmOVQ80RhEfZaFfK5tI4WvLwwazok/bnN9GHfVRnJeGpeFjg1VETw6N7uc+DWuFJ5YFMy6kM8n23isMYR6t/E2BIBPzw3j9ppoxkcGE1Gkj1ZZHp4TLtjOArq+5SuWoaKyIqtzJEnC0mVL8ODDm7GoceG0fcmPKB98CGahElsKf7QwiNOjNnQEHOiOKgilKcsrCx0+m4ZaVwpLSxJYXhLPaTuaAHDzrI/uituGnTgTsiGQkNKWIvYoOkpsqY/LAcdRmuMjjHJHCo83BnFi1I7OgB1XIgpG1YnL8irj1+xOockfx7KSRE7bGQWA26oiWFUaw+ERB06H7L+95ol4FA2ldg2LfAmsLo8XdAcHTUySJNx+x0bs2rkLfX39GY+vm12LNWtb4PP7ijA6oqmLAYDFBIBGfxKN/uK/Ve6zadhYHcHG6uL2KwAs9SfSZi0slBK7ho3VUcOPLmhysNtt+NRdt+P0qTPoOtaFcHjs946pqpqFphVNXOonMogBABFNCeNV+RoXL8LI8AiCwVGoqgq73Y7KWRVwuzMXhyKi32EAQERTTll5GcrKy6weBtGUxpcAiYiIZiAGAERERDMQAwAiIqIZiAEAERHRDMSXACeB/piMzoAd3REFoaQMdYLN+B/lAdBR7VTRVJLIK4kQACQ1geNBO06FbBhNyggnJ95g71Z0+G0aFvoSWF6agCPP/Pq23m44j7fDfqUbcmgUUK+/DVJXFGg+P5LVdYg2NSNZW59XvyIeh6urHY6zJ6EEAxBj4QmP1T1eqCWliC9cgujSFdDtjrz6JiKaTBgAWCiaEnit24NjAYfhel2DceBc2IYPB11Y6E3ggfqxnMrtdgYdeKvHjZDBqoQjCaAbwPGgHdt7ddxRM5ZTSmEpEkbp66/A2dVh/KTBfjjOnYb3w/cRW9yE4H2PIOXNPsmL++hB+La/DjnNpH+NwDBs3RfhOnYUvu2vY/SuzYiuaMm6XyKiyYgBgEVCSQnPnvVjOJ57rfozYTuePq3gywtGUe00npnvg3433ut15VwkNKIKbLvsRX9Mwb11v5+QZSJKYATlz22BEhzJsWfAefIYbL3dGPrSH0OtqDR8nm/HG/DteS/nfuWxMMp+9SKUwX6Ebr8n53ZoehJ6AkLPreKlJtyA4L9iKj7+1VkgpQv87Lwvr8l/3Jgq4Wfn/XiyMQCXgUI7nQFHXpP/1fYPOlHuSGF9ReZ/fCKZRPlLW/Oa/MfJo0GUv7QVA499C7oj87K8+/CBvCb/q/l270CqvBKR5rWmtEdTmz1xGP7hv4ctcSyPViQkHKsxWvYfkLSvNG1sRJnwJUALHBxy4ErUvNgrmJDwQZ8r43EJTeDNHrcpk/+47VfcafPpj/Pu3wVloM+0fpXhQXj3vZ/xOCkeg3/766b1CwD+t7dBippbVpmmHntsPyp6v57n5A8AGuzxNlT0PQYledqUsREZwQDAAvsGnaa32TbsnLCgzrhjQQfCBibrbCQ0gSPDGe7CdR3u1r2m9gsAnta9gJb+0YfraJvpk7UUi8J17IipbdJUo6Nk+G8AmFcgSuhxlAz/rWntEWXCAKDIhuIyRhL5L/1/UkITuDCWflXhdMhmer8AcCpDu7a+HsjhUdP7laIR2LsvpT3GeeaE6f0CgPN0YdqlqUFWr0BRL5rerj3eBqEXvzAYzUwMAIpsJFG4X/lIMn1gMVyAwANAxoBGDuT/3H8iSmA4fd8jQwXpV8rQL01vQi9UNUkt55cJibLFAKDIND2HYvYGqRk2AmgFKmefynBNImV8h0LW1Ay5EArUt5ggbwER0VTBAKDIvLYCzcIA/Bna9hWo70ztpnzZ79k3KuUvSfu5luHzXGm+wrRLRFQsDACKrMaVgtPAdr1sCQHM9aa/G27wFOaudZ43fbvJujnQ7XbT+9UlCcn6hrTHxOfON71fAIg3LChIu0RExcIAoMgk6FhRmn0GvUwWeZPwKunvxFeWJSALc4MPAaC5NP0zS12xIbrU/P3NsaUroDnS76iIrWgBJJP/zCWZGQGJaMpjAGCB26qjpq4CyELHnbWZM/KV2Iwl7clGc3kcNa7Mz9nDt91lKGmPUbrNhtDGuzMel6yswtjqG0zrFwDGWtZDrZhlaptERMXGAMACXkXDow1hSCak5BEA7q+PoMpgKuA7aqMZl+yNqnGlcJ/BVMBqSRlGHvpDQDJhJ4IQCDzwOajlxlIBj256AMnZc/LvF0CyvgGjd202pS0iIisxALDIQm8CX1kYyrhsn45D0vDZhhBayozf1ctCx5fmhdBclt9jiMX+BL62MAh7FlUBY4ubMPSFr0Nze3LuV3O5Mfy5ryLa1Gz4HF2xYfBLTyC6LL/HENGmZgx+8XHoCjNoE9HUx/9kFmrwJPGnSwPYP+hEZ8CBvpixu+MyewpNpQncVBmFR8l+FUGRdHx6ThhryuPYN+jEmZANiQxZBMfPW+BVsa4iikW+3FYR4vMb0f/N/wTP/t1wHjsC22C/ofPUilmILluJsRs3QHNmTnv8SbrdgZHP/CtEzp2Cp3UvHOdOQSQzX4NusyG+YDHG1t2M+LyFWfdLRDRZMQCwmF3ScWtVFLdWRaFqAmMpCVqaOd2jaFnddacz15PEXE8SOj4qKpRMEwTYJB0eWYMwIY2B5nAitOFOhDbcCZFMflyed+JrSnl80G3mZDGMz29EfH4joOuQx8Jp9/Prig0pjxemXDQR0STDAGASUSQdJVIBk+ZMQAB5PYrIh26zQS0tK37HQiDlLVx+AiKiyY7vABAREc1ADACIiIhmIAYAREREMxADACIiohmIAQAREdEMxF0Ak0A8JXAmZMPliIIxVUIK1992JkGHW9FR60qh0ReHO4ccAJ+k9PXAdfoEpGAAUmziGue6w4FUSRliCxqRrK3Pe2ucFI/BcfoEbFcuQw6HJq5VLAmkPD4ka2cjvnAJNJc7r36h67D19sB59iTkwDBEfOKESLrDgVRpOWILFyNZXcftgEUkjYXh+uBNKJcvQCQSObWh+UqQaFqN2Jqb+N0RXQcDAAtpOrBnwIXd/S7EDSTiuZoi3FhfGcPG6ihsOeQFsPV2o+TtbbBfPJfVeb6dbyFZMxvBux9EYs68rPsVqRS8e3bA++EHEInsshHqNhvC629FeMOd0OXs/3Rt3ZdQ+vavYeu+mNV5vvfeRLK+AYG7H/wo+KGCUnouovSH34E0Gsi7LefB3XAc2ovg4/+OQQDRJ/ARgEUSmsAL53zY3uvOevIHAFUX2DPgwjNnShBWs/sanV0dqHz2h1lP/uNsvd2oeG4L3IcPZHWeFI+h4oWn4Xv/nawnfwAQySR8u3eg8rmnIEUjWZ3rbm9D5U9+mPXkP852+QIqn/0BXB2HcjqfDNI0+J/7oSmTbMuVAgAAC45JREFU/zhHRxvcu94xrT2i6YIBgAV0AK9c8uJs2J53W71RGS+d9yGlGwsi7JfOo+yVn6bNgGeE0DSUvvYynKe7jJ2g6yj75Qs5Bx1Xs12+gPJfPA9oxpImOc6dQum2X0Ck8kuyJFIplP3657BfOJNXOzQx5dI5KD25BWnpOPfvNL1NoqmOAYAFjgfs6ArmP/mPuxxRsG/QmflATUPJay/nPRH+lq6j5DcvG3pG625vg+PMSXP6BWC/cAYeAysQIpVCyWu/NBwsZKSlULrt5xAp1Zz26BqyiXf+V5MCIwVpl2gqYwBggd0D2RezyWTvgCttDQEAcJ48Zrj4jlFyeBRuA8vinr3m34F59uwE9PQX7eo8AiUwbGq/SmAEzuPtprZJH8vwfRKReRgAFNloUkJv1Px3L8dUge5o+oI5zlPHTe8X+CiwSEcZGjQ98AAAJTgCpf9K2mOcp9KPLVfOk4X5XRIRFQsDgCIbistp6t7lZyCW/uu0DZk/CQOAnKFdZXigIP0CgG0ofdvKYGH6LtTvkoioWBgAFFk8VbitSHEtw9eZZs97PqQM7Yp4rCD9AoAUS9+2SBbmmgt5TURExcAAoMgKWXY3U9u6pzDlb1Meb9rPtQL1CyBjSV/NnX5suSrkNRERFQMDgCKrdqVyStxjxGxX+jfT47PnFKTfZH1D+s9r6gBJNr9jIZCsS39NiQJdc7x+bkHaJSIqFgYARWaTdDT689uDfz11LhXljvRb3aJNzQXJhhZtWpX2c83lRnxBo+n9JubOz7gCkGlsuYouay5Iu0RExcIAwAK3V0UgmfgqoABwZ03mzHhqdR2iy1aa1i8AxOctRHz+oozHjd62CZBM/HMTAsHb78l4WGLOPMQWLTWvXwCxxmUZVz2IiCY7BgAWqHSmsHlOdqls07m5Kor5PmOrCsH7HoFaXmlKvymPF4EHP2/o2GTtbIzecZ8p/QJAaOPdhifh4AOfRaqk1JR+1ZIyBDY/akpbRERWYgBgkZayGDbPDue1EiAAbKyO4A4Dd//jNKcLQ19+Esna2Tn3CwDJilkY+uq/RspfYvic8I0bMLrpgfxWAoRA6I57Ebr5dsOnpDxeDH35G1CranLvF4BaXYvhrzwJLcNLj0REUwGrAVpobUUcDV4VO3tdOBmyI2mwKJAEHQt9KjbWRFCX4cW/60n5/Bj8+p/AfWgfPPt3QxkeNHyuWlKG6NobEb7hFuhK+sRD1xNefyti8xvhf/9tOE53QajGxq/LMuILFmN04yao1XVZ96uWlmHgsT+Fp/VDuFv3ZJUdUC2rQGTdH2Bs7R9AlwvwMiMRkQUYAFis0pHCow1hJDWBvpiMsCpBm2A3nxAfbfWb5UzBKef3DoEuSRhb+9GkpowMQQ6MQIpNvJKg2Z3QSkqRrKzKq18AUGdVY/jRL0MkElD6r0COjE2YW1+XZGgeL5KzaqA7HHn1q8sKwjfeivCNt0IZGoQcHIaUZj+/5nQh5S+DWmHOIxMiosmEAcAkYZN01LutKTCjllVALasoer+63Y5kfQPM3xORmVpRyYmdiGY0vgNAREQ0AzEAICIimoEYABAREc1ADACIiIhmIAYAREREMxADACIiohmIAQARTRq6Upidyaa3K7JPgmWULuymtSUJCZIozL95mzD3dyoXaDZSOMtNiL8aIpo0UrMbClKxUq2fZ257ch002XgabMPt2hZAF/klvLqagMAsu/mlq+2SA6X2alPbrPWZPx2JArU7XfA3kyMhM4cS5YZ/OxNLlZQhevMdprapKwrGNn3a1DYhFIT9T5rbJoBQyTdNb/PmsocgYG5Qtb50MxQTVyoAYEODYvrd+qoaGeUu8wPK6YIBQI6Ew2X1EGgKErIC5FBDYSYJP/IVjG16CJDyr7uQKq1A8PF/D3XufBNGdq0x35cRLPtL6FL+/ws0yY9gxbcRc99twsiutdCzGg/V/Ancsj/vtmRhw81lD+PGss0mjOxa1V4Jf7TGgQp3/hO2JIAbZit4aJm5Qcp0w1uRHAm7E5LDDS1uXllfmuaEgOQvt3oUk56uKBjb/HlEP3U/5N5uCDW3ZNGa2wu1bm5+1SfTEoj4voCo52HY1BMQ2sR1JdLRJA9U2xJTn/1/UqNnDRa6m9Efv4S4Hs2pDUXYMMs+B3bJafLofmdOiYQ/u8mJvrCGSI45wiUJmOUR8Nh4558JA4A8SP5yIGKDFg0DWsrq4dAkJmwOyN5S3v1nQXN7oS1YYvUwMtIlFxL21VYPIyNJKKhxmr8SYjYhgBo+ty8KBgB5ktw+SG4fdC0F6PlV6KPpSUhyQV5sIyLKBwMAkwgTnlcSEREVC9dZiIiIZiAGAERERDMQAwAiIqIZiAEAERHRDMQAgIiIaAZiAEBERDQDMQAgIiKagRgAEBERzUAMAIiIiGYgBgBEREQz0JQKADSm2icioklqqs1RUyoAGI1Psd8uERHNGMEpNkdNqQDgfEBDSrN6FERERNdSNeDCyNSaoKZUABBL6vjwsmr1MIiIiK7x4SUVMZUrAAX17pkkzgemVpRFRETT1/mAhnfPJq0eRtamXACgasCzh+LYdUHl4wAiIrKMqgG7Lqh49lB8Ss5HitUDyEVKA946ncT751U0lEnw2YXVQyKall7tmnp3NUTFEIrruBDQptyy/9WmZAAwLqbqODGQsnoYRNNWazffuSGarow+AogWdBRERERkloiRg4wGAKE8BkJERETFM2rkIKMBQDiPgRAREVGR6AZv2o0GAL15jIWIiIiKRUefkcMMBgD6iXzGQkRERMUhhOgycpyhAEDoggEAERHRFKDrxm7aDQUAGvSO/IZDRERERSE0Q3O2oQBAdsR3AeCGYCIioslNjQnPHiMHGgoAtmwqD+rAwfzGRERERAW2//n7hanbACGE/k7u4yEiIqJCy2auNhwApKC8kNtwiIiIqBhESvmp0WMNBwDP3O84BoG23IZEREREBbZ/y4MOQ1sAgSzLAevAM9mPh4iIiApN6Pqz2RyfVQCQkF3PABjIakRERERUaIM2j/vH2ZyQVQDwk3vEmID439mNiYiIiApJ6PjH739KZFW3J6sAAACEPfo9CAxlex4REREVxEAq5fp+tidlHQBs2VQehKb/ZbbnERERkfkExJ//88PCUAXAq2UdAABAfav7aQjszeVcIiIiMs3up+53ZvXy37icAoBvf1tokq59A0Asl/OJiIgob5GUkJ+EEHouJ+cUAADAls3edh36v831fCIiIsqdLsS3nrnfcSzX80W+A3jiN5HnAXwp33aIiIjIKP3HT2/2fC2fFnJeARjnG3M9AeCDfNshIiIiQ3aqbvc38m0k7wDgu58XUckeexDA4XzbIiIionREh01PPLL1UyLvd/DyfgQw7sk3xmq1lPQmoK80q00iIiL6iACOJKHdu3Wzt9eM9vJeARi35V7PFTURuw18HEBERGS2ncIe22jW5A+YGAAAwNZHygK+Mdc90PG8me0SERHNVAL4iep23btlU3nQ5HYL44nXol+Frv8AgLtQfRAREU1jMQH8xVOb3f9UiMYLFgAAwOPbQiuEkH8E4OZC9kNERDSd6Dp2aZL8jXz2+WdS0AAAAKDr4onfxB6D0P8eQGXB+yMiIpq6BgTEnz91v/PZXDP8GVX4AOBj39yhe5OR6OM68J8B1BarXyIioilgEND/r2SPf9fsZ/0TKVoAMO4rb+oehxr5OiC+BuCGYvdPREQ0iRwQur5V6O6tWx4UkWJ2XPQA4GpPbIsvA9QvQhJ3QccNABQrx0NERFRgKoD9Qujv6Jrys6cfcBy3aiCWBgBXe+xXuk+2RW7VdbEC0JcAYjGAOgDej3881o6QiIjIkDEA4Y9/egBxAtBPCqF3pJLuXf/8sAhZPD4iIiIiIiIiIiIiIiIiIiIiIiIiIiIiIiIiIiIiIiIiIiIiIrLa/wc9BTtZ2SjcHQAAAABJRU5ErkJggg==;" vertex="1" parent="1">
          <mxGeometry x="1014" y="160" width="80" height="80" as="geometry" />
        </mxCell>
      </root>
    </mxGraphModel>
  </diagram>
</mxfile>
